<svg 
 xmlns="http://www.w3.org/2000/svg"
 xmlns:xlink="http://www.w3.org/1999/xlink"
 width="1619px"
 height="510px"
 viewBox="-100 0 1819 510"
 >

   <defs>
      <filter id="blur">
         <feGaussianBlur in="SourceGraphic" stdDeviation="20, 0" />
      </filter>
   </defs>

   <path
      fill-rule="evenodd" 
      fill="rgb(255, 255, 255)" 
      style="filter: url(#blur)"
      d="M1573.434,231.804 L1573.434,278.081 L1527.157,278.081 L1527.157,324.359 L1480.880,324.359 L1480.880,370.636 L1480.880,416.913 L1480.880,463.190 L1480.880,509.467 L1434.603,509.467 L1388.326,509.467 L1388.326,463.190 L1388.326,416.913 L1388.326,370.636 L1388.326,324.359 L1342.048,324.359 L1342.048,278.081 L1295.771,278.081 L1295.771,231.804 L1249.494,231.804 L1249.494,185.527 L1249.494,139.250 L1249.494,92.973 L1249.494,46.696 L1249.494,0.419 L1295.771,0.419 L1342.048,0.419 L1342.048,46.696 L1342.048,92.973 L1342.048,139.250 L1342.048,185.527 L1388.326,185.527 L1388.326,231.804 L1434.603,231.804 L1480.880,231.804 L1480.880,185.527 L1527.157,185.527 L1527.157,139.250 L1527.157,92.973 L1527.157,46.696 L1527.157,0.419 L1573.434,0.419 L1619.711,0.419 L1619.711,46.696 L1619.711,92.973 L1619.711,139.250 L1619.711,185.527 L1619.711,231.804 L1573.434,231.804 ZM1110.663,509.467 L1110.663,463.190 L1110.663,416.913 L1110.663,370.636 L1064.386,370.636 L1018.109,370.636 L971.831,370.636 L925.554,370.636 L925.554,416.913 L925.554,463.190 L925.554,509.467 L879.277,509.467 L833.000,509.467 L833.000,463.190 L833.000,416.913 L833.000,370.636 L833.000,324.359 L833.000,278.081 L833.000,231.804 L833.000,185.527 L833.000,139.250 L879.277,139.250 L879.277,92.973 L925.554,92.973 L925.554,46.696 L971.831,46.696 L971.831,0.419 L1018.109,0.419 L1064.386,0.419 L1064.386,46.696 L1110.663,46.696 L1110.663,92.973 L1156.940,92.973 L1156.940,139.250 L1203.217,139.250 L1203.217,185.527 L1203.217,231.804 L1203.217,278.081 L1203.217,324.359 L1203.217,370.636 L1203.217,416.913 L1203.217,463.190 L1203.217,509.467 L1156.940,509.467 L1110.663,509.467 ZM1110.663,231.804 L1110.663,185.527 L1064.386,185.527 L1064.386,139.250 L1018.109,139.250 L971.831,139.250 L971.831,185.527 L925.554,185.527 L925.554,231.804 L925.554,278.081 L971.831,278.081 L1018.109,278.081 L1064.386,278.081 L1110.663,278.081 L1110.663,231.804 ZM694.169,509.467 L647.891,509.467 L601.614,509.467 L555.337,509.467 L509.060,509.467 L462.783,509.467 L416.506,509.467 L416.506,463.190 L416.506,416.913 L416.506,370.636 L416.506,324.359 L416.506,278.081 L416.506,231.804 L416.506,185.527 L416.506,139.250 L416.506,92.973 L416.506,46.696 L416.506,0.419 L462.783,0.419 L509.060,0.419 L509.060,46.696 L509.060,92.973 L509.060,139.250 L509.060,185.527 L509.060,231.804 L509.060,278.081 L509.060,324.359 L509.060,370.636 L509.060,416.913 L555.337,416.913 L601.614,416.913 L647.891,416.913 L694.169,416.913 L740.446,416.913 L786.723,416.913 L786.723,463.190 L786.723,509.467 L740.446,509.467 L694.169,509.467 ZM323.952,278.081 L277.674,278.081 L231.397,278.081 L185.120,278.081 L138.843,278.081 L92.566,278.081 L92.566,324.359 L92.566,370.636 L92.566,416.913 L92.566,463.190 L92.566,509.467 L46.289,509.467 L0.012,509.467 L0.012,463.190 L0.012,416.913 L0.012,370.636 L0.012,324.359 L0.012,278.081 L0.012,231.804 L0.012,185.527 L0.012,139.250 L0.012,92.973 L0.012,46.696 L0.012,0.419 L46.289,0.419 L92.566,0.419 L138.843,0.419 L185.120,0.419 L231.397,0.419 L277.674,0.419 L323.952,0.419 L323.952,46.696 L370.229,46.696 L370.229,92.973 L370.229,139.250 L370.229,185.527 L370.229,231.804 L323.952,231.804 L323.952,278.081 ZM277.674,139.250 L277.674,92.973 L231.397,92.973 L185.120,92.973 L138.843,92.973 L92.566,92.973 L92.566,139.250 L92.566,185.527 L138.843,185.527 L185.120,185.527 L231.397,185.527 L277.674,185.527 L277.674,139.250 Z"
      />
</svg>