<?xml version="1.0" encoding="UTF-8" standalone="no"?>

<svg
   width="300mm"
   height="130mm"
   viewBox="0 0 300 130"
   version="1.1"
   id="svg5"
   sodipodi:docname="PLAY.svg"
   xmlns:inkscape="http://www.inkscape.org/namespaces/inkscape"
   xmlns:sodipodi="http://sodipodi.sourceforge.net/DTD/sodipodi-0.dtd"
   xmlns="http://www.w3.org/2000/svg"
   xmlns:svg="http://www.w3.org/2000/svg">

   <defs>
      <filter id="blur">
         <feGaussianBlur in="SourceGraphic" stdDeviation="2.5 , 0" />
      </filter>
   </defs>

   <g
     id="vcr_play">
    <g
       aria-label="PLAY"
       transform="scale(0.91291727,1.0953895)"
       id="text236"
       style="fill:#ffffff; filter: url(#blur)"
       >
      <path
         d="m 54.695207,118.97991 h -6.268751 v -6.26875 -6.26875 -6.26875 -6.268749 -6.26875 -6.26875 -6.268751 -6.26875 -6.26875 -6.26875 -6.26875 h 6.268751 6.26875 6.26875 6.26875 6.26875 6.268751 6.26875 v 6.26875 h 6.26875 v 6.26875 6.26875 6.26875 6.268751 h -6.26875 v 6.26875 h -6.26875 -6.268751 -6.26875 -6.26875 -6.26875 v 6.26875 6.268749 6.26875 6.26875 6.26875 z m 25.075,-43.88125 h 6.268751 v -6.26875 -6.26875 h -6.268751 -6.26875 -6.26875 -6.26875 v 6.26875 6.26875 h 6.26875 6.26875 z"
         style="font-weight:500;font-family:VCRosdNEUE;-inkscape-font-specification:'VCRosdNEUE Medium'"
         id="p" />
      <path
         d="m 148.72646,118.97991 h -6.26875 -6.26875 -6.26875 -6.26875 -6.26875 -6.26875 -6.26875 v -6.26875 -6.26875 -6.26875 -6.268749 -6.26875 -6.26875 -6.268751 -6.26875 -6.26875 -6.26875 -6.26875 h 6.26875 6.26875 v 6.26875 6.26875 6.26875 6.26875 6.268751 6.26875 6.26875 6.268749 6.26875 h 6.26875 6.26875 6.26875 6.26875 6.26875 6.26875 v 6.26875 6.26875 z"
         style="font-weight:500;font-family:VCRosdNEUE;-inkscape-font-specification:'VCRosdNEUE Medium'"
         id="l" />
      <path
         d="m 205.14521,118.97991 h -6.26875 v -6.26875 -6.26875 -6.26875 h -6.26875 -6.26875 -6.26875 -6.26875 v 6.26875 6.26875 6.26875 h -6.26875 -6.26875 v -6.26875 -6.26875 -6.26875 -6.268749 -6.26875 -6.26875 -6.268751 -6.26875 h 6.26875 v -6.26875 h 6.26875 v -6.26875 h 6.26875 v -6.26875 h 6.26875 6.26875 v 6.26875 h 6.26875 v 6.26875 h 6.26875 v 6.26875 h 6.26875 v 6.26875 6.268751 6.26875 6.26875 6.268749 6.26875 6.26875 6.26875 z m -12.5375,-31.343749 h 6.26875 v -6.26875 -6.268751 h -6.26875 v -6.26875 h -6.26875 -6.26875 v 6.26875 h -6.26875 v 6.268751 6.26875 h 6.26875 6.26875 z"
         style="font-weight:500;font-family:VCRosdNEUE;-inkscape-font-specification:'VCRosdNEUE Medium'"
         id="a" />
      <path
         d="m 242.75771,118.97991 h -6.26875 v -6.26875 -6.26875 -6.26875 -6.268749 h -6.26875 v -6.26875 h -6.26875 v -6.26875 h -6.26875 V 75.09866 68.82991 62.56116 56.29241 50.02366 h 6.26875 6.26875 v 6.26875 6.26875 6.26875 6.26875 h 6.26875 v 6.268751 h 6.26875 6.26875 V 75.09866 h 6.26875 v -6.26875 -6.26875 -6.26875 -6.26875 h 6.26875 6.26875 v 6.26875 6.26875 6.26875 6.26875 6.268751 h -6.26875 v 6.26875 h -6.26875 v 6.26875 h -6.26875 v 6.268749 6.26875 6.26875 6.26875 z"
         style="font-weight:500;font-family:VCRosdNEUE;-inkscape-font-specification:'VCRosdNEUE Medium'"
         id="y" />
    </g>
  </g>
</svg>
