<?xml version="1.0" encoding="UTF-8" standalone="no"?>


<svg
   xmlns:dc="http://purl.org/dc/elements/1.1/"
   xmlns:cc="http://creativecommons.org/ns#"
   xmlns:rdf="http://www.w3.org/1999/02/22-rdf-syntax-ns#"
   xmlns:svg="http://www.w3.org/2000/svg"
   xmlns="http://www.w3.org/2000/svg"
   xmlns:sodipodi="http://sodipodi.sourceforge.net/DTD/sodipodi-0.dtd"
   xmlns:inkscape="http://www.inkscape.org/namespaces/inkscape"
   width="353.20874"
   height="115.42957"
   id="svg161519"
   version="1.1"
   inkscape:version="0.48.2 r9819"
   sodipodi:docname="New document 9">
  <defs
     id="defs161521">
    <clipPath
       clipPathUnits="userSpaceOnUse"
       id="clipPath3918">
      <path
         inkscape:connector-curvature="0"
         d="m 1059.498,606.321 38.566,0 0,12.604 -38.566,0 0,-12.604 z"
         id="path3920" />
    </clipPath>
    <clipPath
       clipPathUnits="userSpaceOnUse"
       id="clipPath3914">
      <path
         inkscape:connector-curvature="0"
         d="m 0,0 1224,0 0,792 L 0,792 0,0 z"
         id="path3916" />
    </clipPath>
  </defs>
  <sodipodi:namedview
     id="base"
     borderopacity="1.0"
     inkscape:pageopacity="0.0"
     inkscape:pageshadow="2"
     inkscape:zoom="1"
     inkscape:cx="152.10431"
     inkscape:cy="3.5522341"
     inkscape:document-units="px"
     inkscape:current-layer="layer2"
     showgrid="false"
     fit-margin-top="0"
     fit-margin-left="0"
     fit-margin-right="0"
     fit-margin-bottom="0"
     inkscape:window-width="1920"
     inkscape:window-height="1018"
     inkscape:window-x="-8"
     inkscape:window-y="-8"
     inkscape:window-maximized="1" />
  <metadata
     id="metadata161524">
    <rdf:RDF>
      <cc:Work
         rdf:about="">
        <dc:format>image/svg+xml</dc:format>
        <dc:type
           rdf:resource="http://purl.org/dc/dcmitype/StillImage" />
        <dc:title></dc:title>
      </cc:Work>
    </rdf:RDF>
  </metadata>
  <g
     inkscape:label="Layer 1"
     inkscape:groupmode="layer"
     id="layer1"
     transform="translate(-222.89569,-420.48484)">
    <path
       inkscape:connector-curvature="0"
       d="m 233.94889,530.45151 59.89359,0 0,-84.07419 -59.89359,0 0,84.07419 z"
       style="fill:#ffffff;fill-opacity:1;fill-rule:evenodd;stroke:none"
       id="path139842" />
    <path
       inkscape:connector-curvature="0"
       d="m 325.94889,529.95151 59.89359,0 0,-84.07419 -59.89359,0 0,84.07419 z"
       style="fill:#ffffff;fill-opacity:1;fill-rule:evenodd;stroke:none"
       id="path139842-4" />
    <path
       inkscape:connector-curvature="0"
       d="m 419.94889,529.95151 59.89359,0 0,-84.07419 -59.89359,0 0,84.07419 z"
       style="fill:#ffffff;fill-opacity:1;fill-rule:evenodd;stroke:none"
       id="path139842-0" />
  </g>
  <g
     inkscape:groupmode="layer"
     id="layer2"
     inkscape:label="Layer">
    <g
       transform="matrix(9.1583154,0,0,-9.1583154,-9703.2077,5668.3104)"
       id="g31638">
      <g
         clip-path="url(#clipPath3914)"
         id="g31640">
        <path
           d="m 1059.497,606.352 8.839,0 0,12.573 -8.839,0 0,-12.573 z"
           style="fill:#000;fill-opacity:1;fill-rule:nonzero;stroke:none"
           id="path31642"
           inkscape:connector-curvature="0" />
        <path
           d="m 1063.941,612.1273 -0.732,-2.108 1.44,0 -0.708,2.108 z m 1.351,-4.086 -0.342,1.026 -2.059,0 -0.35,-1.026 -1.18,0 2.108,5.795 0.887,0 2.116,-5.795 -1.18,0 z"
           style="fill:#ffffff;fill-opacity:1;fill-rule:nonzero;stroke:none"
           id="path31644"
           inkscape:connector-curvature="0" />
        <path
           d="m 1069.693,606.352 8.839,0 0,12.573 -8.839,0 0,-12.573 z"
           style="fill:#000;fill-opacity:1;fill-rule:nonzero;stroke:none"
           id="path31646"
           inkscape:connector-curvature="0" />
        <path
           d="m 1075.605,608.0419 0,3.377 -1.107,-2.197 -0.765,0 -1.115,2.197 0,-3.377 -1.131,0 0,5.794 1.114,0 1.515,-3.133 1.505,3.133 1.115,0 0,-5.794 -1.131,0 z"
           style="fill:#ffffff;fill-opacity:1;fill-rule:nonzero;stroke:none"
           id="path31648"
           inkscape:connector-curvature="0" />
        <path
           d="m 1079.888,606.352 8.839,0 0,12.573 -8.839,0 0,-12.573 z"
           style="fill:#000;fill-opacity:1;fill-rule:nonzero;stroke:none"
           id="path31650"
           inkscape:connector-curvature="0" />
        <path
           d="m 1083.741,608.042 1.132,0 0,5.794 -1.132,0 0,-5.794 z"
           style="fill:#ffffff;fill-opacity:1;fill-rule:nonzero;stroke:none"
           id="path31652"
           inkscape:connector-curvature="0" />
      </g>
    </g>
    <g
       transform="matrix(9.1583154,0,0,-9.1583154,-9703.2077,5668.3104)"
       id="g31654">
      <g
         clip-path="url(#clipPath3918)"
         id="g31656">
        <path
           d="m 1092.731,606.3212 c -0.935,0 -1.331,0.661 -1.331,1.314 l 0,2.274 -0.485,0 0,0.873 0.485,0 0,1.357 1.146,0 0,-1.357 0.811,0 0,-0.873 -0.811,0 0,-2.204 c 0,-0.264 0.123,-0.414 0.397,-0.414 l 0.414,0 0,-0.97 -0.626,0 z"
           style="fill:#555;fill-opacity:1;fill-rule:nonzero;stroke:none"
           id="path31658"
           inkscape:connector-curvature="0" />
        <path
           d="m 1096.38,606.3212 -0.899,0 -1.693,4.593 1.208,0 0.935,-2.839 0.925,2.839 1.208,0 -1.684,-4.593 z"
           style="fill:#555;fill-opacity:1;fill-rule:nonzero;stroke:none"
           id="path31660"
           inkscape:connector-curvature="0" />
      </g>
    </g>
  </g>
</svg>
