<?xml version="1.0" encoding="utf-8"?>
<!-- Generator: Adobe Illustrator 12.0.0, SVG Export Plug-In . SVG Version: 6.00 Build 51448)  -->
<!DOCTYPE svg PUBLIC "-//W3C//DTD SVG 1.1//EN" "http://www.w3.org/Graphics/SVG/1.1/DTD/svg11.dtd" [
	<!ENTITY ns_svg "http://www.w3.org/2000/svg">
	<!ENTITY ns_xlink "http://www.w3.org/1999/xlink">
]>
<svg  version="1.1" id="Layer_1" xmlns="&ns_svg;" xmlns:xlink="&ns_xlink;" width="237.499" height="120.311"
	 viewBox="0 0 237.499 120.311" overflow="visible" enable-background="new 0 0 237.499 120.311" xml:space="preserve">
<rect fill="#000000" width="237.499" height="120.311"/>
<path fill="#FFFFFF" d="M9.857,7.443h22.042c12.485,0,18.211,7.637,18.211,18.815v16.594c-0.133,9.122-5.43,11.896-14.383,13.961
	v0.299c9.838,1.902,14.836,4.554,14.836,16.313V90.02c0,12.499-5.739,22.047-18.813,22.047H9.857V7.443z M25.434,50.788h3.527
	c3.968,0,5.581-1.757,5.581-7.782V27.129c0-6.025-1.613-7.781-5.581-7.781h-3.527V50.788z M25.434,99.576h3.083
	c4.412,0,6.469-1.771,6.469-8.227V71.505c0-6.466-2.057-8.223-6.469-8.223h-3.083V99.576z"/>
<path fill="#FFFFFF" d="M54.641,28.01h14.098v4.862h0.309c2.057-3.977,5.87-5.883,9.692-5.883c11.168,0,10.87,7.2,10.87,16.013
	v28.953H75.504V44.173c0-2.343-0.146-5.139-3.083-5.139c-3.519,0-3.682,2.796-3.682,5.139v67.885H54.641V28.01z"/>
<path fill="#FFFFFF" d="M127.501,112.058h-13.22c-0.886-1.763-0.886-3.805-0.886-5.725h-0.286c-2.941,4.86-5.153,6.763-11.023,6.763
	c-6.17,0-9.552-3.382-9.552-9.705V75.187c0-17.053,20.422-8.086,20.422-29.543c0-2.487,0.593-8.372-2.789-8.372
	c-4.114,0-3.382,6.756-3.382,9.698v11.023H92.534V41.09c0-8.659,6.757-14.097,17.488-14.097c10.724,0,17.479,5.438,17.479,14.097
	V112.058z M113.396,68.571c-3.959,2.353-6.764,4.113-6.764,8.518v21.175c0.309,1.744,1.479,2.933,3.391,2.784
	c1.902-0.3,3.373-1.463,3.373-3.383V68.571z"/>
<path fill="#FFFFFF" d="M129.721,28.01h14.112l3.373,29.252c1.63,13.802,1.63,25.711,1.911,38.492h0.599
	c0.723-9.681,0.582-19.546,1.762-29.234l4.396-38.51h13.97l-11.601,84.048H140.61L129.721,28.01z"/>
<path fill="#FFFFFF" d="M206.3,98.986c0,8.685-6.756,14.109-17.493,14.109c-10.71,0-17.476-5.425-17.476-14.109v-57.9
	c0-8.659,6.766-14.097,17.476-14.097c10.737,0,17.493,5.438,17.493,14.097V98.986z M192.189,41.385c0-3.822-1.313-4.114-3.382-4.114
	c-2.053,0-3.382,0.292-3.382,4.114v57.311c0,3.813,1.329,4.112,3.382,4.112c2.069,0,3.382-0.299,3.382-4.112V41.385z"/>
<path fill="#FFFFFF" d="M213.47,16.37h13.449v75.235H213.47V16.37z M213.47,97.26h13.449v14.938H213.47V97.26z"/>
</svg>
