<?xml version="1.0" encoding="UTF-8" standalone="no"?>
<!-- Created with Inkscape (http://www.inkscape.org/) -->

<svg
   xmlns:dc="http://purl.org/dc/elements/1.1/"
   xmlns:cc="http://creativecommons.org/ns#"
   xmlns:rdf="http://www.w3.org/1999/02/22-rdf-syntax-ns#"
   xmlns:svg="http://www.w3.org/2000/svg"
   xmlns="http://www.w3.org/2000/svg"
   xmlns:sodipodi="http://sodipodi.sourceforge.net/DTD/sodipodi-0.dtd"
   xmlns:inkscape="http://www.inkscape.org/namespaces/inkscape"
   width="345.98929"
   height="103.61619"
   id="svg147781"
   version="1.1"
   inkscape:version="0.48.2 r9819"
   sodipodi:docname="BravoCanada2012.svg">
  <defs
     id="defs147783">
    <clipPath
       clipPathUnits="userSpaceOnUse"
       id="clipPath17048">
      <path
         inkscape:connector-curvature="0"
         d="m 544.295,444.528 27.288,0 0,9.504 -27.288,0 0,-9.504 z"
         id="path17050" />
    </clipPath>
  </defs>
  <sodipodi:namedview
     id="base"
     pagecolor="#ffffff"
     bordercolor="#666666"
     borderopacity="1.0"
     inkscape:pageopacity="0.0"
     inkscape:pageshadow="2"
     inkscape:zoom="4"
     inkscape:cx="163.65823"
     inkscape:cy="65.670102"
     inkscape:document-units="px"
     inkscape:current-layer="g17046"
     showgrid="false"
     fit-margin-top="1.4"
     fit-margin-left="1.4"
     fit-margin-right="1.4"
     fit-margin-bottom="1.4"
     inkscape:window-width="1920"
     inkscape:window-height="1018"
     inkscape:window-x="-8"
     inkscape:window-y="-8"
     inkscape:window-maximized="1" />
  <metadata
     id="metadata147786">
    <rdf:RDF>
      <cc:Work
         rdf:about="">
        <dc:format>image/svg+xml</dc:format>
        <dc:type
           rdf:resource="http://purl.org/dc/dcmitype/StillImage" />
        <dc:title />
      </cc:Work>
    </rdf:RDF>
  </metadata>
  <g
     inkscape:label="Layer 1"
     inkscape:groupmode="layer"
     id="layer1"
     transform="translate(-211.34177,-451.98969)">
    <g
       transform="matrix(12.668533,0,0,-12.668533,-6682.6774,6205.3078)"
       id="g17044">
      <g
         id="g17046"
         clip-path="url(#clipPath17048)">
        <g
           id="g17052"
           transform="translate(568.1149,447.8329)">
          <path
             inkscape:connector-curvature="0"
             d="m 0,0 c -0.81,0 -1.496,0.64 -1.496,1.519 0,0.88 0.686,1.52 1.496,1.52 0.81,0 1.497,-0.64 1.497,-1.52 C 1.497,0.64 0.81,0 0,0 m -11.57,0.003 c -0.819,0 -1.512,0.634 -1.512,1.505 0,0.871 0.693,1.505 1.512,1.505 0.818,0 1.511,-0.634 1.511,-1.505 0,-0.871 -0.693,-1.505 -1.511,-1.505 m -9.279,0.014 c -0.819,0 -1.512,0.635 -1.512,1.505 0,0.871 0.693,1.505 1.512,1.505 0.818,0 1.511,-0.634 1.511,-1.505 0,-0.87 -0.693,-1.505 -1.511,-1.505 m 18.145,3.25 0.498,1.409 -1.904,0 -1.182,-3.946 -0.022,0 -1.174,3.943 -3.616,0 0,-0.405 c -0.423,0.226 -0.931,0.36 -1.525,0.36 -1.34,0 -2.238,-0.683 -2.718,-1.553 l 0.46,1.592 c -0.85,0.163 -1.282,0.059 -1.695,-0.126 -0.187,-0.083 -0.48,-0.338 -0.48,-0.338 l 0,0.064 0,0.401 -1.678,0 0,-2.425 c -0.281,1.241 -1.281,2.431 -3.05,2.431 -0.594,0 -1.102,-0.134 -1.505,-0.36 l 0,1.885 -1.759,0 0,-7.851 1.665,0 0,0.407 c 0.437,-0.25 0.97,-0.401 1.599,-0.401 1.769,0 2.769,1.19 3.05,2.432 l 0,-2.432 1.785,0 0,3.21 c 0.012,0.701 0.371,1.424 1.486,1.265 -0.196,-0.439 -0.293,-0.911 -0.293,-1.361 0,-1.457 1.016,-3.16 3.133,-3.16 0.629,0 1.162,0.151 1.599,0.401 l 0,-0.35 1.665,0 0,6.225 2.176,-6.23 1.761,0 1.231,3.507 m 0,0.01 0.038,0.11 C -3.182,1.82 -3.194,1.66 -3.194,1.502 c 0,-1.504 1.048,-3.261 3.232,-3.261 2.183,0 3.232,1.757 3.232,3.261 0,1.503 -1.049,3.26 -3.232,3.26 -1.335,0 -2.244,-0.656 -2.751,-1.51 l 0.025,0.07"
             style="fill:#ed192e;fill-opacity:1;fill-rule:nonzero;stroke:none"
             id="path17054" />
        </g>
      </g>
    </g>
  </g>
</svg>
