<?xml version="1.0" encoding="UTF-8"?>
<!DOCTYPE svg  PUBLIC '-//W3C//DTD SVG 1.1//EN'  'http://www.w3.org/Graphics/SVG/1.1/DTD/svg11.dtd'>
<svg enable-background="new 0 0 308.7 193.2" version="1.1" viewBox="0 0 308.7 193.2" width="399.728168504" height="250.17001022" xml:space="preserve" xmlns="http://www.w3.org/2000/svg">
<g fill="#fff">
	<path d="m239.1 82.9c-2.7-3.9-6-6.8-9.9-8.6s-7.9-2.7-11.9-2.7-8 0.9-11.9 2.8c-3.9 1.8-7.2 4.7-9.8 8.6s-4.1 8.8-4.4 14.6h52.4c-0.3-5.9-1.8-10.8-4.5-14.7"/>
	<path d="m187.1 139.7c-8.1-8.2-12.2-19.8-12.2-34.7 0-8.4 1.5-16.2 4.6-23.3s7.8-12.8 14.2-17.2 14.3-6.6 23.6-6.6c8.8 0 16.3 2 22.7 6.1s11.2 9.5 14.6 16.3c3.3 6.8 5 14.2 5 22.3 0 2.3-0.7 4.1-2.2 5.7-1.5 1.5-3.5 2.3-6 2.3h-60.2c0.9 8.3 4 14.7 9.2 19.4 5.2 4.6 12.5 6.9 21.8 6.9 5 0 9.3-0.5 13.1-1.4 3.6-0.9 12.2-3.8 15.9-5.6 42.8-49.6 57.5-111.6 57.5-111.6s-111.5-42-196.8 1.3c-24.6 12.5-44.4 30.8-60.1 50.5l25.8 62.2 28.5-68.9c0.6-1.3 1.6-2.4 3.1-3.3 1.4-0.9 3-1.3 4.6-1.3 2.4 0 4.3 0.8 6 2.4 1.6 1.6 2.4 3.5 2.4 5.8 0 1.1-0.3 2.3-0.9 3.7l-32.5 73.9c-0.9 1.9-2.2 3.5-4.1 4.7s-3.9 1.9-6.2 1.9h-1.9c-2.2 0-4.3-0.6-6.2-1.9-1.9-1.2-3.2-2.8-4.1-4.7l-25.9-59c-29.6 44.1-40.4 89.3-40.4 89.3s111.5 42 196.8-1.2c12.1-6.1 23.1-13.7 32.9-22.1-2.7 0.3-5.6 0.4-8.8 0.4-14.4 0-25.7-4.1-33.8-12.3m-32.3 3.4c0 2.3-0.8 4.2-2.4 5.7s-3.5 2.3-5.8 2.3-4.1-0.8-5.7-2.3c-1.5-1.5-2.3-3.4-2.3-5.7v-76.2c0-2.2 0.8-4.2 2.3-5.8s3.4-2.4 5.7-2.4c2.4 0 4.3 0.8 5.9 2.3 1.5 1.5 2.3 3.5 2.3 5.9v76.2zm-8-99c-4.6 0-8.2-3.6-8.2-8.2s3.6-8.2 8.2-8.2 8.2 3.6 8.2 8.2c0.1 4.6-3.6 8.2-8.2 8.2"/>
</g>
</svg>
