<?xml version="1.0" encoding="utf-8"?>
<!-- Generator: Adobe Illustrator 16.0.0, SVG Export Plug-In . SVG Version: 6.00 Build 0)  -->
<!DOCTYPE svg PUBLIC "-//W3C//DTD SVG 1.1//EN" "http://www.w3.org/Graphics/SVG/1.1/DTD/svg11.dtd">
<svg version="1.1" id="Layer_1" xmlns="http://www.w3.org/2000/svg" xmlns:xlink="http://www.w3.org/1999/xlink" x="0px" y="0px"
	 width="299.7px" height="221.7px" viewBox="0 0 299.7 221.7" enable-background="new 0 0 299.7 221.7" xml:space="preserve">
<g>
	<path fill="#555" d="M0.3,221.7V117h111.6v40.5h1.3c35,0,75.1-4.6,76.1-40.5l110.3,0c-0.7,55.7-45.9,81.5-83.9,93.4
		c-23.8,7.5-48.7,11.3-74,11.3H0.3z"/>
	<path fill="#fff" d="M0,0l0,104.7h111.7l0-40.5l1.3,0c35,0,75.1,4.6,76.1,40.5l110.3,0c-0.7-55.7-45.9-81.5-83.8-93.4
		C191.7,3.8,166.9,0,141.6,0H0z"/>
</g>
<g>
</g>
<g>
</g>
<g>
</g>
<g>
</g>
<g>
</g>
<g>
</g>
</svg>
