<?xml version="1.0" encoding="UTF-8" standalone="no"?>
<svg
   version="1.1"
   id="svg2"
   width="100"
   height="100"
   viewBox="0 0 120 110"
   sodipodi:docname="logoblanc-TVMN.ai"
   xmlns:inkscape="http://www.inkscape.org/namespaces/inkscape"
   xmlns:sodipodi="http://sodipodi.sourceforge.net/DTD/sodipodi-0.dtd"
   xmlns="http://www.w3.org/2000/svg"
   xmlns:svg="http://www.w3.org/2000/svg">
  <defs
     id="defs6">
    <clipPath
       clipPathUnits="userSpaceOnUse"
       id="clipPath18">
      <path
         d="M 0,300 H 600 V 0 H 0 Z"
         id="path16" />
    </clipPath>
  </defs>
  <sodipodi:namedview
     id="namedview4"
     pagecolor="#ffffff"
     bordercolor="#000000"
     borderopacity="0.25"
     inkscape:showpageshadow="2"
     inkscape:pageopacity="0.0"
     inkscape:pagecheckerboard="0"
     inkscape:deskcolor="#d1d1d1" />
  <g
     id="g8"
     transform="matrix(1,0,0,-1,0,0)">
      <g
         id="g14"
         >
        <g
           id="g64"
           transform="translate(50,0)">
          <path
             d="m 0,0 c 2.718,-2.353 10.438,-7.636 10.624,-30.457 0.084,-11.856 16.832,-19.028 3.943,-23.294 -2.661,-0.881 -2.274,-2.819 -1.018,-5.426 0,-2.754 -3.732,-1.895 -2.384,-3.365 3.021,-3.73 -1.871,-3.512 -1.48,-5.061 6.666,-25.865 -34.086,-2.08 -39.868,-45.16 h 22.916 c 5.78,43.08 46.541,19.295 39.868,45.16 -0.399,1.549 4.491,1.331 1.467,5.061 -1.342,1.47 2.392,0.611 2.392,3.365 -1.26,2.607 -1.647,4.545 1.013,5.426 12.887,4.266 -3.852,11.438 -3.946,23.294 C 33.345,-7.636 25.623,-2.353 22.905,0 H 0"
             style="fill:#eab30f;fill-opacity:1;fill-rule:nonzero;stroke:none"
             id="path66" />
        </g>
      </g>
    </g>
</svg>
