<?xml version="1.0" encoding="UTF-8" standalone="no"?>
<!-- Created with Inkscape (http://www.inkscape.org/) -->

<svg
   xmlns:dc="http://purl.org/dc/elements/1.1/"
   xmlns:cc="http://creativecommons.org/ns#"
   xmlns:rdf="http://www.w3.org/1999/02/22-rdf-syntax-ns#"
   xmlns:svg="http://www.w3.org/2000/svg"
   xmlns="http://www.w3.org/2000/svg"
   xmlns:sodipodi="http://sodipodi.sourceforge.net/DTD/sodipodi-0.dtd"
   xmlns:inkscape="http://www.inkscape.org/namespaces/inkscape"
   width="178.51125"
   height="178.51125"
   id="svg3784"
   version="1.1"
   inkscape:version="0.47 r22583"
   sodipodi:docname="New document 3">
  <defs
     id="defs3786">
    <inkscape:perspective
       sodipodi:type="inkscape:persp3d"
       inkscape:vp_x="0 : 526.18109 : 1"
       inkscape:vp_y="0 : 1000 : 0"
       inkscape:vp_z="744.09448 : 526.18109 : 1"
       inkscape:persp3d-origin="372.04724 : 350.78739 : 1"
       id="perspective3792" />
    <inkscape:perspective
       id="perspective3756"
       inkscape:persp3d-origin="0.5 : 0.33333333 : 1"
       inkscape:vp_z="1 : 0.5 : 1"
       inkscape:vp_y="0 : 1000 : 0"
       inkscape:vp_x="0 : 0.5 : 1"
       sodipodi:type="inkscape:persp3d" />
    <clipPath
       clipPathUnits="userSpaceOnUse"
       id="clipPath842">
      <path
         d="m 412.475,418.399 66.758,0 0,-35.825 -66.758,0 0,35.825 z"
         clip-rule="evenodd"
         id="path844" />
    </clipPath>
    <clipPath
       clipPathUnits="userSpaceOnUse"
       id="clipPath848">
      <path
         d="m 0,802.747 582.35,0 0,-802.75 -582.35,0 0,802.75 z"
         id="path850" />
    </clipPath>
    <clipPath
       clipPathUnits="userSpaceOnUse"
       id="clipPath854">
      <path
         d="m 0.12,803.76 582,0 0,-803.76 -582,0 0,803.76 z"
         id="path856" />
    </clipPath>
  </defs>
  <sodipodi:namedview
     id="base"
     pagecolor="#ffffff"
     bordercolor="#666666"
     borderopacity="1.0"
     inkscape:pageopacity="0.0"
     inkscape:pageshadow="2"
     inkscape:zoom="1"
     inkscape:cx="17.7557"
     inkscape:cy="160.75567"
     inkscape:document-units="px"
     inkscape:current-layer="layer1"
     showgrid="false"
     inkscape:window-width="1280"
     inkscape:window-height="962"
     inkscape:window-x="-8"
     inkscape:window-y="-8"
     inkscape:window-maximized="1" />
  <metadata
     id="metadata3789">
    <rdf:RDF>
      <cc:Work
         rdf:about="">
        <dc:format>image/svg+xml</dc:format>
        <dc:type
           rdf:resource="http://purl.org/dc/dcmitype/StillImage" />
        <dc:title></dc:title>
      </cc:Work>
    </rdf:RDF>
  </metadata>
  <g
     inkscape:label="Layer 1"
     inkscape:groupmode="layer"
     id="layer1"
     transform="translate(-357.2443,-514.6066)">
    <g
       transform="matrix(6.2836161,0,0,-6.2836161,-2323.0887,3118.3109)"
       id="g838">
      <g
         id="g840"
         clip-path="url(#clipPath842)">
        <g
           id="g846"
           clip-path="url(#clipPath848)">
          <g
             id="g852"
             clip-path="url(#clipPath854)">
            <path
               d="m 426.559,400.16 c 0,7.845 6.359,14.204 14.205,14.204 7.845,0 14.204,-6.359 14.204,-14.204 0,-7.845 -6.359,-14.205 -14.204,-14.205 -7.846,0 -14.205,6.36 -14.205,14.205"
               style="fill:#222;fill-opacity:1;fill-rule:nonzero;stroke:none"
               id="path858" />
            <path
               d="m 427.883,401.029 c 0,6.714 5.444,12.157 12.158,12.157 6.715,0 12.158,-5.443 12.158,-12.157 0,-6.715 -5.443,-12.158 -12.158,-12.158 -6.714,0 -12.158,5.443 -12.158,12.158"
               style="fill:#000;fill-opacity:1;fill-rule:nonzero;stroke:none"
               id="path860" />
            <path
               d="m 434.764,394.881 -0.665,0 c 0,0 0,2.257 0,2.361 0,0.127 -0.082,0.242 -0.214,0.242 -0.115,0 -0.214,-0.094 -0.214,-0.247 l 0,-2.356 -0.653,0 0,3.108 0.587,0 0,-0.379 c 0,0 0.176,0.423 0.538,0.423 0.368,0 0.621,-0.236 0.621,-0.725 l 0,-2.427"
               style="fill:#ffffff;fill-opacity:1;fill-rule:nonzero;stroke:none"
               id="path862" />
            <path
               d="m 436.459,394.832 c -0.527,0 -0.878,0.346 -0.878,0.813 0,0 0,1.443 0,1.712 0,0.412 0.345,0.676 0.845,0.676 0.445,0 0.851,-0.247 0.851,-0.676 l 0,-1.098 -1.049,0 c 0,0 0,-0.378 0,-0.56 0,-0.197 0.055,-0.291 0.214,-0.291 0.182,0 0.237,0.094 0.237,0.291 l 0,0.231 0.614,0 c 0,0 0,-0.187 0,-0.335 0,-0.489 -0.34,-0.763 -0.834,-0.763 z m 0.198,2.482 c 0,0.164 -0.132,0.181 -0.231,0.181 -0.088,0 -0.208,-0.044 -0.208,-0.181 l 0,-0.566 0.439,0 c 0,0 0,0.461 0,0.566"
               style="fill:#ffffff;fill-opacity:1;fill-rule:nonzero;stroke:none"
               id="path864" />
            <path
               d="m 438.862,394.881 c -0.621,0 -0.654,0.313 -0.654,0.675 l 0,1.972 -0.291,0 c 0,0 0,0.466 0,0.576 0.17,0 0.439,0.137 0.439,0.665 l 0,0.313 0.511,0 0,-1.049 0.346,0 0,-0.505 -0.346,0 c 0,0 0,-1.57 0,-1.763 0,-0.17 0.044,-0.324 0.247,-0.324 l 0.099,0 0,-0.56 -0.351,0"
               style="fill:#ffffff;fill-opacity:1;fill-rule:nonzero;stroke:none"
               id="path866" />
            <path
               d="m 442.049,394.881 -0.587,0 -0.258,1.592 -0.231,-1.592 -0.554,0 -0.588,3.108 0.588,0 0.258,-1.691 0.252,1.691 0.571,0 0.247,-1.68 0.242,1.68 0.631,0 -0.571,-3.108"
               style="fill:#ffffff;fill-opacity:1;fill-rule:nonzero;stroke:none"
               id="path868" />
            <path
               d="m 444.022,394.832 c -0.456,0 -0.862,0.291 -0.862,0.823 l 0,1.554 c 0,0.528 0.385,0.824 0.879,0.824 0.45,0 0.851,-0.33 0.851,-0.824 l 0,-1.554 c 0,-0.521 -0.379,-0.823 -0.868,-0.823 z m 0.225,2.372 c 0,0.175 -0.109,0.274 -0.236,0.274 -0.12,0 -0.219,-0.121 -0.219,-0.274 l 0,-1.543 c 0,-0.154 0.104,-0.275 0.225,-0.275 0.126,0 0.23,0.121 0.23,0.275 l 0,1.543"
               style="fill:#ffffff;fill-opacity:1;fill-rule:nonzero;stroke:none"
               id="path870" />
            <path
               d="m 446.255,396.973 0,-2.092 -0.637,0 0,3.108 0.603,0 c 0,0 0,-0.379 0,-0.45 0.05,0 0.193,0.581 0.682,0.466 l 0,-0.631 c 0,0 -0.648,0.176 -0.648,-0.401"
               style="fill:#ffffff;fill-opacity:1;fill-rule:nonzero;stroke:none"
               id="path872" />
            <path
               d="m 448.748,394.881 -0.505,1.554 0,-1.554 -0.675,0 0,4.201 0.675,0 0,-2.312 0.467,1.263 0.708,0 -0.56,-1.395 0.609,-1.757 -0.719,0"
               style="fill:#ffffff;fill-opacity:1;fill-rule:nonzero;stroke:none"
               id="path874" />
            <path
               d="m 430.471,399.59 c 0.164,-0.202 0.384,-0.211 0.596,-0.259 0.317,-0.019 0.586,0.144 0.826,0.297 0.038,0.019 0.058,0.01 0.086,0.029 0.404,0.26 0.875,0.615 1.336,0.893 0.576,0.442 1.287,0.682 1.892,1.162 0.183,0.193 0.509,0.337 0.471,0.654 -0.125,0.182 -0.192,0.403 -0.355,0.557 -0.154,-0.048 -0.317,-0.086 -0.481,-0.106 0.087,0.154 0.288,0.26 0.432,0.346 -0.163,-0.048 -0.316,-0.154 -0.49,-0.192 -0.778,-0.403 -1.536,-0.846 -2.276,-1.278 -0.086,-0.028 -0.154,-0.115 -0.24,-0.086 -0.01,-0.039 -0.068,-0.01 -0.029,-0.058 -0.019,0 -0.106,-0.038 -0.096,0.029 l -0.01,-0.01 -0.009,0.039 -0.029,0.019 c 0.019,0.029 0.01,0.096 -0.01,0.106 -0.038,0.038 0.029,0.077 0.039,0.096 l 0,-0.01 0.028,0.164 c 0.039,0.009 0.029,0.057 0.029,0.076 l 0.01,0 c 0,0.029 -0.029,0.058 0,0.077 l 0.019,-0.019 0.067,0.154 c -0.009,0.057 0.039,0.067 0.02,0.115 0,0.057 0.057,0.038 0.057,0.096 l 0,-0.01 c 0.019,0.106 0.068,0.125 0.048,0.193 0.029,-0.01 0.02,0.048 0.029,0.067 -0.019,0.057 0.039,0.048 0.057,0.096 -0.018,0.01 0,0.019 0,0.029 0.01,0 0,-0.029 0.01,-0.01 0.039,0.029 0,0.087 0.029,0.115 0.029,0.039 0.039,0.125 0.067,0.135 0.01,0.009 0.019,0.009 0.019,0.009 l -0.028,0.029 c 0.009,0.01 0.028,0.029 0.038,0.01 0.019,0.077 0.01,0.135 0.058,0.192 0.028,0.019 0.028,0.086 0.057,0.115 -0.009,0.02 0,0.068 0.029,0.058 0.029,0.01 0.029,0.038 0.029,0.077 -0.019,0 0.077,0.048 0.029,0.077 0.058,0.028 0.029,0.105 0.077,0.115 -0.058,0.038 0.058,0.029 0.029,0.086 0.019,0.01 0.029,0.048 0.029,0.077 0.047,0.048 0.067,0.125 0.086,0.144 0.038,0.049 0.057,0.087 0.057,0.125 l 0.01,0 c -0.019,0.048 0.048,0.068 0.029,0.116 0.058,0.019 0.019,0.086 0.058,0.105 l 0.019,0.01 c 0.029,0.048 0.019,0.105 0.048,0.125 -0.067,0.038 0.029,0.076 0.038,0.096 0.019,0.086 0.048,0.163 0.096,0.23 l 0,-0.011 c 0.006,0.015 0.032,0.04 0,0.04 l 0.058,0.067 -0.01,0.02 c 0.039,0.038 0.019,0.134 0.048,0.124 l 0.01,0 c 0,0.029 0.039,0.02 0.009,0.087 0.068,0.115 0.078,0.183 0.116,0.317 l -0.029,0.038 c 0.087,-0.009 0.038,0.097 0.087,0.135 -0.03,0.038 0.028,0.125 0.038,0.182 -0.029,0.067 0.038,0.087 0.048,0.135 -0.019,0.048 -0.019,0.058 0.019,0.115 -0.038,0.087 0.058,0.144 0.048,0.231 -0.019,0.057 0.068,0.076 0.019,0.134 0.077,0.058 0.01,0.192 0.087,0.26 -0.01,0.105 0.038,0.192 0.029,0.288 l 0.019,0.01 c 0.009,0.278 0.067,0.508 0.077,0.797 -0.039,0.355 -0.183,0.711 -0.5,0.922 -0.154,0.077 -0.298,0.163 -0.48,0.182 -0.039,-0.019 -0.096,-0.028 -0.077,-0.086 l -0.23,-0.317 c -0.385,-0.499 -0.567,-1.104 -0.808,-1.672 -0.259,-0.787 -0.547,-1.594 -0.759,-2.401 -0.278,-1.038 -0.633,-2.037 -0.893,-3.084 -0.077,-0.25 -0.048,-0.538 -0.163,-0.778 -0.106,-0.077 -0.087,-0.192 -0.115,-0.317 0.028,-0.278 0.192,-0.557 0.422,-0.72 z m 2.777,4.976 c -0.01,-0.01 0,-0.048 -0.02,-0.039 0,0.019 0.01,0.039 0.02,0.039"
               style="fill:#ffffff;fill-opacity:1;fill-rule:nonzero;stroke:none"
               id="path876" />
            <path
               d="m 436.485,400.887 c 0.115,0.057 0.24,-0.049 0.346,0.038 0.038,0.115 0.086,0.25 0.163,0.327 0,0.038 0.029,0.067 0.019,0.095 l 0.01,0.02 c 0.01,0 0.01,-0.01 0.01,-0.01 0.019,0.058 0.047,0.087 0.096,0.115 0.019,0.096 0.124,0.173 0.153,0.25 -0.009,0.02 0.048,0.058 0.039,0.087 0.058,0.038 0.067,0.153 0.134,0.192 -0.019,0.048 0.019,0.067 0.048,0.105 0.01,0.029 0.048,0.048 0.019,0.077 0.087,0.058 0.068,0.192 0.164,0.259 l 0.01,-0.019 0,0.068 c 0.048,0.038 0,0.105 0.076,0.105 0,0.068 0.058,0.068 0.029,0.135 0.086,0.029 0.029,0.134 0.077,0.173 0.029,0.125 0.135,0.211 0.115,0.346 0.039,0.038 0.087,0.134 0.096,0.211 0,0.038 0.058,0.067 0.029,0.106 0.038,0.038 0.038,0.115 0.058,0.144 0.009,0.144 0.096,0.298 0.086,0.432 0.01,0.058 0.039,0.135 0.019,0.173 0.058,0.24 0.077,0.499 0.077,0.759 -0.057,0.192 0,0.403 -0.154,0.557 -0.067,0.202 -0.278,0.326 -0.489,0.356 -0.077,0.019 -0.154,-0.049 -0.221,-0.01 l 0,-0.02 c -0.058,0.02 -0.087,-0.067 -0.154,-0.028 -0.106,-0.058 -0.019,-0.183 -0.048,-0.269 -0.154,-0.759 -0.404,-1.508 -0.663,-2.229 -0.125,-0.374 -0.269,-0.778 -0.384,-1.143 -0.106,-0.413 -0.269,-0.98 0.048,-1.345 0.058,-0.038 0.125,-0.086 0.192,-0.057"
               style="fill:#ffffff;fill-opacity:1;fill-rule:nonzero;stroke:none"
               id="path878" />
            <path
               d="m 438.099,407.179 c 0.221,-0.068 0.365,0.134 0.48,0.279 0.058,0.143 0.135,0.345 0.039,0.499 -0.087,0.23 -0.346,0.336 -0.567,0.374 -0.038,-0.057 -0.096,0.029 -0.144,-0.028 -0.01,-0.097 -0.087,-0.173 -0.125,-0.269 -0.038,-0.135 -0.086,-0.289 -0.077,-0.442 0,-0.212 0.221,-0.336 0.394,-0.413"
               style="fill:#ffffff;fill-opacity:1;fill-rule:nonzero;stroke:none"
               id="path880" />
            <path
               d="m 439.125,404.976 c 0.086,-0.086 0.492,-0.18 0.424,-0.334 -0.355,-0.922 -0.634,-1.882 -0.912,-2.843 -0.068,-0.25 -0.144,-0.519 -0.173,-0.787 -0.01,-0.125 -0.058,-0.289 -0.01,-0.414 -0.057,-0.172 0.144,-0.24 0.26,-0.326 0.086,-0.01 0.201,-0.048 0.288,-0.01 0.154,0.077 0.269,0.24 0.384,0.346 l 0.01,-0.01 0.077,0.183 c 0.048,0 0.048,0.038 0.067,0.067 -0.01,0.115 0.048,0.192 0.067,0.269 l -0.019,-0.01 c 0.01,0.01 0.01,0.02 0.019,0.029 0.067,0.019 0,0.068 0.048,0.116 0,-0.01 0.01,-0.01 0.01,-0.02 0,0.039 0.019,0.087 0.009,0.106 l 0.058,0.077 c 0.115,0.211 0.163,0.365 0.25,0.576 0.038,0.019 -0.01,0.077 0.038,0.087 0.039,0.057 0.039,0.144 0.077,0.201 0.029,0.039 0.029,0.125 0.086,0.154 0.01,0.106 0.078,0.192 0.116,0.288 0.067,0.067 0.029,0.154 0.106,0.202 0.028,0.096 0.105,0.182 0.115,0.307 0.029,-0.009 0.038,0.02 0.057,0.029 -0.038,0.058 0.058,0.096 0.049,0.106 l 0,0.038 c 0.057,0.019 0.077,0.116 0.115,0.164 -0.01,0.028 0.009,0.057 0.029,0.086 0.028,0.01 0.038,0.019 0.058,0.038 l -0.01,0.029 0.01,0 0,0.029 0.019,-0.01 c -0.01,0.039 0.019,0.068 0.038,0.087 0.077,0 -0.01,0.086 0.048,0.096 0.077,0.096 -0.106,-0.097 -0.039,-0.001 0.036,0 -0.011,0.084 0.039,0.078 0.018,0.029 -0.019,0.086 0.019,0.114 0.029,-0.029 0.038,0.01 0.057,0.02 -0.009,0.028 0.039,0.057 0,0.086 0.077,0.019 0.01,0.115 0.077,0.144 l 0.01,-0.019 0.048,0.028 0,-0.009 c 0.019,0.058 0.077,0.048 0.115,0.115 0.039,0 0.087,0.039 0.077,0.058 0.048,0 0.087,0.038 0.135,0.029 0.077,0.038 0.115,0.077 0.172,0.125 l 0.02,-0.01 0,0.01 0.038,0 c 0.02,0.028 0.039,0.028 0.058,0.057 0.029,0.048 0.048,0.01 0.048,0.087 l 0.019,-0.01 c 0.029,0.058 0.106,0.019 0.125,0.077 0.048,-0.019 0.086,0.058 0.134,0.019 0,0.039 0.02,0.01 0.049,0.02 0.106,0.028 0.211,0.144 0.374,0.144 0.058,0.048 0.135,0 0.164,0.057 0.326,0.096 0.966,0.462 1.274,0.626 -0.01,0.028 -0.048,0.019 -0.058,0.019 -0.24,0.172 -0.62,0.009 -0.87,0.038 -0.077,0.01 -0.26,-0.003 -0.43,-0.02 -0.26,-0.029 -0.435,-0.028 -0.665,-0.047 -0.029,0.01 -0.048,0.067 -0.067,0.038 l -0.039,0.048 -0.019,-0.028 c -0.019,0.028 -0.077,0.048 -0.058,0.096 0.029,-0.02 0.01,-0.02 0.039,-0.02 0.019,0.039 0,0.048 0,0.087 l 0.009,-0.01 c 0,0.048 0.039,0.067 -0.009,0.125 0.038,0.019 0.067,0.019 0.086,0.039 l -0.029,0.028 c 0.02,0.048 0.116,0.087 0.087,0.154 0.058,0 0.029,0.096 0.077,0.087 0,0.019 -0.01,0.038 -0.019,0.047 0,0.02 0.028,0.077 0.047,0.049 0.077,0.076 0.096,0.192 0.173,0.269 0.01,0.115 0.145,0.144 0.154,0.249 0.067,0.01 0.077,0.116 0.115,0.164 0.039,0.028 0.058,0.105 0.116,0.105 0.019,0.077 0.086,0.087 0.125,0.144 0,0.049 0.066,0.077 0.105,0.087 0.039,0.115 0.144,0.135 0.192,0.24 0.087,0 0.097,0.096 0.154,0.115 -0.01,0 0,0.019 0,0.019 0.067,-0.019 0.106,0.077 0.163,0.097 l -0.009,0.019 c 0.038,0.009 0.077,0.048 0.105,0.009 0,0.087 0.164,0.02 0.135,0.106 0.029,0.01 0.077,0.058 0.096,0.01 0.029,0.067 0.077,0.019 0.115,0.028 0.019,-0.019 0.039,0.01 0.048,0 0,0.02 0.087,0.029 0.087,-0.028 0,0.019 0.009,0.028 0.019,0.028 l 0.182,-0.278 c 0.125,-0.183 0.327,-0.327 0.461,-0.519 0.087,-0.038 0.183,-0.048 0.27,-0.067 0.201,0.115 0.067,0.336 0.067,0.49 0.009,0.038 -0.038,0.067 -0.019,0.105 -0.058,0.087 0.086,0.068 0.076,0.154 0.01,0.087 -0.076,0.115 -0.124,0.183 -0.068,0.278 -0.289,0.509 -0.567,0.586 -0.096,0.096 -0.183,0.23 -0.288,0.326 -0.183,0.106 -0.346,0.26 -0.567,0.279 -0.327,-0.067 -0.654,-0.221 -0.942,-0.394 -1.22,-0.711 -1.873,-2.075 -2.392,-3.285 l -0.01,0 0,0.019 -0.019,-0.019 c -0.019,-0.02 -0.193,-0.012 -0.213,-0.012 -0.24,-0.019 -0.567,0.029 -0.826,0 -0.116,-0.019 -0.231,0.048 -0.346,0.019 l 0,-0.077 c 0.028,-0.067 0.047,-0.154 0.076,-0.24 0.164,-0.125 0.212,-0.336 0.385,-0.452"
               style="fill:#ffffff;fill-opacity:1;fill-rule:nonzero;stroke:none"
               id="path882" />
            <path
               d="m 445.12,404.556 c -0.209,0.155 -0.428,0.337 -0.683,0.41 -0.318,-0.028 -0.601,0.081 -0.91,-0.028 -0.465,-0.2 -0.874,-0.509 -1.247,-0.856 l -0.246,-0.273 c -0.482,-0.691 -0.71,-1.565 -0.555,-2.43 0.064,-0.31 0.254,-0.601 0.446,-0.846 0.119,-0.147 0.246,-0.292 0.401,-0.392 0.218,-0.201 0.509,-0.329 0.801,-0.447 0.199,-0.036 0.346,0.019 0.537,0 0.19,0.046 0.409,0.082 0.573,0.21 0.246,0.173 0.391,0.4 0.573,0.629 0.01,0.109 0.11,0.172 0.183,0.227 0.045,0.118 0.127,0.227 0.209,0.319 0.082,0.1 0.1,0.236 0.146,0.355 0.045,0.063 -0.046,0.072 -0.082,0.081 -0.027,0.046 -0.064,0.092 -0.118,0.064 -0.374,-0.191 -0.665,-0.519 -1.048,-0.692 -0.045,0.009 -0.118,-0.073 -0.163,-0.036 l -0.064,-0.037 c -0.173,-0.027 -0.31,-0.045 -0.501,-0.036 -0.037,0.018 -0.054,0.009 -0.091,0 -0.036,-0.018 -0.063,0.064 -0.1,0.009 -0.009,0.036 -0.036,-0.009 -0.063,0.018 l -0.01,-0.009 c -0.063,0.018 -0.146,0.027 -0.182,0.091 0,0.009 0.009,0.018 0.018,0.009 l -0.009,0.019 c -0.054,0.027 -0.054,0.109 -0.082,0.173 0,0.009 -0.008,0.027 0.009,0.027 -0.017,0.018 -0.027,0.027 -0.045,0.027 0.064,0.027 -0.009,0.082 -0.018,0.118 -0.027,-0.009 -0.046,0.046 -0.046,0.064 l 0.019,0 c -0.046,0.064 0.027,0.118 -0.028,0.173 0.037,0.037 0.037,0.127 0.018,0.164 l 0.037,0.009 -0.018,0.046 0.009,0 c -0.009,0.009 0,0.036 0.018,0.045 0,0.028 -0.027,0.009 -0.036,0.028 l 0,0.008 c 0.027,0.01 0.045,0.028 0.054,0.019 0.019,0.018 -0.009,0.091 0.045,0.073 l 0,0.027 -0.018,-0.018 -0.008,0.018 c 0.045,0.072 0.081,0.082 0.172,0.1 0,0.045 0.037,0.027 0.055,0.055 0.064,-0.037 0.109,0.027 0.164,0.027 l 0,-0.009 c 0.073,0.036 0.136,0.064 0.218,0.082 l 0.055,0.036 c 0.072,0.018 0.118,0.037 0.182,0.073 0.1,0.055 0.21,0.064 0.3,0.155 0.091,0 0.182,0.082 0.274,0.127 0.273,0.082 0.5,0.201 0.737,0.383 0.027,0.045 0.118,0.073 0.146,0.145 0.081,-0.009 0.072,0.101 0.136,0.101 0.028,0.027 0.054,0.081 0.091,0.081 0.009,0.073 0.091,0.119 0.146,0.155 0.127,0.146 0.264,0.319 0.2,0.528 -0.146,0.219 -0.31,0.546 -0.601,0.601 z m -2.348,-2.94 -0.019,-0.009 0.009,0.027 c 0,-0.01 0.01,-0.01 0.01,-0.018 z m 0.036,0.345 -0.018,-0.027 0,0.027 0.027,0 -0.009,0 z m 1.046,2.076 c 0.01,0.009 0,0 0,-0.009 l -0.036,0 c 0.009,0.009 0.018,0.018 0.036,0.009 z m 0.747,-0.446 c -0.045,0.009 -0.027,-0.064 -0.063,-0.082 -0.064,-0.073 -0.137,-0.109 -0.201,-0.182 -0.391,-0.301 -0.837,-0.601 -1.292,-0.71 l -0.026,0.043 c -0.001,-0.001 -0.001,-0.003 -0.002,-0.004 l 0,-0.003 c -0.004,-0.004 -0.002,-0.002 0,0.003 l 0,0.007 0.002,-0.003 c 10e-4,0.004 10e-4,0.008 -0.002,0.012 l -0.009,0.009 -0.018,-0.018 c 0,0.027 -0.037,0 -0.028,0.027 l -0.027,-0.009 -0.009,0.027 0.009,-0.009 c 0.027,0 0.027,0.064 0.045,0.073 l -0.027,0 0,0.027 0.009,-0.009 c 0.037,0.009 0,0.045 0,0.036 0.064,0.073 -0.027,0.173 0.074,0.2 l 0,0.028 0.009,0 0,0.027 c 0.017,0.019 -0.028,0.019 0,0.037 l 0,-0.018 c 0.044,0.035 0.028,0.053 0.069,0.104 -10e-4,0.002 -10e-4,0.005 0.004,0.005 -0.003,-0.002 -0.003,-0.003 -0.004,-0.005 0.001,-0.002 0.004,-0.005 0.004,-0.005 0.018,0.037 0.036,0.101 0.081,0.11 0.009,0.009 -0.009,0.018 -0.009,0.027 l -0.018,0 0.064,0.1 c 0.009,-0.009 -0.018,-0.018 -0.009,-0.036 0,0.009 0.045,0.009 0.036,0.045 l 0.018,-0.009 c 0.01,0.027 0.037,0.064 0.045,0.091 l 0,-0.009 c 0.074,0.018 0.019,0.064 0.092,0.1 0,0 0.036,0.1 0.063,0.064 l 0.019,0.018 c -0.01,0.009 -0.019,0.009 -0.027,0.018 l 0.045,0.019 c 0,0.009 -0.009,0.018 -0.009,0.027 l 0.018,0.018 0.009,-0.027 c 0.018,0.009 0.027,0.045 0.045,0.054 l 0.01,-0.009 c 0.055,0.019 0.045,0.064 0.055,0.101 l 0.027,-0.028 c 0.018,0.009 0.027,0.036 0.009,0.046 l -0.018,0.009 c 0.036,0.054 0.145,0.045 0.163,0.045 l 0.019,0.018 0,-0.009 c 0.045,-0.009 0.008,0.1 0.1,0.091 0.045,0 0.054,0.019 0.1,0.009 0.014,0.016 0.012,0.024 0.01,0.042 -0.003,0.004 -0.003,0.009 -10e-4,0.013 0,-0.005 0,-0.009 10e-4,-0.013 0.007,-0.013 0.031,-0.023 0.044,-0.023 0.037,0 -0.009,0.036 0.028,0.045 0.036,0.009 0.054,-0.054 0.082,-0.009 0.009,-0.045 0.064,0.037 0.064,-0.045 l 0.018,0 0,0.054 c 0.036,-0.027 0.036,-0.054 0.072,-0.054 l -0.009,0.018 0.036,0 -0.008,-0.018 c 0.008,-0.037 0.063,-0.037 0.072,-0.019 0.01,-0.045 0.055,-0.036 0.064,-0.082 0.01,0.019 0.027,-0.009 0.046,-0.009 0,-0.027 -0.009,-0.073 0.027,-0.091 0.036,0 0.036,-0.036 0.036,-0.072 l -0.008,0.009 c -0.01,-0.009 -0.019,-0.019 0,-0.028 l 0.045,-0.009 -0.037,-0.027 c 0.082,-0.055 -0.027,-0.1 -0.027,-0.173"
               style="fill:#ffffff;fill-opacity:1;fill-rule:nonzero;stroke:none"
               id="path884" />
          </g>
        </g>
      </g>
    </g>
  </g>
</svg>
