<?xml version="1.0" encoding="utf-8"?>
<!-- Generator: Adobe Illustrator 12.0.1, SVG Export Plug-In . SVG Version: 6.00 Build 51448)  -->
<!DOCTYPE svg PUBLIC "-//W3C//DTD SVG 1.1//EN" "http://www.w3.org/Graphics/SVG/1.1/DTD/svg11.dtd" [
	<!ENTITY ns_svg "http://www.w3.org/2000/svg">
	<!ENTITY ns_xlink "http://www.w3.org/1999/xlink">
]>
<svg  version="1.1" id="Layer_1" xmlns="&ns_svg;" xmlns:xlink="&ns_xlink;" width="300.488" height="270.95"
	 viewBox="0 0 300.488 270.95" overflow="visible" enable-background="new 0 0 300.488 270.95" xml:space="preserve">
<rect fill="#000000" width="300.488" height="270.95"/>
<path fill="#FFFFFF" d="M57.164,42.317h21.061v6.33h0.207c5.213-4.018,11.76-7.448,22.284-7.448c7.675,0,14.721,1.587,19.639,7.448
	c5.821-4.488,12.27-7.448,23.305-7.448c11.564,0,21.472,3.92,21.472,14.739V85.73h-21.678V60.428c0-4.176-3.478-6.429-9.31-6.429
	c-7.968,0-12.162,3.058-12.162,7.467V85.73h-21.678V60.428c0-4.176-3.47-6.429-9.291-6.429c-7.978,0-12.171,3.058-12.171,7.467
	V85.73H57.164V42.317z"/>
<path fill="#FFFFFF" d="M176.586,42.317h21.668V64.74c0,7.378,3.99,9.937,11.241,9.937c7.675,0,13.505-3.283,13.505-10.407V42.318
	h21.669v43.413h-21.061v-5.577H223.4c-4.39,4.224-12.356,7.341-23.303,7.341c-13.299,0-23.512-4.479-23.512-17.542V42.317z"/>
<path fill="#FFFFFF" d="M76.098,188.356l0.226,0.234c4.852-5.958,10.025-12.544,18.374-12.544c8.261,0,11.133,5.821,9.693,13.31
	l0.226,0.214c4.066-6.722,9.898-13.523,18.493-13.523c5.723,0,9.907,3.176,9.907,9.116c0,1.548-0.666,4.741-1.539,8.045
	l-3.968,15.181c-0.765,2.97-1.539,5.724-1.539,6.291c0,1.088,0.324,1.862,1.647,1.862c3.959,0,8.692-8.586,10.348-11.662
	l2.421,0.979c-3.733,7.489-8.369,14.857-17.718,14.857c-7.381,0-9.918-3.41-9.918-7.594c0-2.089,0.774-4.734,1.657-8.242
	l5.292-21.138c0.774-2.969-0.225-3.97-0.999-3.97c-6.488,0-15.622,14.426-18.161,26.421l-2.968,14.092H83.252l8.261-35.221
	c0.774-3.087,1.323-5.292-1.529-5.292c-1.891,0-3.752,1.765-5.507,3.527c-4.184,4.193-8.477,10.544-10.133,17.17l-5.077,19.814
	h-14.19l9.359-40.513h-7.918l0.766-3.078H68.18c3.636,0,7.154-0.441,10.78-0.441L76.098,188.356z"/>
<path fill="#FFFFFF" d="M180.429,176.693h12.201l-9.466,35.447c-0.883,3.42,0.773,3.851,1.44,3.851c3.742,0,8.134-8.702,9.564-11.78
	l2.312,0.783c-3.186,6.704-7.702,15.72-16.17,15.72c-5.293,0-7.82-4.724-8.703-9.358c-3.625,5.733-8.144,10.583-15.405,10.583
	c-9.477,0-14.975-8.035-14.975-16.944c0-11.897,8.037-23.128,18.827-27.42c2.076-0.882,4.292-1.528,6.497-1.528
	c5.606,0,9.35,3.176,11.555,8.233L180.429,176.693z M158.515,196.736c-0.774,3.066-3.635,15.18-3.635,17.491
	c0,2.766,1.655,4.616,4.399,4.616c10.134,0,16.514-22.785,16.514-30.822c0-4.066-2.098-8.916-6.713-8.916
	C167.208,179.105,162.689,180.224,158.515,196.736"/>
<path fill="#FFFFFF" d="M200.43,192.882c2.861-6.839,7.595-16.835,16.288-16.835c7.38,0,8.928,7.469,10.348,13.191
	c2.853-4.177,7.714-13.191,13.544-13.191c3.519,0,6.39,2.175,6.39,5.93c0,3.969-2.321,6.045-6.056,6.045
	c-1.215,0-2.528-0.656-3.636-1.313c-1.107-0.667-1.97-1.205-2.42-1.205c-2.646,0.323-6.938,6.831-6.605,8.584l3.744,16.513
	c0.666,2.745,0.872,5.272,3.087,5.272c2.411,0,7.154-8.584,7.918-10.876l2.421,0.743c-2.638,7.174-7.812,16.21-16.503,16.21
	c-9.251,0-10.573-9.368-12.23-16.424c-3.509,6.174-7.478,16.424-16.063,16.424c-3.852,0-5.732-3.431-5.732-6.948
	c0-2.969,2.646-5.84,5.732-5.84c2.195,0,4.077,1.214,5.058,1.763c0.773,0.431,1.763,1.216,2.097,1.216
	c1.431,0,6.713-6.4,7.929-10.241l-4.078-17.387c-0.116-0.45-0.656-1.106-1.205-1.106c-3.098,0-6.39,8.144-7.712,10.339
	L200.43,192.882z"/>
<path fill="#FFFFFF" d="M93.052,143.002c0.97,10.056,23.206,11.563,35.26,11.563c16.68,0,34.799-2.253,34.799-8.535
	c0-5.164-5.557-6.928-41.552-9.447c-39.631-2.753-60.387-5.146-60.387-20.374c0-18.993,42.522-21.501,64.014-21.501
	c19.805,0,67.403,1.489,69.334,22.883h-34.79c-2.656-9.928-24.882-11.074-36.232-11.074c-18.844,0-28.987,4.166-28.987,7.673
	c0,5.41,3.136,6.292,35.27,8.682c42.033,3.155,69.58,5.292,69.58,20.768c0,16.963-31.174,22.754-70.795,22.754
	c-27.293,0-70.55-3.01-71.755-23.392H93.052z"/>
<rect x="211.729" y="97.511" fill="#FFFFFF" width="31.968" height="66.376"/>
</svg>
