<?xml version="1.0" encoding="UTF-8"?>
<svg id="_Слой_1" data-name="Слой 1" xmlns="http://www.w3.org/2000/svg" width="500" height="500" viewBox="0 0 500 500">
  <defs>
    <style>
      .cls-1 {
        fill: #069;
      }

      .cls-1, .cls-2 {
        stroke-width: 0px;
      }

      .cls-2 {
        fill: #fff;
      }
    </style>
  </defs>
  <rect class="cls-1" width="500" height="500"/>
  <path class="cls-2" d="M107.8,284.3c0,17.41,0,37.7,23.14,37.7,19.01,0,22.47-16.15,22.47-31.35v-10.16c0-9.17.32-19.94,12.69-19.94,8.85,0,11.7,7.6,11.7,15.19,0,36.74-6.03,68.44-50.68,68.44-14.87,0-30.1-5.38-37.38-19.01-6.99-12.98-6.35-28.21-6.35-42.76v-70.01c-1.25-10.48-.64-11.09-11.09-11.09-8.85,0-18.37-.32-18.37-11.73,0-3.17,1.6-6.35,4.14-8.56,4.42-3.78,7.6-2.85,13.3-2.85,10.77,0,12.02.96,12.02-10.13v-25.64c0-8.88,1.6-16.16,12.37-16.16s12.02,7.6,12.02,15.84v27.25c-.32,9.49-.32,8.85,9.52,8.85h27.53c8.88,0,16.16,1.28,16.16,11.73s-9.17,11.41-17.09,11.41h-27.89c-9.49,0-8.24,1.57-8.24,11.09v71.9"/>
  <path class="cls-2" d="M326.93,215.86c-7.31,12.37-10.77,29.14-10.77,43.4,0,31.38,12.02,65.9,49.08,65.9,38.98,0,51.64-33.59,51.64-67.16,0-14.91-3.17-32.63-11.38-45.33-8.56-13.3-23.14-18.37-38.34-18.37-17.76,0-31.06,6.03-40.23,21.54M423.23,196.85c13.94,17.12,19.97,40.55,19.97,62.41,0,48.15-26.93,87.45-78.25,87.45s-75.11-40.23-75.11-86.49,24.39-87.45,75.39-87.45c22.82,0,43.4,6.03,57.99,24.07Z"/>
  <path class="cls-2" d="M241.92,174.12s-.74,3.59-5.87,3.72c-5.16.13-22.57.16-22.57.16,0,0-10.58.99-10.45,12.34,0,0,1.63,10.42,9.65,10.48,8.01.06,15.39,0,15.39,0,0,0,4.04.03,2.18,4.45-1.67,3.98-32.89,92.99-32.89,92.99,0,0-30.93,100.72-55.74,117.35,0,0-8.3,6.22-15.61,5.8-7.34-.39-16.32-.83-16.99-10.03,0,0,.13-6.47,3.72-5.96,0,0,1.96.51,2.53,3.01,0,0,3.24,4.39,7.69,2.4s6.6-13.78-3.08-17.34c-9.71-3.56-22.34,5.1-20.96,17.37,1.38,12.28,9.55,20.55,26.29,20.03,16.73-.48,43.24-10.9,72.8-70.55,29.59-59.69,60.78-155.12,60.78-155.12,0,0,.67-4.42,6.22-4.42h16.12s14.07.29,13.66-11.8c-.38-12.05-11.76-11.12-11.76-11.12h-9.74s-4.23-.86-3.78-3.72c.45-2.85,16.32-61.26,33.56-83.22,0,0,18.3-30.84,47.86-29.72,0,0,28.5-1.41,28.69,17.21,0,0-.38,2.79-3.46,1.22-3.08-1.57-6.51-4.26-9.78-3.21,0,0-14.36,4.2-7.76,16.44,6.6,12.25,31.06,8.11,31.06-11.51,0,0,1.06-26.93-38.15-28.69,0,0-21.57-1.96-45.9,18.05,0,0-34.56,27.41-57.8,87.86l-5.9,15.48"/>
</svg>