<?xml version="1.0" encoding="UTF-8" standalone="no"?>
<!-- Created with Inkscape (http://www.inkscape.org/) -->
<svg xmlns:dc="http://purl.org/dc/elements/1.1/" xmlns:cc="http://creativecommons.org/ns#" xmlns:rdf="http://www.w3.org/1999/02/22-rdf-syntax-ns#" xmlns:svg="http://www.w3.org/2000/svg" xmlns="http://www.w3.org/2000/svg" xmlns:xlink="http://www.w3.org/1999/xlink" xmlns:sodipodi="http://sodipodi.sourceforge.net/DTD/sodipodi-0.dtd" xmlns:inkscape="http://www.inkscape.org/namespaces/inkscape" width="607" height="209" id="svg2" version="1.1">
  <g inkscape:label="Layer 1" inkscape:groupmode="layer" id="layer1" transform="translate(-456.61217,-366.98218)">
    <path id="path26745" d="m 886.46382,366.98218 -20.92998,120.15834 c 19.97611,-6.10773 41.83569,-9.15564 63.38524,-9.15564 13.63283,0 47.85301,3.88068 47.85301,20.81434 0,16.38166 -27.56687,20.82386 -42.15357,20.82386 -19.6499,0 -53.87032,-8.87726 -71.29436,-17.21204 l -9.50707,56.6351 c 22.50366,9.71002 70.35667,16.93604 95.38813,16.93604 50.69035,0 114.39368,-24.15254 114.39368,-75.51029 0,-39.97744 -38.0361,-65.51474 -81.76337,-65.51474 -12.03463,0 -30.94266,1.68932 -39.79732,6.62166 0,0 3.04126,-11.61825 4.62303,-19.67465 l 102.35936,0 0,-54.92198 -162.55678,0" style="fill:#2056ae;fill-opacity:1;fill-rule:nonzero;stroke:none"/>
    <path id="path26749" d="m 456.61217,429.88204 0,-62.8951 246.70945,0 40.22941,120.83407 38.90864,-120.83407 90.62639,0 -92.51795,202.87561 -75.34683,0 -62.71689,-139.98051 -51.21214,0 0,139.98051 -86.82684,0 0,-139.98051 -47.85301,0 z" style="fill:#2056ae;fill-opacity:1;fill-rule:nonzero;stroke:none"/>
  </g>
</svg>