<?xml version="1.0" encoding="UTF-8" standalone="no"?>
<!-- Created with Inkscape (http://www.inkscape.org/) -->

<svg
   width="512"
   height="512"
   viewBox="0 0 512 512"
   version="1.1"
   id="svg5"
   inkscape:version="1.2.1 (9c6d41e410, 2022-07-14)"
   sodipodi:docname="glitchbg0.5.svg"
   xml:space="preserve"
   xmlns:inkscape="http://www.inkscape.org/namespaces/inkscape"
   xmlns:sodipodi="http://sodipodi.sourceforge.net/DTD/sodipodi-0.dtd"
   xmlns="http://www.w3.org/2000/svg"
   xmlns:svg="http://www.w3.org/2000/svg"><sodipodi:namedview
     id="namedview7"
     pagecolor="#505050"
     bordercolor="#eeeeee"
     borderopacity="1"
     inkscape:showpageshadow="0"
     inkscape:pageopacity="0"
     inkscape:pagecheckerboard="0"
     inkscape:deskcolor="#505050"
     inkscape:document-units="px"
     showgrid="false"
     inkscape:zoom="5.6734271"
     inkscape:cx="559.27395"
     inkscape:cy="292.76837"
     inkscape:window-width="2560"
     inkscape:window-height="1387"
     inkscape:window-x="2552"
     inkscape:window-y="-8"
     inkscape:window-maximized="1"
     inkscape:current-layer="layer1" /><defs
     id="defs2"><clipPath
       clipPathUnits="userSpaceOnUse"
       id="clipPath6038"><rect
         style="fill:#ff00ff;stroke-width:40.3953;stroke-linecap:square;stroke-miterlimit:0;paint-order:fill markers stroke"
         id="rect6040"
         width="512"
         height="512"
         x="0"
         y="0" /></clipPath><clipPath
       clipPathUnits="userSpaceOnUse"
       id="clipPath6042"><rect
         style="fill:#ff00ff;stroke-width:40.3953;stroke-linecap:square;stroke-miterlimit:0;paint-order:fill markers stroke"
         id="rect6044"
         width="512"
         height="512"
         x="0"
         y="0" /></clipPath></defs><g
     inkscape:label="Layer 1"
     inkscape:groupmode="layer"
     id="layer1"><path
       id="rect1041"
       style="fill:#800000;stroke-width:40;stroke-linecap:square;stroke-miterlimit:0;paint-order:fill markers stroke"
       d="m -0.5,0 c 0,19.192708 0,38.385417 0,57.578125 0.34098433,0.631038 0.99303471,0.511097 1.6,0.5 170.3,0 340.6,0 510.9,0 0.63104,-0.340984 0.5111,-0.993035 0.5,-1.6 0,-18.826042 0,-37.652083 0,-56.478125 -0.34098,-0.63103823 -0.99303,-0.5110966 -1.6,-0.5 -170.3,0 -340.6,0 -510.9,0 -0.16666667,0.16666667 -0.33333333,0.33333333 -0.5,0.5 z m 0,67.634766 c 0,21.907552 0,43.815104 0,65.722654 0.34098433,0.63104 0.99303471,0.5111 1.6,0.5 170.3,0 340.6,0 510.9,0 0.63104,-0.34098 0.5111,-0.99303 0.5,-1.6 0,-21.54088 0,-43.081769 0,-64.622654 -0.34098,-0.631039 -0.99303,-0.511097 -1.6,-0.5 -170.3,0 -340.6,0 -510.9,0 -0.16666667,0.166666 -0.33333333,0.333333 -0.5,0.5 z m 0,73.990234 c 0.0507992,0.75057 -0.0993297,1.58437 0.0707107,2.28555 0.33958663,0.63442 1.04437503,0.38715 1.62928932,0.42929 170.26667,0 340.53333,0 510.8,0 0.63104,-0.34098 0.5111,-0.99303 0.5,-1.6 0.006,-0.60752 0.13845,-1.26724 -0.49497,-1.60981 C 341.34085,141.1183 170.66765,141.12835 0,141.125 c -0.16666667,0.16667 -0.33333333,0.33333 -0.5,0.5 z m 0,9.25391 c 0,17.21484 0,34.42968 0,51.64453 0.34098433,0.63104 0.99303471,0.51109 1.6,0.5 170.3,0 340.6,0 510.9,0 0.63104,-0.34099 0.5111,-0.99304 0.5,-1.6 0,-16.84818 0,-33.69636 0,-50.54453 -0.34098,-0.63104 -0.99303,-0.5111 -1.6,-0.5 -170.3,0 -340.6,0 -510.9,0 -0.16666667,0.16666 -0.33333333,0.33333 -0.5,0.5 z m 0,60.45703 c 0,1.41015 0,2.82031 0,4.23047 0.34098433,0.63103 0.99303471,0.51109 1.6,0.5 170.3,0 340.6,0 510.9,0 0.63104,-0.34099 0.5111,-0.99304 0.5,-1.6 0,-1.04349 0,-2.08698 0,-3.13047 -0.34098,-0.63104 -0.99303,-0.5111 -1.6,-0.5 -170.3,0 -340.6,0 -510.9,0 -0.16666667,0.16666 -0.33333333,0.33333 -0.5,0.5 z m 0,18.15429 c 0,20.21615 0,40.4323 0,60.64844 0.34098433,0.63104 0.99303471,0.5111 1.6,0.5 170.3,0 340.6,0 510.9,0 0.63104,-0.34098 0.5111,-0.99303 0.5,-1.6 0,-19.84948 0,-39.69896 0,-59.54844 -0.34098,-0.63103 -0.99303,-0.51109 -1.6,-0.5 -170.3,0 -340.6,0 -510.9,0 -0.16666667,0.16667 -0.33333333,0.33334 -0.5,0.5 z m 0,78.67774 c 0,1.44726 0,2.89453 0,4.3418 0.34098433,0.63103 0.99303471,0.51109 1.6,0.5 170.3,0 340.6,0 510.9,0 0.63104,-0.34099 0.5111,-0.99304 0.5,-1.6 0,-1.0806 0,-2.1612 0,-3.2418 -0.34098,-0.63104 -0.99303,-0.5111 -1.6,-0.5 -170.3,0 -340.6,0 -510.9,0 -0.16666667,0.16667 -0.33333333,0.33333 -0.5,0.5 z m 0,18.79492 c 0,12.92578 0,25.85156 0,38.77734 0.34098433,0.63104 0.99303471,0.5111 1.6,0.5 170.3,0 340.6,0 510.9,0 0.63104,-0.34098 0.5111,-0.99303 0.5,-1.6 0,-12.55911 0,-25.11822 0,-37.67734 -0.34098,-0.63104 -0.99303,-0.5111 -1.6,-0.5 -170.3,0 -340.6,0 -510.9,0 -0.16666667,0.16667 -0.33333333,0.33333 -0.5,0.5 z m 0,55.875 c 0,20.21029 0,40.42057 0,60.63086 0.34098433,0.63104 0.99303471,0.5111 1.6,0.5 170.3,0 340.6,0 510.9,0 0.63104,-0.34098 0.5111,-0.99303 0.5,-1.6 0,-19.84362 0,-39.68724 0,-59.53086 -0.34098,-0.63104 -0.99303,-0.5111 -1.6,-0.5 -170.3,0 -340.6,0 -510.9,0 -0.16666667,0.16667 -0.33333333,0.33333 -0.5,0.5 z m 0,69.25781 c 0,19.9681 0,39.9362 0,59.9043 0.34098433,0.63104 0.99303471,0.5111 1.6,0.5 170.3,0 340.6,0 510.9,0 0.63104,-0.34098 0.5111,-0.99303 0.5,-1.6 0,-19.60143 0,-39.20286 0,-58.8043 -0.34098,-0.63104 -0.99303,-0.51109 -1.6,-0.5 -170.3,0 -340.6,0 -510.9,0 -0.16666667,0.16667 -0.33333333,0.33334 -0.5,0.5 z"
       clip-path="url(#clipPath6042)" /><rect
       style="fill:#000000;stroke-width:40;stroke-linecap:square;stroke-miterlimit:0;paint-order:fill markers stroke"
       id="rect807"
       width="528.95032"
       height="0"
       x="0"
       y="152.55307"
       clip-path="url(#clipPath6038)" /></g></svg>
