<?xml version="1.0" encoding="UTF-8" standalone="no"?>

<svg
   width="128"
   height="64"
   viewBox="0 0 582 250"
   version="1.1"
   id="svg5"
   xml:space="preserve"
   xmlns="http://www.w3.org/2000/svg"
   xmlns:svg="http://www.w3.org/2000/svg"><defs
     id="defs2" /><g
     id="layer1"><g
       id="g2197">
       
       <path
       style="fill:#ffffff;stroke-width:10.5833;stroke-linecap:square;stroke-miterlimit:0;paint-order:fill markers stroke"
       d="m 24.947719,62.164806 -12.26937,16.359161 -3.2718322,29.446483 0.4089789,63.39175 8.9975383,8.17958 106.334536,-16.76814 10.63345,-9.8155 29.85547,-1.63591 2.0449,65.43664 13.90528,20.85792 24.94772,5.31673 359.49254,-62.98276 7.7706,-10.22448 -2.04489,-40.07994 -10.22448,-6.13468 2.45388,-31.082408 -18.81304,-24.947718 -28.62852,-4.089789 -15.13224,3.680809 -4.90775,-17.177117 -18.40405,-2.862853 -22.49384,6.952644 -5.31672,22.084863 -13.49632,2.453876 -1.22693,-57.25706 -15.95019,-7.361621 -60.52889,13.087328 -4.08979,2.862853 -37.62606,2.044895 -9.81551,-18.404055 -22.49384,-4.4987691 -12.26936,8.9975381 -8.99754,21.266907 -14.31426,-17.995076 -68.70847,12.269371 -5.31673,12.26937 -1.63592,15.950181 -41.30688,4.089789 L 118.19493,47.441564 91.202316,44.578711 68.299491,54.394205 43.760752,53.985228 Z"
       id="path2977" />
         
       <path
       style="fill:#990303;stroke-width:0.297278"
       d="m 205.50317,229.29577 c -2.6659,0.0846 -4.72584,-0.009 -6.13576,-0.27866 -1.16738,-0.22333 -2.63891,-0.57145 -3.27006,-0.77361 -0.63115,-0.20216 -2.17718,-0.89748 -3.43562,-1.54515 -1.25844,-0.64767 -3.17284,-1.98832 -4.25423,-2.97921 -1.08139,-0.9909 -2.47463,-2.55155 -3.09609,-3.46812 -0.62147,-0.91657 -1.4673,-2.33537 -1.87963,-3.15289 -0.41233,-0.81751 -1.10086,-2.60052 -1.53006,-3.96223 -0.4292,-1.36172 -1.0026,-3.70278 -1.27422,-5.20236 -0.43559,-2.40482 -0.508,-6.59322 -0.61378,-35.49786 l -0.11992,-32.77135 0.69061,-0.28457 c 0.37984,-0.15652 6.42181,-1.29547 13.42662,-2.53101 7.0048,-1.23556 12.83581,-2.18476 12.9578,-2.10938 0.12198,0.0754 0.30582,13.5535 0.40852,29.95136 0.16027,25.59002 0.25213,30.06164 0.64838,31.5601 0.25391,0.96019 0.7355,2.1304 1.07022,2.60047 0.33471,0.47006 0.90134,0.92814 1.25917,1.01794 0.35783,0.0898 5.59961,-0.70534 11.64841,-1.76702 6.04881,-1.06168 14.54287,-2.54474 18.87569,-3.2957 4.33282,-0.75096 14.76727,-2.56998 23.18767,-4.04226 8.42039,-1.47229 22.60054,-3.94803 31.51144,-5.50163 8.91091,-1.55361 23.02416,-4.01874 31.36281,-5.47809 8.33864,-1.45934 23.65588,-4.13302 34.03831,-5.94152 10.38242,-1.80849 24.16125,-4.21327 30.61961,-5.34393 6.45835,-1.13067 14.15042,-2.47117 17.09347,-2.97891 2.94305,-0.50774 13.3775,-2.32593 23.18767,-4.04042 9.81016,-1.71448 24.72608,-4.31887 33.14647,-5.78752 8.4204,-1.46865 22.93499,-4.00407 32.25464,-5.63426 9.31966,-1.63018 24.16868,-4.22286 32.99784,-5.76149 8.82915,-1.53861 18.97265,-3.30383 22.54115,-3.92269 5.53441,-0.95979 6.52789,-1.06238 6.75852,-0.69791 0.15194,0.24014 0.27236,6.37494 0.27492,14.00652 0.004,11.95237 -0.0514,13.63519 -0.46259,14.04637 -0.25694,0.25694 -0.60101,0.46715 -0.76461,0.46715 -0.16358,0 -5.20402,0.8617 -11.20098,1.91488 -5.99698,1.05318 -15.98703,2.79759 -22.20014,3.87645 -6.2131,1.07888 -20.39326,3.55485 -31.51144,5.50216 -11.11819,1.94733 -26.83675,4.69123 -34.93014,6.09758 -8.09339,1.40635 -20.73512,3.61376 -28.09275,4.90537 -7.35762,1.2916 -18.86227,3.29847 -25.56589,4.45968 -6.70361,1.16123 -18.60959,3.23518 -26.45773,4.6088 -7.84813,1.37361 -19.35278,3.38074 -25.56589,4.46029 -6.2131,1.07954 -18.85484,3.28668 -28.09275,4.90475 -9.23791,1.61807 -23.01673,4.02338 -30.61961,5.34514 -7.60288,1.32178 -20.64594,3.5999 -28.98458,5.0625 -8.33865,1.46261 -22.11747,3.87598 -30.61961,5.36306 -8.50215,1.48709 -17.66574,3.10158 -20.36353,3.58778 -3.23744,0.58344 -6.26952,0.92731 -8.91833,1.0114 z m 33.74102,-36.83673 c -3.27936,0.0875 -4.69771,-0.007 -6.68875,-0.44437 -1.38977,-0.30547 -3.3964,-0.92237 -4.45916,-1.37086 -1.06277,-0.44849 -2.85161,-1.4098 -3.97519,-2.13622 -1.12358,-0.72643 -2.77848,-2.01525 -3.67757,-2.86404 -0.89909,-0.84879 -2.20454,-2.34591 -2.90101,-3.32692 -0.69646,-0.98102 -1.6344,-2.51643 -2.0843,-3.41202 -0.4499,-0.89558 -1.07454,-2.36711 -1.38808,-3.27005 -0.31356,-0.90294 -0.77237,-2.57813 -1.01959,-3.72265 -0.24722,-1.14452 -0.52145,-3.75313 -0.60941,-5.79692 -0.11355,-2.63855 -0.0215,-4.6184 0.3176,-6.82841 0.26265,-1.71184 0.81266,-4.21111 1.22224,-5.55393 0.40958,-1.34281 1.14864,-3.34182 1.64237,-4.44223 0.49372,-1.10041 1.55439,-3.08261 2.35706,-4.40488 0.80266,-1.32228 2.33457,-3.4931 3.40423,-4.82405 1.06967,-1.33095 2.91705,-3.3223 4.10529,-4.42521 1.18824,-1.10293 3.09686,-2.66835 4.24139,-3.47872 1.14451,-0.81037 3.12399,-2.00084 4.39884,-2.64548 1.27485,-0.64465 3.48213,-1.55919 4.90509,-2.03232 1.42294,-0.47313 3.65738,-1.08014 4.9654,-1.34891 1.30802,-0.26877 4.05041,-0.563 6.09419,-0.65384 2.18341,-0.097 4.59934,-0.0266 5.85785,0.17078 1.17803,0.18476 3.18466,0.66667 4.45917,1.07091 1.27451,0.40423 3.16973,1.24005 4.21162,1.85737 1.04187,0.61732 2.74776,1.90368 3.79085,2.85859 1.04309,0.95492 2.56705,2.75758 3.38658,4.00594 0.81953,1.24834 1.88176,3.28544 2.36051,4.52688 0.47875,1.24145 1.168,3.5858 1.53166,5.20968 0.63568,2.83852 0.66582,3.65707 0.78081,21.19978 0.0658,10.03598 0.0101,18.35389 -0.12381,18.48421 -0.13389,0.13034 -5.24373,1.12967 -11.35518,2.22074 -9.07704,1.62049 -11.15837,1.91019 -11.36633,1.58202 -0.14001,-0.22095 -0.25662,-7.36719 -0.25912,-15.88054 -0.004,-13.24001 -0.0726,-15.70783 -0.4748,-17.06228 -0.25863,-0.87091 -0.81667,-2.10697 -1.24009,-2.7468 -0.42342,-0.63983 -1.36077,-1.50963 -2.08302,-1.93289 -1.0617,-0.62221 -1.69741,-0.76957 -3.31982,-0.76957 -1.52537,0 -2.40802,0.18375 -3.68008,0.76612 -0.92039,0.42137 -2.34774,1.39687 -3.1719,2.16777 -0.88508,0.82789 -1.87865,2.17389 -2.42721,3.28819 -0.66616,1.35315 -0.96897,2.45466 -1.07099,3.89583 -0.0782,1.10511 0.006,2.55762 0.18751,3.22781 0.18137,0.67019 0.63421,1.67032 1.00633,2.22251 0.37212,0.55219 1.12837,1.30844 1.68056,1.68056 0.55219,0.37212 1.55232,0.82795 2.22251,1.01295 0.88845,0.24526 1.73622,0.24984 3.12964,0.0169 1.05112,-0.17569 2.70517,-0.73565 3.67566,-1.24438 0.97049,-0.50872 1.79896,-0.8845 1.84103,-0.83508 0.0421,0.0495 0.17138,5.3297 0.28735,11.73396 0.20533,11.33981 0.19552,11.65941 -0.37541,12.23034 -0.34976,0.34976 -1.70857,0.85378 -3.36844,1.24946 -1.97347,0.47043 -3.99196,0.69549 -6.94408,0.77424 z m 42.01556,-8.38919 c -0.27234,0.0607 -0.64023,-0.0347 -0.81752,-0.21204 -0.22965,-0.22964 -0.32234,-19.10127 -0.32234,-65.6276 0,-51.886441 0.0763,-65.366734 0.37159,-65.604464 0.20438,-0.164564 5.25439,-1.16839 11.22224,-2.230725 7.47912,-1.331355 10.9661,-1.838791 11.22223,-1.633095 0.29526,0.237103 0.37161,13.721424 0.37161,65.626734 0,51.90753 -0.0764,65.38875 -0.37161,65.62254 -0.20437,0.16183 -5.05372,1.1164 -10.77631,2.12129 -5.7226,1.00488 -10.62755,1.8767 -10.89989,1.93736 z m 48.80281,-7.88626 c -1.22627,-0.0195 -2.92322,-0.13675 -3.77097,-0.2607 -0.84778,-0.12395 -2.51524,-0.52116 -3.70551,-0.88269 -1.19025,-0.36154 -2.97147,-1.06387 -3.95825,-1.56073 -0.98676,-0.49688 -2.39612,-1.31219 -3.13188,-1.81181 -0.73577,-0.49961 -2.25566,-1.78614 -3.37753,-2.85893 -1.12186,-1.0728 -2.62995,-2.77456 -3.35132,-3.78169 -0.72135,-1.00714 -1.77648,-2.83746 -2.34475,-4.0674 -0.56826,-1.22993 -1.31055,-3.34896 -1.64954,-4.70895 -0.40296,-1.6168 -0.67405,-3.92502 -0.78312,-6.66829 -0.12724,-3.20047 -0.0462,-4.9279 0.34178,-7.2833 0.27971,-1.69827 0.89486,-4.25198 1.367,-5.67493 0.47213,-1.42295 1.41522,-3.69712 2.09578,-5.05372 0.68053,-1.3566 2.05639,-3.66887 3.05744,-5.13838 1.00105,-1.46951 3.22475,-4.08411 4.94153,-5.81024 1.85814,-1.86823 4.23326,-3.87898 5.86859,-4.96827 1.51098,-1.00643 3.74861,-2.30508 4.97257,-2.8859 1.22395,-0.58082 3.24389,-1.3885 4.48875,-1.79488 1.24488,-0.40636 3.35492,-0.97456 4.68899,-1.26266 1.68701,-0.36433 3.69281,-0.52053 6.58746,-0.51303 2.98227,0.008 4.69938,0.15624 6.05823,0.52391 1.04299,0.28222 2.68557,0.8319 3.65021,1.22154 0.96464,0.38963 2.4982,1.15718 3.40791,1.70567 0.90973,0.54849 2.55215,1.75113 3.64985,2.67253 1.09767,0.92141 2.74399,2.66049 3.65845,3.86461 0.91449,1.20414 2.14347,3.15408 2.73109,4.3332 0.58763,1.17914 1.40672,3.31138 1.82023,4.73833 0.41352,1.42694 0.80925,2.65183 0.87938,2.72197 0.0701,0.0701 0.19362,-0.18926 0.27439,-0.57643 0.0808,-0.38718 0.2306,-1.37283 0.33292,-2.19035 0.10233,-0.81751 0.44444,-2.51341 0.76023,-3.76867 0.31583,-1.25525 1.04374,-3.39565 1.61758,-4.75644 0.57386,-1.36079 1.53238,-3.27681 2.13005,-4.25783 0.59765,-0.98102 1.92672,-2.86904 2.95349,-4.19561 1.02677,-1.32656 2.77301,-3.24229 3.88057,-4.25717 1.10757,-1.01487 2.91279,-2.44291 4.01162,-3.17341 1.09886,-0.73051 3.0265,-1.80343 4.28365,-2.38428 1.25716,-0.58084 3.57251,-1.40215 5.14523,-1.82512 2.46874,-0.663945 3.48911,-0.771968 7.46729,-0.790507 4.31335,-0.02006 4.776,0.03371 7.24017,0.841303 1.51082,0.495184 3.53731,1.455494 4.75644,2.253984 1.16824,0.76517 2.93232,2.25834 3.92017,3.31816 1.02885,1.10381 2.33866,2.9698 3.06622,4.36823 0.69854,1.3427 1.59055,3.70463 1.98224,5.24871 0.3917,1.54408 0.85132,4.16337 1.02136,5.82064 0.17653,1.71999 0.30923,10.53002 0.30923,20.52747 v 17.51426 l -0.66887,0.27246 c -0.36788,0.14987 -5.28411,1.08395 -10.92496,2.07575 -5.64085,0.99181 -10.47589,1.80276 -10.74451,1.80211 -0.26866,-6e-4 -0.56964,-0.21277 -0.66888,-0.47141 -0.0993,-0.25862 -0.18045,-8.72198 -0.18045,-18.80745 0,-17.28041 -0.0318,-18.39693 -0.55076,-19.37306 -0.3818,-0.71804 -0.90623,-1.16072 -1.70935,-1.44286 -0.93648,-0.32899 -1.41159,-0.33813 -2.47837,-0.0477 -0.73547,0.20024 -1.74193,0.78148 -2.27326,1.3128 -0.52443,0.52441 -1.10028,1.4823 -1.27972,2.12863 -0.22066,0.79483 -0.32683,7.1664 -0.32793,19.68708 l -0.003,18.51191 -0.66888,0.27695 c -0.36788,0.15233 -5.24371,1.08588 -10.83518,2.07458 -5.5915,0.98869 -10.42651,1.79761 -10.74454,1.79761 -0.318,0 -0.65939,-0.2116 -0.75863,-0.47023 -0.0993,-0.25862 -0.18044,-5.96635 -0.18044,-12.68385 0,-6.71749 -0.0673,-12.14638 -0.14942,-12.06419 -0.0822,0.0822 -0.55531,1.60944 -1.0514,3.39391 -0.4961,1.78448 -1.61964,4.71603 -2.49678,6.51456 -0.87715,1.79853 -2.4441,4.47403 -3.4821,5.94555 -1.03801,1.47153 -3.29191,4.08026 -5.00869,5.79718 -1.71678,1.71693 -4.15915,3.83256 -5.42747,4.70141 -1.26833,0.86885 -3.67628,2.23209 -5.351,3.02943 -1.67473,0.79734 -4.04826,1.72971 -5.27453,2.07193 -1.22627,0.34221 -3.50045,0.81747 -5.05372,1.05612 -1.55328,0.23864 -3.82746,0.418 -5.05373,0.39857 z m 6.04627,-24.09256 c 0.79114,-0.11984 2.02247,-0.50061 2.7363,-0.84616 0.71379,-0.34554 2.01702,-1.40509 2.89604,-2.35455 0.87902,-0.94946 1.91953,-2.37855 2.31217,-3.17577 0.61587,-1.25036 0.71466,-1.8813 0.7192,-4.59306 0.005,-2.98441 -0.0403,-3.21733 -0.89442,-4.59995 -0.55909,-0.90498 -1.45113,-1.79698 -2.35622,-2.35605 -1.32461,-0.8182 -1.6874,-0.89969 -4.0054,-0.89969 -2.26107,0 -2.72589,0.0981 -4.11674,0.86865 -0.86231,0.47776 -2.17598,1.51879 -2.91923,2.3134 -0.74325,0.7946 -1.70563,2.20968 -2.13862,3.14459 -0.55662,1.20187 -0.82158,2.3367 -0.90447,3.87371 -0.0656,1.21555 0.0459,2.75669 0.25293,3.49599 0.2036,0.72719 0.90283,1.92729 1.55387,2.66689 0.65101,0.7396 1.60313,1.56617 2.11579,1.83681 0.51265,0.27063 1.46721,0.57105 2.12122,0.66758 0.65401,0.0965 1.83644,0.0774 2.62758,-0.0424 z M 4.1717423,150.13631 c -0.043314,10.34155 -0.07879,1.88028 -0.07879,-18.80282 0,-20.6831 0.035477,-29.14437 0.07879,-18.80282 0.043314,10.34155 0.043314,27.26409 0,37.60564 z m 9.8101447,1.78367 c -0.04373,8.70652 -0.07955,1.583 -0.07955,-15.83005 0,-17.41304 0.03581,-24.53656 0.07955,-15.83004 0.04373,8.70653 0.04373,22.95356 0,31.66009 z m 9.228832,15.38412 c -0.411985,0 -0.484641,-3.42364 -0.686015,-32.32895 -0.123874,-17.78093 -0.144688,-34.20181 -0.04626,-36.490851 0.09843,-2.28904 0.391289,-5.276196 0.650783,-6.638114 0.259494,-1.361927 0.855957,-3.605664 1.32548,-4.986096 0.469515,-1.380423 1.411097,-3.543607 2.092401,-4.807077 0.681296,-1.263469 1.891785,-3.178417 2.689969,-4.255436 0.798184,-1.077019 2.563129,-3.025678 3.922115,-4.330353 1.358977,-1.304675 3.602032,-3.068258 4.984553,-3.919073 1.38253,-0.850811 3.585053,-1.961527 4.894497,-2.468255 1.309453,-0.506726 3.584791,-1.173523 5.056316,-1.48177 1.618673,-0.339072 3.929867,-0.565157 5.851112,-0.57237 1.998654,-0.0075 3.862858,0.166167 5.029949,0.468588 1.019892,0.264279 2.667688,0.888961 3.661778,1.388177 0.994097,0.499218 2.610091,1.563247 3.591111,2.364509 0.981011,0.801264 2.385652,2.248035 3.121411,3.21505 0.735766,0.967012 1.538417,1.759718 1.783669,1.761564 0.245253,0.0018 1.146589,-1.104827 2.002968,-2.459278 0.856379,-1.354448 2.420523,-3.474609 3.475867,-4.711466 1.055335,-1.236857 2.889026,-3.007976 4.074849,-3.935821 1.185833,-0.927846 3.367397,-2.274473 4.847922,-2.992503 1.480525,-0.718032 3.933786,-1.636308 5.451692,-2.040618 1.517906,-0.404307 4.059631,-0.890808 5.64828,-1.08111 1.588648,-0.190303 3.824874,-0.257348 4.969394,-0.148987 1.14452,0.108361 2.8836,0.400789 3.86461,0.649844 0.98102,0.249053 2.68412,0.924881 3.78467,1.501841 1.34572,0.70549 2.67892,1.76269 4.07113,3.228323 1.47555,1.553372 2.41866,2.899372 3.28361,4.686365 0.66742,1.378884 1.53095,3.760774 1.91897,5.29309 0.388,1.532315 0.84497,3.990003 1.01548,5.461528 0.19283,1.664161 0.34302,15.790724 0.39732,37.371879 0.0567,22.54603 -0.0153,34.78904 -0.20591,34.96098 -0.16127,0.14553 -6.21192,1.31062 -13.44588,2.58909 -7.233959,1.27847 -13.253834,2.22335 -13.377497,2.09975 -0.123662,-0.12361 -0.291726,-15.0961 -0.373474,-33.27222 -0.137062,-30.472301 -0.188322,-33.119959 -0.657878,-33.977611 -0.280081,-0.511564 -0.725798,-1.013227 -0.990466,-1.114786 -0.264677,-0.101568 -0.817953,-0.184664 -1.2295,-0.184664 -0.411547,0 -1.201152,0.214908 -1.754673,0.477562 -0.553512,0.262662 -1.284029,0.926793 -1.623358,1.475839 -0.33933,0.549055 -0.762885,1.437793 -0.94122,1.974983 -0.228147,0.687203 -0.301291,10.584287 -0.246778,33.390697 0.06463,27.04696 0.01053,32.46658 -0.326892,32.73165 -0.222407,0.17471 -6.32205,1.36458 -13.554757,2.64416 -7.232707,1.27958 -13.204811,2.2689 -13.271332,2.1985 -0.06649,-0.0704 -0.208554,-14.7095 -0.315633,-32.53131 C 57.49938,107.58632 57.319207,95.604121 57.116543,94.689302 56.929216,93.843659 56.548764,93.09467 56.17277,92.831317 c -0.346458,-0.242666 -1.010277,-0.441218 -1.475157,-0.441218 -0.464871,0 -1.137429,0.150123 -1.494555,0.333608 -0.357135,0.183476 -1.022125,0.681414 -1.477753,1.106528 -0.475615,0.443762 -1.040251,1.472763 -1.325843,2.416216 -0.454438,1.501272 -0.489317,4.419039 -0.403591,33.761129 0.0782,26.75883 0.02663,32.17075 -0.309179,32.43494 -0.221666,0.1744 -6.165767,1.3396 -13.209116,2.58934 -7.043357,1.24974 -13.013447,2.27224 -13.266874,2.27224 z M 451.79377,154.63241 c -1.6328,0.0815 -3.90516,0.0227 -5.04968,-0.13066 -1.14452,-0.15335 -3.01077,-0.55815 -4.14723,-0.89957 -1.13644,-0.34142 -3.09342,-1.1372 -4.34882,-1.7684 -1.25537,-0.6312 -3.29405,-1.96137 -4.53036,-2.95593 -1.23633,-0.99457 -2.91767,-2.65009 -3.73638,-3.67895 -0.81866,-1.02886 -2.01886,-2.86384 -2.66705,-4.07774 -0.64818,-1.21389 -1.51142,-3.27729 -1.91831,-4.58531 -0.40687,-1.30802 -0.90607,-3.70368 -1.10931,-5.32368 -0.23114,-1.84235 -0.29606,-4.18037 -0.17332,-6.24283 0.10792,-1.81356 0.44951,-4.43446 0.7591,-5.82424 0.30961,-1.38977 0.96993,-3.63876 1.46739,-4.99777 0.49747,-1.359 1.52682,-3.61265 2.2875,-5.00812 0.76067,-1.39547 2.35917,-3.83303 3.5522,-5.41679 1.19303,-1.58376 3.49625,-4.153377 5.11832,-5.710248 1.62204,-1.556871 3.89999,-3.462797 5.06211,-4.23538 1.16214,-0.772583 3.36022,-1.99551 4.88459,-2.717625 1.52439,-0.722107 4.10892,-1.651488 5.74341,-2.065276 1.63447,-0.413788 4.10886,-0.869188 5.49863,-1.011988 1.38977,-0.1428 2.69408,-0.198374 2.89846,-0.123502 0.2894,0.106025 0.37159,2.957164 0.37159,12.887279 0,7.01313 -0.10992,12.75114 -0.24432,12.75114 -0.13438,0 -0.87861,-0.21612 -1.65388,-0.48028 -0.8993,-0.30643 -2.02303,-0.43591 -3.10436,-0.35769 -0.9511,0.0688 -2.34513,0.43643 -3.17688,0.8378 -0.81514,0.39336 -2.10651,1.3546 -2.86968,2.13607 -0.76321,0.78147 -1.76619,2.19244 -2.22887,3.13549 -0.64795,1.32065 -0.86553,2.2396 -0.94689,3.9993 -0.0901,1.9486 0.004,2.52496 0.64227,3.91831 0.50206,1.09667 1.15498,1.92855 1.98637,2.53081 0.68116,0.49342 1.71503,1.05441 2.29752,1.24665 0.61099,0.20165 1.91681,0.28816 3.08646,0.20446 1.36028,-0.0973 2.56039,-0.40583 3.6473,-0.93761 0.89097,-0.43592 2.09435,-1.31766 2.67412,-1.95943 0.57982,-0.64177 1.32818,-1.70391 1.66307,-2.3603 0.33485,-0.6564 0.84231,-1.96673 1.12766,-2.91186 0.47772,-1.58233 0.51881,-3.93515 0.51881,-29.711936 0,-15.396435 0.0742,-28.067847 0.16505,-28.158693 0.0908,-0.09085 5.09285,-1.045513 11.11575,-2.121481 6.02291,-1.075967 11.13154,-1.886917 11.35257,-1.802106 0.33157,0.127243 0.41514,3.975576 0.47805,22.014222 0.0456,13.069717 0.18645,21.867504 0.35034,21.878624 0.15075,0.0102 0.6321,-0.95966 1.06966,-2.15531 0.43757,-1.19564 1.20701,-2.985988 1.70989,-3.978552 0.50287,-0.992556 1.75227,-3.066073 2.77639,-4.607801 1.16488,-1.753595 3.14907,-4.090726 5.29934,-6.241963 1.96946,-1.970373 4.4528,-4.10467 5.81546,-4.998121 1.30802,-0.857616 3.44842,-2.071594 4.75644,-2.697731 1.30803,-0.626135 3.49716,-1.489899 4.86475,-1.919478 1.36759,-0.42958 3.70866,-0.993576 5.20237,-1.253325 1.97489,-0.343427 3.81073,-0.431101 6.72908,-0.321361 2.83829,0.106726 4.65109,0.335954 6.19189,0.782956 1.19826,0.347624 3.00423,1.045761 4.01325,1.551409 1.00904,0.505652 2.63726,1.489894 3.61828,2.187204 0.98102,0.697312 2.52648,2.052732 3.43439,3.012048 0.90789,0.959313 2.06064,2.346196 2.56164,3.081954 0.50103,0.735767 1.32884,2.167619 1.83959,3.18189 0.51075,1.014272 1.26596,3.008063 1.67819,4.430645 0.41223,1.422574 0.87061,3.980664 1.01856,5.684646 0.14796,1.70396 0.19359,4.09554 0.10138,5.31461 -0.0922,1.21907 -0.31521,2.30773 -0.4956,2.41925 -0.18038,0.11151 -7.95316,1.56485 -17.27282,3.22964 -11.07526,1.97839 -17.0652,2.92896 -17.29235,2.7442 -0.19112,-0.15547 -0.50612,-1.22306 -0.69997,-2.37241 -0.19617,-1.16312 -0.26565,-2.8365 -0.15663,-3.77388 0.1077,-0.9263 0.38979,-2.37553 0.62686,-3.22051 0.42125,-1.50134 0.46319,-1.54296 1.84191,-1.82738 0.77596,-0.16008 3.19142,-0.59696 5.36768,-0.97084 2.17625,-0.37387 4.17413,-0.8387 4.43978,-1.03294 0.44425,-0.32484 0.44012,-0.46539 -0.0516,-1.752786 -0.29398,-0.769794 -0.97591,-1.841005 -1.51535,-2.38047 -0.63103,-0.631022 -1.49373,-1.102905 -2.41889,-1.323088 -1.03815,-0.247073 -1.88982,-0.25582 -3.0627,-0.03143 -0.89353,0.170937 -2.19332,0.586091 -2.88841,0.92258 -0.6951,0.336481 -1.93052,1.341289 -2.74539,2.232901 -0.8149,0.891611 -1.8906,2.453713 -2.39047,3.471343 -0.49985,1.01764 -1.12157,2.85355 -1.38157,4.07983 -0.34122,1.60937 -0.43028,3.13923 -0.32011,5.49964 0.0839,1.79852 0.3658,3.95912 0.62634,4.80131 0.26056,0.8422 0.90726,2.17571 1.4371,2.96337 0.52986,0.78766 1.53469,1.8315 2.23294,2.31965 1.00718,0.70412 1.66253,0.91257 3.17112,1.00863 1.57388,0.10022 2.1877,-0.01 3.56198,-0.63909 0.91324,-0.41809 2.37534,-1.43628 3.2491,-2.26265 0.87376,-0.82636 1.71244,-1.50247 1.86375,-1.50247 0.15132,0 3.11134,3.00828 6.57781,6.68506 3.65836,3.88035 6.23945,6.84983 6.15195,7.07778 -0.0829,0.21599 -1.11607,1.1985 -2.29599,2.18336 -1.17989,0.98485 -3.00351,2.36822 -4.05249,3.07416 -1.04894,0.70593 -3.05557,1.85147 -4.45917,2.54562 -1.40357,0.69416 -3.6412,1.60383 -4.97247,2.02149 -1.33131,0.41766 -3.93992,0.98333 -5.79692,1.25704 -2.22186,0.32749 -4.29127,0.44262 -6.05189,0.33669 -1.47153,-0.0885 -3.67882,-0.38676 -4.90509,-0.66271 -1.22626,-0.27596 -3.34574,-1.01992 -4.70992,-1.65322 -1.36421,-0.63332 -3.30394,-1.74102 -4.31053,-2.46155 -1.00661,-0.72053 -2.64907,-2.16537 -3.64994,-3.21075 -1.00085,-1.04538 -2.31978,-2.68242 -2.93099,-3.63787 -0.6112,-0.95544 -1.43504,-2.46931 -1.83078,-3.36414 -0.39574,-0.89484 -0.95622,-2.49103 -1.2455,-3.5471 -0.28931,-1.05607 -0.65321,-1.89668 -0.80866,-1.86802 -0.15544,0.0286 -0.58712,1.19905 -0.95925,2.60088 -0.37214,1.40182 -1.12903,3.65848 -1.682,5.0148 -0.55297,1.35633 -1.49344,3.33877 -2.08995,4.40543 -0.59652,1.06667 -1.87622,2.98997 -2.84376,4.274 -0.96755,1.28403 -2.89929,3.41382 -4.29278,4.73288 -1.39346,1.31904 -3.74876,3.21108 -5.234,4.20452 -1.48519,0.99344 -3.79326,2.32268 -5.12902,2.95388 -1.33579,0.63119 -3.30011,1.43293 -4.36519,1.78163 -1.06512,0.34871 -2.93978,0.82596 -4.16594,1.06057 -1.22615,0.2346 -3.56531,0.49322 -5.19814,0.57471 z M 148.27718,140.13815 c -3.27935,0.0875 -4.6977,-0.007 -6.68875,-0.44438 -1.38976,-0.30547 -3.39639,-0.92235 -4.45916,-1.37085 -1.06276,-0.44849 -2.8516,-1.4098 -3.97518,-2.13622 -1.12358,-0.72643 -2.77849,-2.01525 -3.67757,-2.86404 -0.89909,-0.84879 -2.20454,-2.3459 -2.90101,-3.32692 -0.69647,-0.98102 -1.63441,-2.51643 -2.0843,-3.41201 -0.44991,-0.8956 -1.07454,-2.36712 -1.38809,-3.27006 -0.31355,-0.90294 -0.77236,-2.57813 -1.01958,-3.72265 -0.24722,-1.14452 -0.52146,-3.75313 -0.60941,-5.79692 -0.11355,-2.63855 -0.0215,-4.6184 0.3176,-6.82841 0.26265,-1.71185 0.81265,-4.21111 1.22223,-5.55393 0.40959,-1.34282 1.14865,-3.341823 1.64238,-4.442233 0.49371,-1.100401 1.55439,-3.082597 2.35706,-4.404876 0.80266,-1.322278 2.33456,-3.493099 3.40423,-4.824048 1.06966,-1.33095 2.91704,-3.3223 4.10529,-4.425218 1.18824,-1.102922 3.09686,-2.668342 4.24137,-3.478713 1.14453,-0.810373 3.12401,-2.000842 4.39886,-2.645486 1.27484,-0.644644 3.48213,-1.559184 4.90508,-2.032313 1.42295,-0.473132 3.65738,-1.080141 4.9654,-1.34891 1.30802,-0.268772 4.05042,-0.562999 6.0942,-0.653838 2.18341,-0.09705 4.59934,-0.0266 5.85785,0.170773 1.17803,0.184767 3.18465,0.666676 4.45916,1.070908 1.27452,0.404236 3.16974,1.24005 4.21162,1.857368 1.04188,0.617322 2.74776,1.903689 3.79086,2.858599 1.04309,0.95491 2.56705,2.757579 3.38658,4.005932 0.81953,1.248349 1.88176,3.285448 2.36051,4.526889 0.47875,1.24144 1.16799,3.585793 1.53166,5.209683 0.63568,2.838516 0.66582,3.657059 0.78081,21.199773 0.0658,10.03598 0.0101,18.35388 -0.12382,18.48422 -0.13389,0.13033 -5.24372,1.12966 -11.35518,2.22073 -9.07703,1.62049 -11.15837,1.91018 -11.36632,1.58202 -0.14001,-0.22095 -0.25662,-7.36719 -0.25913,-15.88053 -0.004,-13.24002 -0.0726,-15.70784 -0.47479,-17.06229 -0.25863,-0.87091 -0.81668,-2.10697 -1.2401,-2.7468 -0.42342,-0.63983 -1.36077,-1.509631 -2.08301,-1.932891 -1.0617,-0.622199 -1.69741,-0.769566 -3.31982,-0.769566 -1.52537,0 -2.40802,0.183754 -3.68008,0.76612 -0.92039,0.421364 -2.34774,1.396867 -3.1719,2.167757 -0.88508,0.8279 -1.87865,2.17391 -2.42722,3.28821 -0.66615,1.35313 -0.96896,2.45465 -1.07098,3.89582 -0.0782,1.1051 0.006,2.55762 0.18751,3.22781 0.18136,0.67019 0.63421,1.67032 1.00633,2.22251 0.37211,0.55219 1.12837,1.30844 1.68056,1.68056 0.55219,0.37212 1.55232,0.82794 2.22251,1.01295 0.88845,0.24526 1.73621,0.24984 3.12964,0.0169 1.05111,-0.17568 2.70515,-0.73565 3.67566,-1.24437 0.97049,-0.50872 1.79895,-0.88452 1.84103,-0.83509 0.042,0.0495 0.17137,5.3297 0.28734,11.73396 0.20534,11.33981 0.19553,11.6594 -0.37541,12.23033 -0.34976,0.34977 -1.70856,0.8538 -3.36843,1.24948 -1.97347,0.47043 -3.99196,0.69548 -6.94409,0.77424 z m 64.07117,-11.81504 c -0.74005,-0.0207 -2.26624,-0.1558 -3.39153,-0.30025 -1.12529,-0.14446 -3.26569,-0.66948 -4.75644,-1.16671 -1.49076,-0.49722 -3.59524,-1.42746 -4.67662,-2.06719 -1.0814,-0.63974 -2.70514,-1.76513 -3.60833,-2.50086 -0.90319,-0.73573 -2.27428,-2.1786 -3.04686,-3.20636 -0.77258,-1.02776 -1.83898,-2.73826 -2.36976,-3.80111 -0.53079,-1.06284 -1.25247,-2.8058 -1.60374,-3.87324 -0.35127,-1.06744 -0.85272,-2.94029 -1.11432,-4.16189 -0.40767,-1.9036 -0.50981,-6.42811 -0.71458,-31.651594 -0.18044,-22.22657 -0.15439,-29.516999 0.10638,-29.783874 0.18992,-0.194354 5.26986,-1.233857 11.28877,-2.310009 6.0189,-1.076148 11.06892,-1.879104 11.22224,-1.784344 0.16587,0.102513 0.27877,4.913564 0.27877,11.879672 0,7.209393 0.11033,11.775571 0.28716,11.884862 0.15795,0.09761 2.19263,-0.162043 4.52152,-0.577013 2.3289,-0.414967 4.54074,-0.754488 4.9152,-0.754488 h 0.68085 v 12.319482 c 0,7.532383 -0.11067,12.387877 -0.2848,12.495496 -0.15664,0.09682 -2.37472,0.55695 -4.92906,1.022538 -2.55435,0.465579 -4.77654,0.978795 -4.93821,1.140479 -0.19377,0.193757 -0.18793,1.244929 0.0171,3.083878 0.1711,1.534457 0.53161,3.437078 0.80111,4.228049 0.26951,0.79097 0.94051,1.888616 1.49111,2.439216 0.5506,0.55059 1.54913,1.14866 2.21896,1.32902 0.66983,0.18036 2.17575,0.30977 3.34649,0.28756 1.17074,-0.0222 2.29584,-0.0306 2.50022,-0.0186 0.29096,0.017 0.3716,2.69665 0.3716,12.34732 v 12.32557 l -1.11479,0.29503 c -0.61314,0.16226 -2.24838,0.43497 -3.63385,0.60601 -1.38549,0.17104 -3.12457,0.29406 -3.86462,0.27338 z m 10.94223,-2.22197 c -0.27234,0.0604 -0.64022,-0.0352 -0.81751,-0.21249 -0.22864,-0.22864 -0.32235,-12.7955 -0.32235,-43.225906 V 39.759186 l 0.66887,-0.284691 c 0.36788,-0.156578 5.22521,-1.090135 10.79406,-2.074571 5.56885,-0.984432 10.40388,-1.789879 10.74452,-1.789879 0.34062,0 0.70053,0.211602 0.79977,0.470231 0.0993,0.258626 0.18045,6.010951 0.18045,12.782944 0,7.551281 0.10887,12.312714 0.28153,12.312714 0.15485,0 1.1916,-0.690246 2.3039,-1.533879 1.11231,-0.843633 2.95879,-1.976496 4.10332,-2.51747 1.14451,-0.540975 2.88359,-1.191763 3.86461,-1.446197 0.99187,-0.257249 3.03734,-0.46557 4.60781,-0.469277 2.03864,-0.0048 3.38163,0.165714 4.8285,0.613103 1.26858,0.392258 2.68305,1.134011 3.85313,2.020594 1.18847,0.900514 2.3882,2.197124 3.35915,3.630404 0.89392,1.319545 1.83047,3.200647 2.29455,4.608677 0.43127,1.3085 0.92136,3.515788 1.08908,4.905083 0.16946,1.403752 0.35912,11.935221 0.42688,23.704757 0.0881,15.295101 0.0298,21.301401 -0.20977,21.620231 -0.22742,0.30266 -3.76893,1.05528 -11.26376,2.39367 -6.01262,1.0737 -11.06263,1.87148 -11.22224,1.77284 -0.18328,-0.11327 -0.29082,-6.49777 -0.29191,-17.32959 -8.4e-4,-9.629576 -0.12783,-17.920287 -0.28929,-18.906251 -0.18307,-1.117894 -0.53353,-2.01947 -0.96443,-2.481041 -0.59137,-0.633455 -0.87558,-0.708838 -2.24991,-0.596743 -0.94542,0.07711 -1.89429,0.36775 -2.37822,0.728449 -0.44285,0.330082 -1.07273,1.054379 -1.39974,1.609548 -0.57301,0.972824 -0.59995,1.686855 -0.74319,19.705648 -0.12882,16.20297 -0.20811,18.72996 -0.59456,18.94902 -0.24526,0.13903 -5.06116,1.0585 -10.702,2.04328 -5.64084,0.98477 -10.47891,1.83993 -10.75125,1.90035 z m 106.43656,-18.29308 c -1.20532,-0.0222 -2.52588,-0.0932 -2.93464,-0.15753 -0.40876,-0.0644 -1.74651,-0.32689 -2.97278,-0.58335 -1.22627,-0.25647 -3.34574,-0.98541 -4.70992,-1.61988 -1.36421,-0.63447 -3.3073,-1.74368 -4.31802,-2.46493 -1.01074,-0.72123 -2.7252,-2.25213 -3.80991,-3.401984 -1.08471,-1.14985 -2.53632,-3.040169 -3.22576,-4.200704 -0.68948,-1.160535 -1.63875,-3.227529 -2.10952,-4.593324 -0.47077,-1.365794 -1.05506,-3.804418 -1.29844,-5.419164 -0.24341,-1.614742 -0.44334,-4.055818 -0.44429,-5.424607 0,-1.368792 0.20709,-3.910517 0.4623,-5.648278 0.25524,-1.737764 0.91639,-4.518741 1.46921,-6.17995 0.55281,-1.661212 1.47003,-3.94353 2.03823,-5.071817 0.56818,-1.128292 1.87189,-3.314157 2.89709,-4.857481 1.16687,-1.756587 3.14954,-4.092153 5.30126,-6.244855 1.96946,-1.970366 4.4528,-4.104666 5.81547,-4.998116 1.30802,-0.857617 3.44842,-2.071596 4.75644,-2.697731 1.30802,-0.626135 3.49714,-1.489899 4.86474,-1.919478 1.3676,-0.429581 3.70867,-0.993577 5.20236,-1.253326 1.97491,-0.343427 3.81075,-0.4311 6.7291,-0.32136 2.83829,0.106726 4.65109,0.335953 6.19187,0.782955 1.19827,0.347625 3.00424,1.047774 4.01325,1.555881 1.00906,0.50811 2.43661,1.33376 3.17238,1.834777 0.73576,0.501021 2.12265,1.653766 3.08197,2.561661 0.95931,0.907892 2.31472,2.453365 3.01204,3.434382 0.6973,0.981017 1.67234,2.591031 2.16677,3.577809 0.49441,0.986781 1.19643,2.792743 1.56002,4.01325 0.36358,1.220509 0.77747,2.346194 0.91979,2.501521 0.14714,0.16064 0.25868,-4.726613 0.25868,-11.334476 0,-8.935748 0.0858,-11.685945 0.3716,-11.916097 0.20438,-0.164564 5.25438,-1.168392 11.22224,-2.230725 7.47912,-1.331356 10.9661,-1.838791 11.22224,-1.633096 0.29008,0.232953 0.37168,4.350042 0.37207,18.767559 0,16.989521 0.0421,18.552167 0.52024,19.50548 0.28586,0.569986 0.85419,1.203444 1.26295,1.407688 0.40876,0.204242 1.2238,0.373322 1.81123,0.375733 0.58742,0.0024 1.65057,-0.303667 2.36255,-0.680172 0.88479,-0.467891 1.51115,-1.094265 1.97907,-1.979062 l 0.68454,-1.29451 V 51.206771 c 0,-14.676357 0.0814,-18.859974 0.3716,-19.095189 0.20437,-0.165664 5.31452,-1.183516 11.35586,-2.261892 8.46255,-1.51056 11.04012,-1.876316 11.22756,-1.59318 0.13383,0.202128 0.19751,9.263545 0.14153,20.13648 -0.0887,17.221759 -0.16591,20.036772 -0.5994,21.847377 -0.27367,1.143123 -0.83258,3.082861 -1.24208,4.310528 -0.40948,1.227668 -1.19099,3.118439 -1.7367,4.201713 -0.54574,1.083277 -1.6433,2.956127 -2.43905,4.161889 -0.79572,1.205764 -2.92405,3.677427 -4.72957,5.492587 -2.27013,2.282232 -4.06144,3.774267 -5.80705,4.836816 -1.38835,0.845096 -3.5877,1.946626 -4.88743,2.447859 -1.29973,0.501233 -3.57506,1.178847 -5.05631,1.505805 -1.87948,0.414867 -3.77093,0.592748 -6.26049,0.588754 -2.61815,-0.0042 -4.18433,-0.16696 -5.88625,-0.6117 -1.27538,-0.333287 -3.23286,-1.086253 -4.34994,-1.673262 -1.11709,-0.587009 -2.74775,-1.679034 -3.62367,-2.426725 -0.87596,-0.747699 -2.21606,-2.136229 -2.97798,-3.085631 -0.76195,-0.949402 -1.81598,-2.636956 -2.34228,-3.750115 -0.52631,-1.113156 -1.27893,-3.2922 -1.67246,-4.842313 -0.39354,-1.550116 -0.82625,-4.12802 -0.9616,-5.728676 -0.13535,-1.600659 -0.30477,-2.968988 -0.37653,-3.040736 -0.0717,-0.07175 -7.8837,1.254887 -17.3599,2.948074 -11.2693,2.013576 -17.34967,2.980662 -17.57696,2.795624 -0.19112,-0.155595 -0.50612,-1.223277 -0.69997,-2.372622 -0.19618,-1.163117 -0.26566,-2.836499 -0.15664,-3.773887 0.1077,-0.926291 0.38979,-2.375517 0.62687,-3.220503 0.42125,-1.501347 0.46319,-1.542963 1.84191,-1.827384 0.77595,-0.160078 3.19142,-0.596952 5.36767,-0.970831 2.17625,-0.373881 4.17414,-0.838704 4.43978,-1.032946 0.44425,-0.324844 0.44012,-0.465385 -0.0516,-1.752785 -0.29398,-0.769795 -0.9759,-1.841006 -1.51534,-2.38047 -0.63103,-0.631022 -1.49373,-1.102906 -2.41889,-1.323085 -1.03815,-0.247074 -1.88983,-0.255819 -3.0627,-0.03145 -0.89354,0.170934 -2.19332,0.586095 -2.88841,0.922578 -0.6951,0.336485 -1.93053,1.34129 -2.7454,2.232904 -0.8149,0.89161 -1.89059,2.453719 -2.39047,3.471348 -0.49984,1.017632 -1.12157,2.853552 -1.38157,4.079823 -0.34122,1.609366 -0.43028,3.139232 -0.32011,5.499639 0.0839,1.79853 0.3658,3.959124 0.62634,4.801318 0.26056,0.842194 0.90726,2.175708 1.4371,2.963366 0.52987,0.787658 1.53469,1.831496 2.23295,2.319642 1.00717,0.704124 1.66252,0.912569 3.17112,1.008634 1.57387,0.10022 2.18769,-0.0099 3.56198,-0.639086 0.91323,-0.418094 2.37533,-1.436286 3.2491,-2.26265 0.87375,-0.82636 1.71244,-1.502475 1.86375,-1.502475 0.15131,0 3.11134,3.008283 6.5778,6.685069 3.65837,3.880343 6.23945,6.849828 6.15196,7.077772 -0.0829,0.215995 -1.11607,1.198506 -2.296,2.183351 -1.1799,0.984854 -3.00352,2.368232 -4.05249,3.074172 -1.04894,0.70594 -3.05556,1.85146 -4.45916,2.54562 -1.40357,0.69415 -3.63583,1.60213 -4.96059,2.01773 -1.32475,0.41559 -3.81675,0.96471 -5.53778,1.22026 -1.72106,0.25555 -4.1153,0.44642 -5.32059,0.42415 z M 289.19872,45.097383 c -0.98754,-0.01407 -2.12996,-0.127654 -2.53872,-0.252443 -0.40876,-0.124788 -1.29096,-0.506734 -1.96045,-0.848766 -0.66949,-0.342033 -1.63686,-1.099779 -2.14971,-1.683876 -0.51284,-0.584101 -1.12855,-1.441225 -1.36823,-1.904719 -0.23968,-0.463498 -0.59523,-1.708054 -0.79011,-2.765685 -0.26791,-1.453995 -0.27244,-2.389367 -0.0186,-3.835392 0.18466,-1.051837 0.75936,-2.774119 1.2771,-3.827297 0.59693,-1.214263 1.65845,-2.628232 2.90133,-3.864612 1.12204,-1.116168 2.65902,-2.28546 3.59502,-2.73499 0.89927,-0.431887 2.4323,-0.948853 3.40674,-1.148814 0.97444,-0.199962 2.42285,-0.286449 3.21868,-0.192194 0.79583,0.09425 2.15052,0.493474 3.01046,0.887155 0.8599,0.39368 2.07096,1.223285 2.69126,1.843565 0.62027,0.620281 1.43983,1.809418 1.82123,2.642529 0.38142,0.833108 0.78203,2.268083 0.89023,3.188832 0.13342,1.13509 0.0363,2.395209 -0.30152,3.913844 -0.33099,1.487736 -0.87611,2.821223 -1.62353,3.971544 -0.61887,0.952482 -1.73699,2.291962 -2.48476,2.976619 -0.74775,0.684658 -2.03823,1.588754 -2.86775,2.009102 -0.82952,0.420348 -2.27433,0.963816 -3.21069,1.207708 -0.93637,0.243893 -2.51047,0.431942 -3.49801,0.41789 z"
       id="path420" />
       
       <path
       style="fill:#0000000;stroke-width:0.297278"
       d="m 204.25958,247.54819 c -4.34165,-0.0158 -6.35884,-0.1519 -8.2693,-0.55786 -1.38978,-0.29532 -4.09379,-0.94835 -6.00891,-1.45119 -1.91513,-0.50283 -4.45685,-1.39231 -5.64828,-1.97661 -1.19143,-0.58431 -3.37021,-1.92277 -4.84173,-2.97436 -1.47153,-1.05159 -3.39786,-2.54573 -4.28075,-3.3203 -0.88288,-0.77458 -2.75644,-2.95414 -4.16348,-4.84348 -1.40703,-1.88933 -3.04608,-4.37157 -3.64233,-5.5161 -0.59625,-1.14451 -1.49165,-3.2427 -1.98979,-4.66264 -0.49814,-1.41994 -1.37858,-4.69911 -1.95654,-7.28706 -0.57796,-2.58794 -1.18449,-5.97452 -1.34784,-7.52574 -0.17054,-1.61951 -0.30113,-12.81993 -0.3067,-26.30533 -0.006,-13.52308 -0.12409,-23.66571 -0.27937,-23.91109 -0.23118,-0.36533 -0.70779,-0.33341 -3.33982,0.22368 -1.68859,0.3574 -4.4748,0.79633 -6.19158,0.9754 -1.77321,0.18495 -4.66223,0.24186 -6.68875,0.13176 -1.96204,-0.10659 -4.49965,-0.37175 -5.63914,-0.58923 -1.13949,-0.21748 -2.20969,-0.34244 -2.37822,-0.2777 -0.16853,0.0647 -0.70551,0.88538 -1.19328,1.82365 -0.48887,0.94033 -1.82299,2.6398 -2.97278,3.78686 -1.14725,1.14452 -2.75479,2.43438 -3.57231,2.86635 -0.81751,0.43197 -2.661,1.07081 -4.09665,1.41964 -1.43566,0.34883 -8.94814,1.76791 -16.69441,3.15352 -7.74627,1.38561 -14.465277,2.5193 -14.931126,2.5193 -0.465848,0 -2.317615,0.32914 -4.115045,0.73143 -1.797422,0.40229 -9.305145,1.80692 -16.68382,3.12142 -7.378676,1.31449 -13.800777,2.38998 -14.271345,2.38998 -0.47056,0 -2.326185,0.32961 -4.123616,0.73248 -1.797422,0.40287 -9.29392,1.8075 -16.658894,3.12142 -7.507992,1.33943 -14.224702,2.38893 -15.288919,2.38893 -1.043934,0 -3.327631,-0.34182 -5.074881,-0.7596 -2.129698,-0.50923 -3.794642,-1.12165 -5.051251,-1.85799 -1.030948,-0.60411 -2.486943,-1.71321 -3.2355517,-2.46468 -0.7486007,-0.75146 -1.8151941,-2.12759 -2.3701982,-3.05807 -0.5549956,-0.93048 -1.3548142,-2.92426 -1.7773747,-4.43062 L 4.4073128,170.42552 4.310329,132.67124 C 4.2406396,105.55526 4.3094864,94.121186 4.5544695,92.09282 4.7420831,90.539547 5.4662546,86.990114 6.1637301,84.205205 6.8612056,81.420289 7.8910245,77.99817 8.4522223,76.600494 9.01342,75.202817 10.064685,73.024397 10.788368,71.759564 c 0.723683,-1.264836 2.433593,-3.795705 3.7998,-5.62415 1.366207,-1.82845 3.310398,-4.172098 4.320431,-5.208109 1.010033,-1.03601 3.377652,-3.049802 5.261381,-4.475094 1.883721,-1.425296 4.425446,-3.143594 5.648272,-3.818444 1.222826,-0.67485 3.242327,-1.634912 4.487778,-2.133468 1.245452,-0.498558 4.389169,-1.428999 6.98603,-2.067644 2.596862,-0.638647 5.948012,-1.32766 7.447,-1.531141 1.693275,-0.229852 4.282679,-0.308844 6.837381,-0.208576 2.984342,0.117128 5.008713,0.377855 7.382021,0.950754 1.798534,0.434153 3.751102,0.862091 4.339054,0.950974 0.950582,0.143701 1.388202,-0.05634 3.950707,-1.805897 1.584941,-1.082127 3.817985,-2.439001 4.962324,-3.01528 1.144339,-0.576279 3.245992,-1.435257 4.670344,-1.908842 1.424361,-0.473581 4.797025,-1.361888 7.494822,-1.974013 4.444541,-1.008456 5.40901,-1.125054 10.272218,-1.241824 4.246389,-0.101961 5.891409,-0.02411 7.877859,0.372795 1.3809,0.275915 3.84848,0.835909 5.4835,1.244425 1.63503,0.408519 3.64166,1.020332 4.45917,1.359585 0.81752,0.339253 2.78018,1.465841 4.36148,2.503525 1.5813,1.037684 3.64579,2.588776 4.58776,3.446871 0.94197,0.858095 2.73306,2.93205 3.98018,4.608793 1.24712,1.676738 2.83018,4.104656 3.51791,5.395371 0.68771,1.290718 1.41543,2.409133 1.61714,2.48537 0.20172,0.07624 1.56647,-0.324384 3.0328,-0.89027 1.46633,-0.565885 4.14183,-1.414186 5.94556,-1.885113 1.80373,-0.470923 4.59924,-1.12717 6.21225,-1.458325 1.613,-0.331156 4.8236,-0.7512 7.13467,-0.933432 2.99596,-0.23624 5.18137,-0.241969 7.61459,-0.01995 2.38959,0.218027 3.52589,0.21742 3.79029,-0.0021 0.27987,-0.232268 0.37773,-1.708398 0.37801,-5.702314 3e-4,-4.724034 0.0916,-5.765541 0.73992,-8.441452 0.40675,-1.678891 1.02598,-3.613988 1.37607,-4.300215 0.35008,-0.686227 1.14597,-1.921202 1.76864,-2.744385 0.62267,-0.823186 1.80724,-1.99947 2.63239,-2.613967 0.82516,-0.614497 2.0071,-1.381434 2.62654,-1.704311 0.61946,-0.322874 2.1933,-0.860979 3.49743,-1.195791 1.30413,-0.334812 7.95147,-1.60794 14.77187,-2.829176 7.64077,-1.368089 13.19845,-2.220388 14.47902,-2.220388 1.31894,0 3.03357,-0.270994 4.69276,-0.741682 1.43794,-0.407926 8.23164,-1.745676 15.0971,-2.972778 7.33715,-1.31141 13.30304,-2.231095 14.47286,-2.231095 1.09462,0 2.96882,0.203513 4.1649,0.452251 1.19609,0.248739 2.84358,0.667616 3.66109,0.930839 0.81751,0.263224 2.40214,1.081787 3.52139,1.819029 1.1421,0.75229 2.60356,2.06483 3.33078,2.991386 0.71268,0.90802 1.60102,2.293895 1.9741,3.079721 0.37309,0.785825 0.83841,1.428774 1.03405,1.428774 0.19563,0 0.42295,-0.234106 0.50515,-0.520236 0.0822,-0.28613 0.44083,-1.523548 0.79698,-2.74982 0.35615,-1.22627 0.98134,-2.898458 1.38931,-3.715972 0.40796,-0.817514 1.86579,-2.990569 3.2396,-4.829013 1.42854,-1.91168 3.22818,-3.922869 4.20388,-4.698048 0.93833,-0.745483 2.77624,-2.0672836 4.08426,-2.937336 1.30802,-0.8700524 3.18088,-1.8783224 4.16189,-2.2406003 0.98102,-0.3622779 3.45586,-1.0463034 5.49964,-1.5200565 3.03998,-0.704672 4.39333,-0.8620108 7.4394,-0.8648936 3.14649,-0.00295 4.29808,0.1366882 7.43195,0.9013512 2.03969,0.4976817 4.42781,1.2338142 5.30694,1.6358504 0.87914,0.4020363 2.48444,1.3611192 3.56734,2.1312958 1.08289,0.7701766 2.6073,1.994858 3.38754,2.721514 0.78027,0.726656 2.07509,2.206665 2.87738,3.288909 0.80233,1.082243 1.80147,2.650092 2.22037,3.484107 0.41892,0.834014 1.10929,2.837072 1.53419,4.451239 0.42487,1.614167 0.92861,3.098173 1.11937,3.297792 0.27227,0.284884 0.76204,0.232232 2.2772,-0.244809 1.0617,-0.334265 3.92149,-1.060592 6.3551,-1.614063 2.4336,-0.55347 5.77797,-1.164177 7.43194,-1.357126 1.84104,-0.214777 4.62112,-0.279141 7.16909,-0.165982 2.41779,0.107379 5.27677,0.4361 6.82231,0.784422 1.46326,0.329773 2.94817,0.599586 3.29979,0.599586 0.35162,0 1.17791,-0.390133 1.83614,-0.866964 0.65826,-0.476829 1.72668,-1.137278 2.37429,-1.467664 0.64759,-0.330386 2.25215,-0.875092 3.56565,-1.210457 1.31349,-0.335366 7.65022,-1.547766 14.08165,-2.694224 6.43144,-1.146458 12.18929,-2.084469 12.7952,-2.084469 0.60591,0 2.53703,-0.339151 4.29135,-0.753671 1.7543,-0.414519 8.42146,-1.708483 14.81591,-2.875476 9.0197,-1.646104 12.22611,-2.1187894 14.30177,-2.108352 1.89508,0.00953 3.53071,0.2387667 5.60743,0.785899 1.61255,0.424845 3.55229,1.132456 4.31053,1.572466 0.75823,0.440012 2.26392,1.695897 3.34595,2.790855 1.21795,1.232481 2.3221,2.714551 2.89861,3.890738 0.51218,1.044946 1.19582,3.103877 1.51923,4.575402 0.55484,2.524778 0.58832,3.868045 0.59441,23.844398 0.004,14.256768 -0.10342,21.907503 -0.33001,23.430924 -0.22515,1.513848 -0.23773,2.360736 -0.038,2.560459 0.19974,0.199724 1.17136,0.03209 2.93764,-0.50682 1.45154,-0.442887 2.80639,-1.013209 3.01076,-1.267381 0.25531,-0.317511 0.3716,-1.694189 0.3716,-4.399128 0,-2.372881 0.17968,-4.800977 0.45226,-6.111696 0.24872,-1.196085 0.66762,-2.843575 0.93083,-3.661089 0.26324,-0.817514 1.08031,-2.399929 1.81577,-3.516475 0.73544,-1.116548 2.0076,-2.560046 2.82706,-3.207773 0.81944,-0.647729 2.06072,-1.512222 2.75841,-1.9211 0.69771,-0.408879 2.58512,-1.065596 4.19429,-1.459373 1.60916,-0.393774 8.27675,-1.672274 14.81686,-2.84111 10.30831,-1.842284 12.20768,-2.104498 14.26933,-1.969936 1.30802,0.08538 3.44524,0.435233 4.74937,0.777465 1.30413,0.342233 2.90943,0.900074 3.56733,1.239648 0.65791,0.339578 1.89756,1.143587 2.75481,1.786687 0.85724,0.643101 2.23043,2.125861 3.05147,3.295024 0.87183,1.241436 1.74398,2.938523 2.09653,4.079514 0.33203,1.07457 0.74512,2.890188 0.91799,4.034707 0.17287,1.14452 0.37353,2.395869 0.44586,2.780775 0.11296,0.600992 0.26609,0.67969 1.08426,0.557221 0.52398,-0.07844 3.02623,-0.621947 5.56052,-1.207805 2.53429,-0.585853 5.74139,-1.204485 7.12688,-1.374734 1.38547,-0.170248 3.86381,-0.30954 5.50743,-0.30954 1.64362,0 4.06922,0.135526 5.39027,0.301172 1.32104,0.165644 4.30952,0.769578 6.64104,1.34207 2.33154,0.572494 5.12667,1.39425 6.21138,1.826124 1.0847,0.431872 2.84173,1.310903 3.9045,1.953397 1.06277,0.642492 2.97379,1.917397 4.24671,2.833117 1.27291,0.915722 3.13788,2.409258 4.14438,3.318967 1.00649,0.909708 3.05357,3.296792 4.54905,5.30463 1.49552,2.007841 3.21135,4.633324 3.81301,5.834409 0.60163,1.201086 1.41612,3.131186 1.80995,4.289115 0.39384,1.15793 1.22451,4.284768 1.84591,6.948538 l 1.12987,4.843211 v 6.688743 c 0,5.9161 -0.0746,6.98822 -0.65431,9.28114 -0.36051,1.42582 -0.86624,3.098 -1.12383,3.71598 -0.25762,0.61797 -1.00854,1.95351 -1.66871,2.96788 -0.66016,1.01437 -1.11925,1.97546 -1.02016,2.13577 0.0991,0.1603 0.90348,0.50175 1.78758,0.75876 0.88408,0.25701 2.62098,1.14518 3.85974,1.97372 1.58961,1.0632 2.63471,2.04665 3.55208,3.3425 0.7149,1.00983 1.51811,2.26584 1.78494,2.79113 0.26685,0.52528 0.81856,2.33125 1.22607,4.01325 l 0.7409,3.05818 -0.003,16.053 c -0.003,15.8553 -0.011,16.09162 -0.71358,19.18839 -0.39123,1.72446 -0.91946,3.63358 -1.1739,4.24248 -0.25441,0.6089 -1.08066,1.91035 -1.83611,2.89212 -0.75544,0.98177 -2.25431,2.45179 -3.33085,3.26674 -1.25424,0.94949 -2.66063,1.69895 -3.91547,2.08653 -1.07698,0.33264 -9.91787,2.00637 -19.6464,3.71937 -9.72853,1.71301 -20.0293,3.57171 -22.8906,4.13044 -2.8613,0.55874 -6.80767,1.22196 -8.7697,1.47383 -1.96203,0.25187 -11.00132,1.79557 -20.08736,3.43043 -9.08599,1.63487 -18.6509,3.31471 -21.25536,3.73297 -2.60442,0.41827 -8.41414,1.42872 -12.91048,2.24545 -4.49632,0.81673 -8.37579,1.54276 -8.62105,1.6134 -0.24525,0.0706 -2.38084,0.40807 -4.74574,0.74985 -2.36488,0.34178 -9.78939,1.6308 -16.49892,2.86448 -6.7095,1.23369 -13.80439,2.48589 -15.76642,2.78265 -1.96204,0.29677 -7.78125,1.28202 -12.93159,2.18944 -5.15033,0.90743 -15.58478,2.73151 -23.18767,4.0535 -7.60288,1.32199 -17.30156,3.05649 -21.55263,3.85445 -4.25108,0.79795 -9.67324,1.72583 -12.04926,2.06195 -2.37603,0.33611 -10.60319,1.74158 -18.28259,3.12327 -7.6794,1.38168 -18.31023,3.25058 -23.62407,4.15311 -5.31384,0.90253 -12.15129,2.11264 -15.19433,2.68914 -3.04304,0.57649 -6.92251,1.24422 -8.62105,1.48383 -1.69855,0.23962 -5.69688,0.90081 -8.88518,1.46932 -3.1883,0.56849 -9.87706,1.77267 -14.86389,2.67594 -4.98683,0.90327 -11.0736,1.97346 -13.52614,2.3782 -2.45254,0.40474 -9.14129,1.54211 -14.86389,2.5275 -5.7226,0.98538 -12.1683,2.06565 -14.3238,2.40062 -3.00124,0.46639 -5.26394,0.60411 -9.66153,0.5881 z m 1.24359,-9.60757 c 4.74401,-0.0966 6.14524,-0.26728 15.90436,-1.93673 5.8861,-1.00691 13.24372,-2.28211 16.35028,-2.83376 3.10654,-0.55167 6.31714,-1.09092 7.13466,-1.19832 0.81751,-0.1074 7.58654,-1.31748 15.04228,-2.68904 7.45574,-1.37156 15.45319,-2.76762 17.77212,-3.10234 2.31892,-0.33472 6.72011,-1.08294 9.78041,-1.6627 3.06031,-0.57976 9.91188,-1.79255 15.22572,-2.69509 5.31384,-0.90253 15.88206,-2.75999 23.48495,-4.1277 7.60288,-1.36771 15.42871,-2.71097 17.39075,-2.98503 1.96203,-0.27407 7.84813,-1.28269 13.08022,-2.2414 5.23209,-0.95869 15.3321,-2.75563 22.44447,-3.99318 7.11237,-1.23757 17.1455,-2.99021 22.29583,-3.89478 5.15034,-0.90456 10.96955,-1.88895 12.93159,-2.18752 1.96203,-0.29856 9.45343,-1.62648 16.64755,-2.95092 7.19413,-1.32445 14.48487,-2.59761 16.20164,-2.82926 1.71678,-0.23165 6.39891,-1.02978 10.40472,-1.77362 4.00583,-0.74385 11.631,-2.08809 16.94484,-2.98721 5.31384,-0.89912 14.47743,-2.51487 20.36353,-3.59056 5.8861,-1.0757 12.70863,-2.27181 15.16116,-2.65802 2.45255,-0.38621 5.19494,-0.79014 6.0942,-0.89762 0.89927,-0.10747 4.31053,-0.71294 7.58058,-1.34547 3.27006,-0.63253 13.30319,-2.43858 22.29584,-4.01341 10.82965,-1.89655 16.77574,-3.06641 17.61035,-3.46474 0.69304,-0.33077 1.79731,-1.21172 2.45394,-1.95766 0.6566,-0.74595 1.4237,-2.03906 1.70465,-2.87357 0.44987,-1.33622 0.52285,-3.29101 0.61171,-16.38118 0.0707,-10.41942 -0.003,-15.39504 -0.24309,-16.64024 -0.18915,-0.97699 -0.59366,-2.26584 -0.89885,-2.86411 -0.30521,-0.59826 -0.97688,-1.5097 -1.4926,-2.02542 -0.51571,-0.51571 -1.42387,-1.18356 -2.0181,-1.4841 -0.59425,-0.30055 -1.80554,-0.70018 -2.69176,-0.88807 -1.38567,-0.29378 -2.31606,-0.23366 -6.64487,0.42941 -2.76846,0.42407 -5.2018,0.70648 -5.4074,0.62759 -0.20559,-0.0789 -0.46081,-0.79027 -0.56714,-1.58083 -0.10634,-0.79057 -0.58397,-2.11865 -1.0614,-2.95131 -0.47746,-0.83266 -2.21517,-2.92482 -3.86158,-4.64926 -1.64644,-1.72444 -2.9935,-3.28391 -2.9935,-3.46549 0,-0.18158 0.0433,-0.33014 0.0962,-0.33014 0.0529,0 2.69497,-0.471 5.87124,-1.04667 3.17623,-0.57568 6.46207,-1.24386 7.30185,-1.48485 0.99101,-0.28439 2.0462,-0.90513 3.00673,-1.76871 0.88033,-0.79151 1.7309,-1.91406 2.09949,-2.77086 0.34077,-0.79217 0.75925,-2.30108 0.92995,-3.35312 0.1707,-1.05205 0.31137,-3.22494 0.31259,-4.82865 0,-1.60371 -0.14201,-3.877884 -0.31833,-5.053722 -0.17634,-1.175838 -0.71383,-3.728585 -1.19443,-5.672768 -0.48061,-1.944174 -1.39647,-4.650103 -2.03523,-6.013167 -0.63873,-1.363064 -1.87376,-3.517298 -2.74449,-4.787186 -0.87073,-1.26989 -2.58644,-3.321726 -3.81271,-4.559632 -1.22627,-1.237909 -3.33096,-3.018814 -4.67707,-3.957567 -1.34614,-0.938752 -3.56757,-2.231696 -4.93651,-2.873213 -1.36896,-0.641517 -3.87953,-1.507169 -5.57901,-1.923673 -1.69951,-0.416504 -4.45997,-0.914278 -6.13442,-1.106164 -2.3481,-0.269093 -3.77985,-0.267107 -6.26001,0.0087 -1.7686,0.196658 -5.10735,0.82206 -7.41943,1.389783 -2.31211,0.567723 -5.37271,1.503553 -6.80136,2.079624 -1.42863,0.576071 -3.54243,1.603014 -4.69731,2.282092 -1.1549,0.679077 -3.00561,1.887024 -4.11272,2.684323 -1.33106,0.958584 -2.05553,1.321087 -2.13874,1.070143 -0.0692,-0.208718 -0.18161,-4.258965 -0.2498,-9.000545 -0.0992,-6.890864 -0.22121,-8.924517 -0.60818,-10.133115 -0.26627,-0.831634 -0.88576,-2.066472 -1.3766,-2.744088 -0.49086,-0.677618 -1.39857,-1.566933 -2.01712,-1.976263 -0.61852,-0.409328 -1.99075,-0.9572 -3.04935,-1.217493 l -1.92479,-0.473257 -11.74247,2.104346 c -6.45836,1.157392 -12.45897,2.296305 -13.33469,2.530916 -0.87573,0.234611 -2.10889,0.784626 -2.7404,1.222252 -0.63148,0.437626 -1.51118,1.271627 -1.95487,1.85333 -0.44369,0.581704 -1.04993,1.93475 -1.34717,3.006769 -0.45659,1.646634 -0.54049,3.11193 -0.54049,9.44179 0,6.881011 -0.0425,7.504809 -0.52023,7.641432 -0.28613,0.08182 -2.19852,0.549902 -4.24973,1.040178 -2.05125,0.490277 -4.6582,1.240972 -5.79326,1.668211 -1.1351,0.427241 -3.17475,1.367801 -4.5326,2.090136 -1.35784,0.722334 -3.63365,2.152414 -5.05737,3.17796 -1.4237,1.025538 -3.71259,2.93684 -5.0864,4.247338 -1.37384,1.310498 -3.48672,3.620141 -4.69533,5.132544 -1.20858,1.512404 -2.27892,2.749824 -2.37849,2.749824 -0.0996,0 -0.86285,-0.636389 -1.69617,-1.414197 -0.83331,-0.7778 -2.05021,-1.839573 -2.70422,-2.359496 -0.90819,-0.721989 -1.1189,-1.045923 -0.89184,-1.371171 0.16351,-0.234222 1.07267,-1.346295 2.02034,-2.471269 0.94769,-1.124965 2.44246,-3.115597 3.32172,-4.423617 0.87923,-1.308029 2.14085,-3.438679 2.80354,-4.734786 0.66269,-1.29611 1.54206,-3.369623 1.95418,-4.607806 0.41211,-1.238186 1.11078,-3.722771 1.55259,-5.521302 l 0.80331,-3.270055 0.11115,-20.660805 c 0.082,-15.245827 0.0185,-21.089329 -0.24315,-22.295834 -0.19486,-0.899266 -0.60044,-2.120392 -0.90125,-2.713615 -0.30082,-0.593223 -1.17404,-1.630599 -1.94051,-2.30528 -0.82268,-0.724138 -2.00687,-1.408812 -2.89056,-1.671232 -0.8233,-0.244503 -2.08162,-0.444546 -2.79628,-0.444546 -0.71465,0 -6.20858,0.877064 -12.20875,1.949032 -6.00016,1.071968 -11.68343,2.14709 -12.62952,2.38916 -0.94608,0.24207 -2.15006,0.703721 -2.6755,1.025891 -0.80577,0.494049 -1.28118,0.557403 -3.03631,0.404629 -1.76484,-0.15362 -3.77427,0.119468 -13.22886,1.797878 -6.13135,1.088456 -11.85026,2.159623 -12.70871,2.380372 -0.85842,0.22075 -2.15847,0.751625 -2.88897,1.17973 -0.7305,0.4281 -1.71444,1.343772 -2.18652,2.034824 -0.47211,0.691052 -1.02575,1.769977 -1.23037,2.397616 -0.27349,0.838987 -0.50133,1.101329 -0.86047,0.990735 -0.26868,-0.08273 -1.55869,-0.619696 -2.86671,-1.193252 -1.30802,-0.573555 -3.93423,-1.3876 -5.836,-1.808992 -1.90182,-0.421388 -4.65978,-0.85148 -6.12886,-0.955759 -1.5732,-0.111667 -3.87243,-0.03838 -5.594,0.178319 -1.60762,0.202351 -4.74779,0.815998 -6.97821,1.363657 -2.23039,0.54766 -5.11339,1.413868 -6.40663,1.92491 -1.29328,0.511041 -3.19354,1.397613 -4.22284,1.970161 -1.02928,0.572545 -2.76836,1.654704 -3.86461,2.404798 -1.09624,0.750091 -2.91278,2.106412 -4.03676,3.014047 l -2.04355,1.650242 -0.70478,-0.880846 c -0.38762,-0.484465 -0.70538,-1.014621 -0.7061,-1.178124 0,-0.163502 0.27014,-1.011538 0.60193,-1.884524 0.33182,-0.872986 0.86686,-2.717573 1.18896,-4.099083 0.32214,-1.381509 0.58475,-3.476521 0.58362,-4.655587 0,-1.179063 -0.27139,-3.267181 -0.60056,-4.640265 -0.32918,-1.373085 -1.02475,-3.312822 -1.54576,-4.310529 -0.56869,-1.089016 -1.84351,-2.705125 -3.18972,-4.043664 -1.28757,-1.280207 -3.01491,-2.638478 -4.05648,-3.189731 -0.99769,-0.528043 -2.93743,-1.229394 -4.31053,-1.558557 -1.37306,-0.329163 -3.43293,-0.597833 -4.57745,-0.597046 -1.20238,8.33e-4 -3.30159,0.305265 -4.97213,0.721079 -1.59015,0.395806 -3.79744,1.201542 -4.90509,1.790525 -1.10764,0.588983 -2.85731,1.744209 -3.88815,2.567167 -1.03084,0.822958 -2.681,2.584357 -3.66704,3.914221 -0.98603,1.329863 -2.11769,3.059097 -2.51479,3.842742 -0.39711,0.783646 -1.05438,2.796722 -1.46062,4.473503 -0.43165,1.781678 -0.73877,3.928565 -0.73899,5.165841 -2.3e-4,1.257889 0.28984,3.261271 0.71472,4.936196 0.39331,1.550479 0.99023,3.358321 1.32648,4.017424 l 0.61136,1.198371 -0.90831,1.371304 c -0.49958,0.754217 -1.01752,1.438795 -1.15098,1.52128 -0.13347,0.08249 -0.89019,-0.130219 -1.68159,-0.47268 -0.79142,-0.342461 -2.84357,-0.943664 -4.56034,-1.336005 -1.74193,-0.398085 -4.04109,-0.709706 -5.20237,-0.705114 -1.14452,0.0046 -3.01737,0.190116 -4.16188,0.412414 -1.14453,0.222302 -2.18128,0.343264 -2.30391,0.268807 -0.12262,-0.07446 -0.22296,-2.750223 -0.22296,-5.946152 0,-4.304743 -0.1209,-6.284194 -0.46647,-7.637362 -0.25657,-1.004614 -0.81241,-2.331914 -1.23522,-2.949553 -0.42281,-0.61764 -1.29905,-1.512975 -1.94721,-1.989633 -0.70402,-0.517748 -2.04445,-1.070807 -3.32951,-1.373763 l -2.15107,-0.507113 -12.0085,2.135786 c -6.60467,1.174684 -12.68903,2.329068 -13.5208,2.565296 -0.92852,0.263709 -2.05057,0.903312 -2.90669,1.656905 -0.89718,0.789724 -1.57696,1.169768 -1.90639,1.065779 -0.2816,-0.08889 -1.0471,-0.365199 -1.70111,-0.614024 -0.65401,-0.248824 -1.92469,-0.458281 -2.82372,-0.465457 -0.89904,-0.0072 -6.51759,0.854879 -12.48567,1.915679 -5.96809,1.0608 -11.63132,2.132181 -12.58497,2.380845 -0.95365,0.248664 -2.3217,0.856528 -3.04012,1.350812 -0.71842,0.494281 -1.66454,1.510133 -2.1025,2.257447 -0.43795,0.747315 -0.9741,2.114243 -1.19144,3.037614 -0.29206,1.240823 -0.39636,4.645682 -0.3998,13.049737 -0.003,6.253981 -0.11991,11.370875 -0.2608,11.370875 -0.14089,0 -1.17765,-0.418428 -2.30391,-0.929838 -1.12626,-0.511409 -3.55839,-1.31189 -5.40473,-1.778841 -1.84634,-0.466952 -4.7225,-0.976165 -6.39147,-1.131579 -1.80796,-0.168361 -4.29615,-0.178798 -6.1559,-0.02584 -1.71678,0.14121 -4.52606,0.548266 -6.24284,0.904565 -1.71677,0.356303 -4.2585,0.976017 -5.64828,1.377139 -1.38976,0.401124 -3.78437,1.324061 -5.32132,2.050974 -1.53696,0.726913 -3.87801,2.04324 -5.20236,2.925174 -1.32434,0.881934 -3.34169,2.348367 -4.483,3.258742 -1.1413,0.910374 -2.17046,1.558954 -2.28701,1.441289 -0.11656,-0.117666 -0.42718,-1.284137 -0.69028,-2.592159 -0.2631,-1.308022 -0.81829,-3.646147 -1.23378,-5.195835 -0.41548,-1.549686 -1.13989,-3.665554 -1.6098,-4.701927 -0.46991,-1.036373 -1.47213,-2.813518 -2.22713,-3.949208 -0.75501,-1.13569 -2.03595,-2.790558 -2.84656,-3.67748 -0.81059,-0.886926 -2.38389,-2.287259 -3.49621,-3.111854 -1.11231,-0.824595 -2.88965,-1.905104 -3.94964,-2.401133 -1.05999,-0.496029 -3.25445,-1.250496 -4.87657,-1.67659 -2.02749,-0.53258 -4.03687,-0.821308 -6.4289,-0.923773 -1.970851,-0.08442 -4.511506,0.0018 -5.859478,0.198935 -1.308947,0.191394 -4.19553,0.805269 -6.414627,1.364172 -2.219106,0.558903 -5.161305,1.544112 -6.538215,2.189356 -1.376909,0.645241 -3.703675,1.995198 -5.170583,2.999904 -1.466907,1.004707 -3.646896,2.754109 -4.844416,3.887564 -1.19752,1.133455 -2.221693,2.062053 -2.275928,2.063557 -0.05427,0.0015 -0.881347,-0.456015 -1.838022,-1.016705 -0.956666,-0.56069 -2.686994,-1.361252 -3.84517,-1.779026 -1.158167,-0.417776 -3.428895,-1.029232 -5.04606,-1.358789 -1.617174,-0.329553 -3.938522,-0.59919 -5.158567,-0.59919 -1.220045,0 -3.406328,0.20539 -4.858388,0.456417 -1.452067,0.25103 -3.977874,0.804597 -5.612904,1.230147 -1.635021,0.42555 -4.137705,1.27284 -5.561518,1.882865 -1.423804,0.610024 -3.920446,1.995692 -5.548093,3.07926 -1.627657,1.083572 -4.050733,2.996807 -5.384623,4.251638 -1.333891,1.25483 -3.460994,3.660946 -4.726889,5.346927 -1.265895,1.685981 -2.91996,4.238286 -3.675699,5.671792 -0.755738,1.433504 -1.773464,3.810346 -2.261619,5.281871 -0.488154,1.471525 -1.265954,4.280804 -1.72844,6.242834 L 13.9076,93.133316 v 37.605634 c 0,35.43926 0.03093,37.70592 0.537653,39.34635 0.373787,1.21015 0.94979,2.18131 1.88983,3.18629 0.897325,0.95932 1.866463,1.63535 2.881038,2.00972 0.840874,0.31028 2.027355,0.65443 2.636619,0.76479 0.7906,0.14321 4.954504,-0.48665 14.543546,-2.19995 7.389681,-1.32032 14.045997,-2.53734 14.7918,-2.70449 0.745803,-0.16713 1.930228,-0.55788 2.632051,-0.86833 0.916538,-0.40543 1.922947,-0.55796 3.572143,-0.54142 1.646085,0.0165 5.872811,-0.62235 14.930402,-2.25674 6.948868,-1.25389 13.431028,-2.48499 14.404792,-2.7358 0.973764,-0.25079 2.117984,-0.63569 2.542711,-0.85532 0.465941,-0.24095 1.709193,-0.39322 3.134599,-0.38392 1.718682,0.0112 5.966938,-0.63944 15.591226,-2.38796 7.27588,-1.32186 13.9477,-2.61992 14.82628,-2.88458 1.07399,-0.32352 2.06932,-0.92261 3.03765,-1.82837 0.9766,-0.91349 1.64819,-1.88721 2.08619,-3.02468 0.48482,-1.25908 0.67753,-2.53025 0.7726,-5.0962 0.0697,-1.88028 0.18421,-3.59593 0.25454,-3.81256 0.095,-0.29241 0.53011,-0.16977 1.6894,0.47611 0.85882,0.47848 2.29725,1.15266 3.19651,1.49818 0.89927,0.34553 2.98027,0.96313 4.62446,1.37245 1.64418,0.40933 4.25279,0.88894 5.79691,1.06581 1.54412,0.17688 3.81081,0.23936 5.03708,0.13886 1.22627,-0.10049 3.36667,-0.38132 4.75644,-0.62407 1.38978,-0.24274 3.59706,-0.7229 4.90509,-1.06702 1.30802,-0.34412 3.08489,-0.94542 3.9486,-1.33623 0.86371,-0.39082 2.93723,-0.96066 4.60781,-1.26633 2.05504,-0.376 3.15348,-0.45955 3.39626,-0.25832 0.27488,0.22783 0.3827,7.57685 0.4608,31.41145 l 0.10196,31.11403 0.82522,3.71597 c 0.45386,2.04379 1.21258,4.88284 1.68605,6.30898 0.47347,1.42616 1.25148,3.3659 1.7289,4.31053 0.47744,0.94464 1.63073,2.78772 2.56286,4.09574 0.93215,1.30803 2.25094,2.95782 2.93065,3.6662 0.67971,0.70838 2.30604,2.06247 3.61406,3.0091 1.30802,0.94661 3.18558,2.12697 4.17236,2.62301 0.98678,0.49604 2.7428,1.19002 3.90226,1.5422 1.15947,0.35218 3.29515,0.89769 4.74597,1.21225 2.18308,0.47334 3.53475,0.55367 7.84022,0.46596 z M 366.35664,109.63221 c -0.13624,0 -1.04312,-0.63543 -2.01531,-1.41207 -0.97218,-0.77663 -2.2592,-1.7465 -2.85999,-2.15526 -0.60083,-0.40876 -1.0933,-0.8607 -1.09443,-1.00433 0,-0.14362 0.86103,-1.17601 1.9159,-2.29421 1.44483,-1.53159 2.03145,-2.41544 2.37822,-3.583125 0.25316,-0.852511 0.4603,-2.194626 0.4603,-2.982462 0,-0.787836 0.10034,-1.431136 0.22297,-1.429543 0.12262,0.0017 1.07477,0.945543 2.11586,2.097693 1.04113,1.152142 2.61299,2.638439 3.49302,3.302887 0.88007,0.66445 1.6001,1.3448 1.6001,1.51191 0,0.1671 -0.57981,0.98713 -1.2885,1.82227 -0.70867,0.83514 -2.05169,2.55519 -2.98448,3.82234 -0.93277,1.26715 -1.80745,2.3039 -1.94366,2.3039 z"
       id="path418" />
      </g></g></svg>
