<?xml version="1.0" encoding="UTF-8" standalone="no"?>

<svg
   width="128"
   height="64"
   viewBox="0 0 582 250"
   version="1.1"
   id="svg5"
   xml:space="preserve"
   xmlns="http://www.w3.org/2000/svg"
   xmlns:svg="http://www.w3.org/2000/svg"><defs
     id="defs2" /><g
     id="layer1"><g
       id="g2197"
       transform="matrix(0.84267719,0,0,0.84267719,357.85803,78.568246)"><path
         style="fill:#990303;stroke-width:0.352778"
         d="m -180.79861,178.86745 c -3.1636,0.10043 -5.60812,-0.0106 -7.28127,-0.33068 -1.38532,-0.26502 -3.13157,-0.67814 -3.88055,-0.91804 -0.74899,-0.2399 -2.58365,-1.06503 -4.07704,-1.83362 -1.49338,-0.76859 -3.76519,-2.35953 -5.04847,-3.53541 -1.28327,-1.17589 -2.93662,-3.02791 -3.67411,-4.1156 -0.73749,-1.08769 -1.74123,-2.77137 -2.23054,-3.74151 -0.48931,-0.97014 -1.30638,-3.08602 -1.81571,-4.70196 -0.50933,-1.61594 -1.18978,-4.39406 -1.51211,-6.17361 -0.51691,-2.85378 -0.60285,-7.82413 -0.72837,-42.1251 l -0.14231,-38.889559 0.81954,-0.3377 c 0.45075,-0.18574 7.62073,-1.53733 15.93329,-3.00354 8.31256,-1.46622 15.23218,-2.59264 15.37694,-2.50318 0.14476,0.0895 0.36292,16.08386 0.48479,35.543099 0.19019,30.36752 0.29921,35.67397 0.76943,37.45218 0.30131,1.13945 0.87282,2.52814 1.27003,3.08596 0.3972,0.55782 1.06961,1.10142 1.49424,1.20799 0.42464,0.10658 6.64503,-0.83703 13.82311,-2.09692 7.17808,-1.25988 17.25793,-3.01982 22.39966,-3.91098 5.14174,-0.89116 17.52424,-3.04978 27.51667,-4.79693 9.99243,-1.74716 26.81993,-4.6851 37.394444,-6.52875 10.574516,-1.84366 27.322636,-4.76902 37.218056,-6.50082 9.89542,-1.73179 28.07229,-4.90463 40.39306,-7.05076 12.32076,-2.14613 28.67201,-4.99986 36.33611,-6.34161 7.66409,-1.34176 16.79222,-2.93253 20.28472,-3.53506 3.4925,-0.60253 15.875,-2.76016 27.51667,-4.794739 11.64166,-2.03457 29.34229,-5.12518 39.33472,-6.86802 9.99243,-1.74284 27.21681,-4.7516 38.27639,-6.68614 11.05958,-1.93453 28.68083,-5.01124 39.15833,-6.83712 10.4775,-1.82587 22.51474,-3.92064 26.74945,-4.65504 6.56766,-1.13898 7.74661,-1.26072 8.0203,-0.8282 0.1803,0.28497 0.32321,7.5651 0.32624,16.62145 0.005,14.183809 -0.061,16.180799 -0.54895,16.668749 -0.30491,0.3049 -0.71321,0.55436 -0.90735,0.55436 -0.19413,0 -6.17558,1.02257 -13.29214,2.27238 -7.11658,1.2498 -18.97171,3.31988 -26.34477,4.60016 -7.37306,1.28029 -24.20056,4.21851 -37.39444,6.52938 -13.19389,2.31088 -31.84702,5.56705 -41.45139,7.23596 -9.60438,1.6689 -24.60625,4.28843 -33.3375,5.82117 -8.73125,1.53274 -22.38375,3.91427 -30.33889,5.29228 -7.95514,1.37802 -22.08389,3.83917 -31.39723,5.46923 -9.31333,1.63006 -22.96583,4.01191 -30.33889,5.293 -7.37305,1.28109 -22.37493,3.90029 -33.3375,5.82044 -10.96257,1.92015 -27.31382,4.77452 -36.336107,6.34305 -9.022292,1.56854 -24.500417,4.27197 -34.395833,6.00763 -9.89542,1.73567 -26.24667,4.59961 -36.33611,6.36432 -10.08945,1.76471 -20.96382,3.68062 -24.16528,4.25759 -3.84185,0.69237 -7.44,1.10043 -10.58333,1.20022 z m 40.04027,-43.71392 c -3.89159,0.10382 -5.57474,-0.008 -7.9375,-0.52734 -1.64923,-0.3625 -4.03048,-1.09456 -5.29166,-1.62679 -1.26118,-0.53222 -3.38398,-1.673 -4.71733,-2.53504 -1.33334,-0.86205 -3.29721,-2.39148 -4.36415,-3.39873 -1.06694,-1.00726 -2.61611,-2.78388 -3.44261,-3.94804 -0.82649,-1.16417 -1.93954,-2.98623 -2.47343,-4.04902 -0.53389,-1.06279 -1.27515,-2.80904 -1.64723,-3.88055 -0.37209,-1.07152 -0.91656,-3.05946 -1.20993,-4.41765 -0.29338,-1.3582 -0.61881,-4.45382 -0.72319,-6.87917 -0.13475,-3.13115 -0.0255,-5.480629 0.3769,-8.103239 0.31168,-2.03143 0.96437,-4.99729 1.45042,-6.59081 0.48605,-1.59351 1.36309,-3.96572 1.94899,-5.27157 0.58589,-1.30585 1.84459,-3.65811 2.79711,-5.22724 0.95251,-1.56914 2.77042,-4.14524 4.03978,-5.72467 1.26937,-1.57944 3.46164,-3.94256 4.87172,-5.25138 1.41008,-1.30883 3.67503,-3.16651 5.03323,-4.12817 1.35819,-0.96166 3.70723,-2.37439 5.22008,-3.13938 1.51286,-0.765 4.13223,-1.85028 5.82084,-2.41174 1.6886,-0.56146 4.34019,-1.28179 5.89241,-1.60074 1.55222,-0.31895 4.8066,-0.66811 7.23194,-0.77591 2.59104,-0.11516 5.45801,-0.0316 6.95148,0.20266 1.39796,0.21926 3.77921,0.79114 5.29167,1.27084 1.51245,0.4797 3.7615,1.47156 4.9979,2.20413 1.23639,0.73257 3.26075,2.25909 4.49858,3.39228 1.23783,1.13319 3.04631,3.2724 4.01884,4.75382 0.97253,1.4814 2.233071,3.89882 2.801202,5.37203 0.568127,1.47321 1.386053,4.25524 1.81761,6.18229 0.754355,3.36846 0.79013,4.33982 0.926588,25.157649 0.07807,11.90964 0.01196,21.78045 -0.146935,21.93511 -0.158881,0.15467 -6.222695,1.34057 -13.475125,2.63533 -10.77166,1.92303 -13.24157,2.26681 -13.48835,1.87738 -0.16615,-0.2622 -0.30453,-8.7426 -0.3075,-18.84534 -0.005,-15.711849 -0.0861,-18.640389 -0.56344,-20.247709 -0.30691,-1.0335 -0.96914,-2.50033 -1.47161,-3.25961 -0.50247,-0.75929 -1.61482,-1.79147 -2.4719,-2.29375 -1.25992,-0.73837 -2.01431,-0.91324 -3.93961,-0.91324 -1.81015,0 -2.85759,0.21805 -4.36713,0.90915 -1.09222,0.50003 -2.78605,1.65765 -3.76408,2.57247 -1.05032,0.98246 -2.22938,2.57975 -2.88036,3.90208 -0.79052,1.60577 -1.14986,2.91293 -1.27093,4.62316 -0.0928,1.31142 0.007,3.035109 0.22252,3.830419 0.21522,0.79531 0.75261,1.98216 1.1942,2.63744 0.44159,0.65528 1.33903,1.55272 1.99431,1.99431 0.65528,0.44159 1.84213,0.98252 2.63744,1.20206 1.05432,0.29105 2.06036,0.29649 3.71393,0.0201 1.24735,-0.20849 3.2102,-0.873 4.36188,-1.4767 1.15168,-0.6037 2.13481,-1.04964 2.18474,-0.99099 0.0499,0.0587 0.20337,6.32473 0.34099,13.92462 0.24367,13.45689 0.23203,13.83615 -0.44549,14.51367 -0.41506,0.41506 -2.02755,1.01318 -3.99731,1.48273 -2.3419,0.55826 -4.73723,0.82534 -8.2405,0.91879 z m 49.859616,-9.9554 c -0.323187,0.072 -0.75975,-0.0412 -0.970139,-0.25163 -0.272528,-0.27252 -0.382528,-22.66737 -0.382528,-77.879879 0,-61.573335 0.09061,-77.570318 0.440973,-77.852431 0.242534,-0.195287 6.235347,-1.386522 13.317361,-2.647188 8.875427,-1.579911 13.013407,-2.182082 13.317357,-1.937984 0.35038,0.281368 0.44098,16.283132 0.44098,77.878853 0,61.598359 -0.0906,77.596439 -0.44098,77.873879 -0.24253,0.19204 -5.99722,1.32483 -12.788191,2.51732 -6.790972,1.19249 -12.611646,2.22707 -12.934833,2.29906 z m 57.914004,-9.35858 c -1.45521,-0.0231 -3.46897,-0.16228 -4.47499,-0.30937 -1.00605,-0.14709 -2.98482,-0.61846 -4.3973,-1.04749 -1.41246,-0.42903 -3.52623,-1.26248 -4.69724,-1.85211 -1.17098,-0.58964 -2.84346,-1.55716 -3.71658,-2.15006 -0.87313,-0.59289 -2.67678,-2.1196 -4.00809,-3.39268 -1.33131,-1.27308 -3.12095,-3.29255 -3.977,-4.48771 -0.85602,-1.19516 -2.10813,-3.367189 -2.7825,-4.826749 -0.67434,-1.45955 -1.55522,-3.97419 -1.9575,-5.58809 -0.47819,-1.91864 -0.79989,-4.65779 -0.92932,-7.91322 -0.15099,-3.79798 -0.0548,-5.84791 0.40559,-8.64305 0.33193,-2.01532 1.06193,-5.0458 1.62221,-6.7344 0.56028,-1.68861 1.67944,-4.38735 2.48705,-5.99722 0.80758,-1.60987 2.44031,-4.35383 3.62825,-6.09769 1.18794,-1.74386 3.82679,-4.84659 5.86408,-6.89497 2.20504,-2.21702 5.02359,-4.60317 6.96422,-5.89582 1.79307,-1.19432 4.44846,-2.73543 5.90092,-3.42468 1.45246,-0.68925 3.84951,-1.64773 5.32677,-2.12997 1.47729,-0.48223 3.98127,-1.15651 5.5644,-1.4984 2.00197,-0.43234 4.38224,-0.61771 7.8173,-0.6088 3.53904,0.009 5.57672,0.1854 7.18926,0.62172 1.23772,0.3349 3.18696,0.98721 4.33169,1.44959 1.14473,0.46237 2.9646,1.37322 4.04414,2.02411 1.07957,0.65089 3.02863,2.07806 4.33126,3.17148 1.3026,1.09343 3.25628,3.15718 4.34146,4.58611 1.08522,1.42894 2.54364,3.74292 3.24097,5.14218 0.69734,1.39927 1.66935,3.92959 2.16006,5.62294 0.49072,1.69335 0.96033,3.14691 1.04355,3.23015 0.0832,0.0832 0.22977,-0.22459 0.32562,-0.68405 0.0959,-0.45946 0.27365,-1.62913 0.39507,-2.59927 0.12143,-0.97014 0.52741,-2.98265 0.90216,-4.47226 0.37479,-1.4896 1.2386,-4.0296 1.91957,-5.64444 0.681,-1.61484 1.81847,-3.88857 2.52772,-5.05274 0.70923,-1.16417 2.28643,-3.40467 3.50489,-4.9789 1.21846,-1.57423 3.29071,-3.84761 4.60505,-5.05196 1.31435,-1.20434 3.45659,-2.89899 4.76056,-3.76587 1.30401,-0.86689 3.59153,-2.14012 5.08339,-2.82941 1.49186,-0.68928 4.23947,-1.66392 6.10581,-2.16586 2.92964,-0.7879 4.14051,-0.91609 8.86139,-0.93809 5.11863,-0.0238 5.66765,0.04 8.59186,0.99837 1.79289,0.58763 4.19771,1.72722 5.64445,2.67479 1.38634,0.90802 3.47976,2.67996 4.65204,3.93764 1.22093,1.30988 2.77527,3.52424 3.63866,5.18375 0.82896,1.59338 1.8875,4.39626 2.35232,6.22861 0.46482,1.83236 1.01025,4.94065 1.21204,6.90732 0.20948,2.0411 0.36696,12.49592 0.36696,24.35983 v 20.78407 l -0.79375,0.32333 c -0.43656,0.17784 -6.27062,1.28631 -12.96458,2.46328 -6.69396,1.17697 -12.43168,2.139319 -12.75045,2.138549 -0.31881,-7.1e-4 -0.67599,-0.252499 -0.79375,-0.559419 -0.11779,-0.30691 -0.21414,-10.35032 -0.21414,-22.31869 0,-20.50656 -0.0377,-21.83153 -0.65359,-22.9899 -0.45307,-0.85209 -1.07541,-1.37741 -2.02847,-1.71223 -1.11132,-0.39041 -1.67513,-0.40126 -2.94107,-0.0566 -0.87278,0.23762 -2.06714,0.92737 -2.69766,1.55789 -0.62234,0.62231 -1.3057,1.75903 -1.51864,2.52603 -0.26186,0.94322 -0.38784,8.50432 -0.38915,23.36254 l -0.004,21.967979 -0.79375,0.32865 c -0.43657,0.18077 -6.22269,1.28861 -12.85805,2.46189 -6.6354,1.17327 -12.37308,2.13322 -12.75048,2.13322 -0.37737,0 -0.7825,-0.25111 -0.90026,-0.55802 -0.11779,-0.30691 -0.21413,-7.080239 -0.21413,-15.051849 0,-7.97161 -0.0798,-14.41404 -0.17731,-14.31651 -0.0975,0.0975 -0.65899,1.90992 -1.2477,4.02754 -0.58872,2.11763 -1.92201,5.59648 -2.96291,7.73079 -1.04091,2.1343 -2.9004,5.3093 -4.13219,7.05555 -1.2318,1.74625 -3.90649,4.842019 -5.94378,6.879479 -2.03729,2.03746 -4.93564,4.54807 -6.44074,5.57913 -1.50512,1.03106 -4.36262,2.64881 -6.35,3.59501 -1.9874,0.9462 -4.80405,2.05263 -6.25926,2.45874 -1.45521,0.4061 -4.15396,0.97009 -5.99722,1.25329 -1.84327,0.2832 -4.54202,0.49604 -5.99723,0.47298 z m 7.17507,-28.590499 c 0.93885,-0.14221 2.40006,-0.59407 3.24715,-1.00413 0.84705,-0.41005 2.39359,-1.66742 3.43672,-2.79413 1.04313,-1.12672 2.27789,-2.82262 2.74384,-3.76867 0.73085,-1.4838 0.84808,-2.23253 0.85347,-5.45056 0.006,-3.54158 -0.0478,-3.81798 -1.0614,-5.45873 -0.66347,-1.07394 -1.72205,-2.13247 -2.79612,-2.79591 -1.5719,-0.97096 -2.00243,-1.06766 -4.75318,-1.06766 -2.6832,0 -3.2348,0.11639 -4.88531,1.03082 -1.0233,0.56696 -2.58222,1.80234 -3.46424,2.7453 -0.88201,0.94295 -2.02406,2.62221 -2.53788,3.73167 -0.66054,1.42625 -0.97497,2.77294 -1.07333,4.5969 -0.0778,1.44249 0.0545,3.27135 0.30015,4.14868 0.24161,0.86295 1.07138,2.2871 1.84397,3.16478 0.77254,0.87768 1.90242,1.85856 2.51079,2.17973 0.60836,0.32116 1.74113,0.67766 2.51724,0.79221 0.77611,0.11455 2.17929,0.0919 3.11813,-0.0503 z m -393.90776,-2.31966 c -0.0514,12.27226 -0.0935,2.23132 -0.0935,-22.31319 0,-24.54451 0.0421,-34.58545 0.0935,-22.31319 0.0514,12.27225 0.0514,32.35413 0,44.62638 z m 11.64164,2.11667 c -0.0519,10.33198 -0.0944,1.87854 -0.0944,-18.78542 0,-20.66395 0.0425,-29.11739 0.0944,-18.78541 0.0519,10.33198 0.0519,27.23885 0,37.57083 z m 10.9518,18.256249 c -0.4889,0 -0.57512,-4.06281 -0.81409,-38.364579 -0.147,-21.10052 -0.1717,-40.58708 -0.0549,-43.30347 0.11681,-2.71639 0.46434,-6.26123 0.77228,-7.87741 0.30794,-1.61619 1.01576,-4.27882 1.57294,-5.91697 0.55717,-1.63814 1.67454,-4.205178 2.48304,-5.70453 0.80849,-1.499351 2.24497,-3.771808 3.19217,-5.0499 0.9472,-1.278093 3.04165,-3.590555 4.65435,-5.138805 1.61269,-1.54825 4.27451,-3.641083 5.91514,-4.65074 1.64064,-1.009653 4.25436,-2.327733 5.80827,-2.929064 1.55392,-0.601328 4.25405,-1.392612 6.0003,-1.758407 1.92087,-0.402375 4.66355,-0.670669 6.94348,-0.679228 2.37179,-0.0089 4.58403,0.197189 5.96901,0.55607 1.2103,0.313619 3.16573,1.054925 4.34541,1.647342 1.17969,0.592419 3.09738,1.855096 4.26155,2.805948 1.16416,0.950856 2.83104,2.66773 3.70416,3.815281 0.87313,1.147547 1.82563,2.088247 2.11667,2.090438 0.29104,0.0021 1.36065,-1.311092 2.37691,-2.918411 1.01626,-1.607315 2.87242,-4.123298 4.12479,-5.591069 1.25236,-1.467771 3.42839,-3.569547 4.8356,-4.670615 1.40722,-1.101069 3.99607,-2.699103 5.753,-3.551185 1.75693,-0.852085 4.6682,-1.941798 6.46949,-2.42159 1.80129,-0.479788 4.81754,-1.057116 6.70278,-1.282947 1.88524,-0.225831 4.53896,-0.305393 5.89715,-0.176802 1.3582,0.128592 3.42195,0.475615 4.58611,0.771166 1.16417,0.29555 3.18523,1.097551 4.49125,1.782226 1.59696,0.837201 3.17906,2.091774 4.83119,3.831032 1.75102,1.843377 2.8702,3.440667 3.89664,5.561281 0.79202,1.636314 1.81677,4.462889 2.27722,6.281279 0.46044,1.818389 1.00273,4.734912 1.20507,6.481162 0.22883,1.97485 0.40706,18.738758 0.4715,44.348988 0.0673,26.75524 -0.0182,41.28395 -0.24436,41.48799 -0.19137,0.17269 -7.37164,1.5553 -15.95614,3.07245 -8.5845,1.51715 -15.72825,2.63844 -15.875,2.49176 -0.14675,-0.14668 -0.34619,-17.91445 -0.4432,-39.48394 -0.16265,-36.1613 -0.22348,-39.30326 -0.7807,-40.32103 -0.33237,-0.60707 -0.8613,-1.20239 -1.17538,-1.32291 -0.31409,-0.12053 -0.97066,-0.21914 -1.45904,-0.21914 -0.48838,0 -1.4254,0.25503 -2.08226,0.56672 -0.65685,0.3117 -1.52375,1.09982 -1.92643,1.75137 -0.40268,0.65156 -0.90531,1.70622 -1.11694,2.3437 -0.27074,0.8155 -0.35754,12.56031 -0.29285,39.62454 0.0767,32.09647 0.0125,38.5279 -0.38792,38.84245 -0.26393,0.20733 -7.50234,1.61934 -16.08535,3.13782 -8.58301,1.51847 -15.67007,2.69249 -15.74901,2.60894 -0.0789,-0.0836 -0.24749,-17.45568 -0.37456,-38.60471 -0.14919,-24.82923 -0.363,-39.04844 -0.6035,-40.13405 -0.2223,-1.00352 -0.67378,-1.89234 -1.11997,-2.20486 -0.41114,-0.28797 -1.19889,-0.52359 -1.75056,-0.52359 -0.55166,0 -1.34978,0.17815 -1.77358,0.39589 -0.42381,0.21773 -1.21295,0.80863 -1.75364,1.31311 -0.56441,0.52661 -1.23446,1.74772 -1.57337,2.86731 -0.53928,1.78155 -0.58067,5.24405 -0.47894,40.06413 0.0928,31.75455 0.0316,38.17684 -0.3669,38.49035 -0.26305,0.20696 -7.31688,1.589699 -15.67518,3.072749 -8.35831,1.48306 -15.44298,2.69646 -15.74372,2.69646 z M 111.47298,90.264891 c -1.93763,0.0967 -4.63423,0.0269 -5.99242,-0.15505 -1.3582,-0.18198 -3.57287,-0.66236 -4.9215,-1.06752 -1.3486,-0.40516 -3.67094,-1.34951 -5.16072,-2.09855 -1.48974,-0.74904 -3.90902,-2.32754 -5.37615,-3.50778 -1.46714,-1.18025 -3.46238,-3.14485 -4.43393,-4.36579 -0.97151,-1.22094 -2.39578,-3.3985 -3.16498,-4.83903 -0.76919,-1.44052 -1.79359,-3.88914 -2.27644,-5.44136 -0.48284,-1.55222 -1.07523,-4.39513 -1.31642,-6.31758 -0.27429,-2.1863 -0.35133,-4.96082 -0.20567,-7.40833 0.12806,-2.15214 0.53343,-5.26235 0.90082,-6.91159 0.36741,-1.64923 1.151,-4.3181 1.74134,-5.93082 0.59034,-1.61272 1.81187,-4.28712 2.71456,-5.94311 0.90268,-1.656 2.79961,-4.54863 4.21537,-6.42807 1.41577,-1.87944 4.14899,-4.92879 6.07388,-6.77632 1.92487,-1.84753 4.6281,-4.10928 6.00718,-5.0261 1.37911,-0.91682 3.98755,-2.36806 5.79652,-3.22499 1.80898,-0.85692 4.87603,-1.95981 6.81567,-2.45085 1.93961,-0.49104 4.87595,-1.03146 6.52519,-1.20092 1.64923,-0.16946 3.19705,-0.23541 3.43958,-0.14656 0.34343,0.12582 0.44097,3.50925 0.44097,15.29326 0,8.32244 -0.13045,15.1317 -0.28994,15.1317 -0.15946,0 -1.04264,-0.25647 -1.96265,-0.56994 -1.06719,-0.36364 -2.40072,-0.5173 -3.68392,-0.42448 -1.12867,0.0816 -2.78295,0.51791 -3.76999,0.99422 -0.96732,0.4668 -2.49978,1.60749 -3.40543,2.53486 -0.90569,0.92737 -2.09593,2.60176 -2.64499,3.72087 -0.76892,1.56721 -1.02711,2.65772 -1.12367,4.74594 -0.10693,2.31239 0.005,2.99636 0.76218,4.64984 0.5958,1.30141 1.37061,2.2886 2.35722,3.00329 0.80832,0.58554 2.03521,1.25127 2.72645,1.4794 0.72506,0.23929 2.27467,0.34195 3.66268,0.24263 1.61424,-0.11549 3.0384,-0.4816 4.32823,-1.11266 1.05731,-0.5173 2.48535,-1.56366 3.17337,-2.32524 0.68806,-0.76159 1.57614,-2.02202 1.97355,-2.80096 0.39737,-0.77894 0.99956,-2.3339 1.33819,-3.45548 0.56691,-1.87775 0.61567,-4.66982 0.61567,-35.25898 0,-18.270858 0.0881,-33.307947 0.19586,-33.415753 0.1077,-0.107808 6.04365,-1.240705 13.191,-2.517549 7.14735,-1.276844 13.20973,-2.239193 13.47202,-2.138549 0.39348,0.150999 0.49265,4.717792 0.5673,26.124146 0.0541,15.509755 0.22126,25.950035 0.41575,25.963235 0.17889,0.0121 0.75011,-1.13882 1.26936,-2.55769 0.51926,-1.41886 1.43235,-3.54346 2.02911,-4.72133 0.59676,-1.17786 2.07941,-3.63849 3.29473,-5.46805 1.38236,-2.08098 3.73698,-4.85444 6.28869,-7.4073 2.33715,-2.33823 5.28412,-4.870987 6.90118,-5.93124 1.55222,-1.017728 4.09222,-2.458349 5.64444,-3.201381 1.55223,-0.743031 4.15005,-1.768055 5.77296,-2.277833 1.62292,-0.509781 4.40105,-1.179071 6.17362,-1.487314 2.3436,-0.407543 4.52218,-0.511585 7.98537,-0.381357 3.36818,0.126651 5.51942,0.398675 7.34787,0.929129 1.42197,0.412524 3.5651,1.240998 4.7625,1.841048 1.19743,0.600054 3.12963,1.768048 4.29379,2.595542 1.16417,0.827496 2.99816,2.435965 4.07558,3.574379 1.07738,1.138411 2.44535,2.784217 3.03988,3.657337 0.59457,0.87313 1.57692,2.5723 2.18303,3.77593 0.6061,1.20363 1.5023,3.56965 1.9915,5.25782 0.48919,1.68816 1.03314,4.72383 1.20872,6.74593 0.17558,2.02209 0.22973,4.86016 0.1203,6.30682 -0.1094,1.44666 -0.37405,2.73857 -0.58812,2.87091 -0.21406,0.13233 -9.43797,1.857 -20.49755,3.8326 -13.14295,2.34774 -20.25118,3.47578 -20.52073,3.25652 -0.2268,-0.1845 -0.60061,-1.4514 -0.83065,-2.81532 -0.2328,-1.38027 -0.31525,-3.36606 -0.18588,-4.47845 0.12781,-1.09923 0.46256,-2.81902 0.7439,-3.82175 0.49989,-1.78164 0.54966,-1.83103 2.18578,-2.16855 0.92082,-0.18996 3.78724,-0.7084 6.36979,-1.15208 2.58254,-0.44368 4.95342,-0.99529 5.26866,-1.22579 0.52719,-0.38549 0.52229,-0.55227 -0.0612,-2.08002 -0.34886,-0.91351 -1.1581,-2.18471 -1.79825,-2.82489 -0.74884,-0.74883 -1.7726,-1.30881 -2.87048,-1.5701 -1.23197,-0.2932 -2.24264,-0.30358 -3.63449,-0.0373 -1.06035,0.20285 -2.6028,0.69551 -3.42766,1.09482 -0.82487,0.3993 -2.29094,1.5917 -3.25794,2.64977 -0.96704,1.05807 -2.24356,2.91181 -2.83676,4.11943 -0.59316,1.20762 -1.33096,3.38629 -1.6395,4.8415 -0.40492,1.90983 -0.51061,3.72531 -0.37987,6.52639 0.0996,2.1343 0.43409,4.69827 0.74327,5.69769 0.30921,0.99943 1.07664,2.5819 1.7054,3.51661 0.62879,0.93471 1.82121,2.17344 2.64982,2.75272 1.19521,0.83557 1.97291,1.08294 3.76315,1.19693 1.86771,0.11893 2.59613,-0.0118 4.22698,-0.7584 1.08374,-0.49615 2.8188,-1.70443 3.85569,-2.68507 1.03688,-0.98064 2.03214,-1.78298 2.2117,-1.78298 0.17957,0 3.69221,3.56991 7.80585,7.93313 4.34135,4.60478 7.40431,8.12865 7.30048,8.39916 -0.0984,0.25631 -1.32443,1.42225 -2.72464,2.59097 -1.40017,1.16872 -3.56425,2.81036 -4.80907,3.64809 -1.24477,0.83773 -3.62602,2.19713 -5.29166,3.02088 -1.66561,0.82375 -4.321,1.90325 -5.90081,2.39888 -1.57985,0.49564 -4.67547,1.16692 -6.87917,1.49173 -2.63666,0.38863 -5.09242,0.52525 -7.18174,0.39954 -1.74625,-0.10506 -4.36563,-0.45896 -5.82084,-0.78643 -1.4552,-0.32748 -3.97037,-1.21033 -5.58923,-1.96187 -1.6189,-0.75155 -3.92077,-2.06605 -5.11528,-2.9211 -1.19454,-0.85505 -3.14364,-2.56964 -4.33137,-3.81018 -1.1877,-1.24055 -2.75286,-3.18321 -3.47818,-4.31704 -0.72531,-1.13382 -1.70296,-2.93031 -2.17258,-3.99221 -0.46962,-1.06189 -1.13474,-2.95609 -1.47803,-4.20932 -0.34332,-1.25323 -0.77516,-2.25077 -0.95963,-2.21677 -0.18446,0.034 -0.69673,1.42291 -1.13834,3.08645 -0.44161,1.66353 -1.33981,4.3415 -1.99602,5.95104 -0.6562,1.60954 -1.77225,3.96209 -2.48013,5.2279 -0.70788,1.2658 -2.22649,3.54817 -3.37467,5.07192 -1.14819,1.52376 -3.44057,4.05117 -5.09422,5.61648 -1.65361,1.5653 -4.44863,3.81057 -6.21115,4.98948 -1.76247,1.17891 -4.50144,2.75632 -6.08658,3.50536 -1.58517,0.74903 -3.91622,1.70044 -5.18015,2.11425 -1.26397,0.41381 -3.48862,0.98016 -4.94369,1.25857 -1.45507,0.2784 -4.23093,0.5853 -6.1686,0.682 z m -360.18132,-17.20025 c -3.89159,0.10382 -5.57474,-0.008 -7.9375,-0.52734 -1.64923,-0.3625 -4.03048,-1.09455 -5.29166,-1.62678 -1.26118,-0.53223 -3.38398,-1.67301 -4.71733,-2.53505 -1.33334,-0.86205 -3.29721,-2.39148 -4.36415,-3.39873 -1.06694,-1.00726 -2.61611,-2.78387 -3.44261,-3.94804 -0.8265,-1.16417 -1.93954,-2.98623 -2.47343,-4.04901 -0.5339,-1.0628 -1.27515,-2.80905 -1.64723,-3.88056 -0.37209,-1.07152 -0.91656,-3.05946 -1.20993,-4.41765 -0.29338,-1.3582 -0.61881,-4.45382 -0.72319,-6.87917 -0.13475,-3.13115 -0.0255,-5.48063 0.3769,-8.10323 0.31168,-2.03144 0.96436,-4.9973 1.45041,-6.59082 0.48606,-1.59351 1.3631,-3.96572 1.949,-5.27157 0.58589,-1.30584 1.84459,-3.6581 2.79711,-5.22724 0.95251,-1.56914 2.77041,-4.14524 4.03978,-5.72467 1.26936,-1.57943 3.46164,-3.942553 4.87172,-5.25138 1.41008,-1.30883 3.67503,-3.166505 5.03322,-4.128167 1.3582,-0.961665 3.70724,-2.374388 5.22009,-3.139383 1.51285,-0.764995 4.13223,-1.850274 5.82084,-2.411734 1.6886,-0.561463 4.34019,-1.281796 5.89241,-1.600743 1.55222,-0.31895 4.8066,-0.668108 7.23194,-0.775906 2.59104,-0.115165 5.45801,-0.03157 6.95148,0.202656 1.39796,0.219262 3.77921,0.79114 5.29166,1.27084 1.51246,0.479704 3.76151,1.47156 4.99791,2.204127 1.23639,0.732572 3.26075,2.259097 4.49858,3.392283 1.23783,1.133186 3.04631,3.272402 4.01884,4.753815 0.97253,1.481409 2.23307,3.898822 2.8012,5.372032 0.56813,1.47321 1.38605,4.25524 1.81761,6.1823 0.75436,3.36845 0.79013,4.33981 0.92659,25.15764 0.0781,11.90964 0.012,21.78045 -0.14694,21.93512 -0.15888,0.15466 -6.22269,1.34056 -13.47512,2.63532 -10.77166,1.92303 -13.24157,2.26681 -13.48835,1.87738 -0.16615,-0.2622 -0.30453,-8.7426 -0.3075,-18.84533 -0.005,-15.71186 -0.0861,-18.6404 -0.56344,-20.24772 -0.30691,-1.0335 -0.96914,-2.50033 -1.47161,-3.25961 -0.50247,-0.75928 -1.61482,-1.79147 -2.4719,-2.29375 -1.25992,-0.73836 -2.01431,-0.91324 -3.93961,-0.91324 -1.81015,0 -2.85759,0.21806 -4.36713,0.90915 -1.09222,0.50003 -2.78605,1.65765 -3.76408,2.57247 -1.05032,0.98246 -2.22938,2.57976 -2.88036,3.90209 -0.79052,1.60576 -1.14986,2.91292 -1.27093,4.62315 -0.0928,1.31142 0.007,3.03511 0.22252,3.83042 0.21522,0.79531 0.75261,1.98216 1.1942,2.63744 0.44159,0.65528 1.33903,1.55272 1.99431,1.99431 0.65528,0.44159 1.84213,0.98252 2.63744,1.20207 1.05432,0.29104 2.06036,0.29648 3.71393,0.0201 1.24735,-0.20848 3.21019,-0.873 4.36188,-1.47669 1.15168,-0.6037 2.13481,-1.04965 2.18474,-0.99099 0.0499,0.0587 0.20337,6.32472 0.34099,13.92461 0.24367,13.45689 0.23203,13.83615 -0.4455,14.51367 -0.41506,0.41506 -2.02754,1.01319 -3.9973,1.48274 -2.3419,0.55826 -4.73723,0.82533 -8.2405,0.91879 z m 76.03287,-14.02084 c -0.87821,-0.0246 -2.68933,-0.18489 -4.02471,-0.35631 -1.33537,-0.17143 -3.87537,-0.79446 -5.64444,-1.38452 -1.76907,-0.59005 -4.26645,-1.69396 -5.54972,-2.45313 -1.28328,-0.75917 -3.21017,-2.09466 -4.28198,-2.96775 -1.07181,-0.87309 -2.69887,-2.58533 -3.61569,-3.80497 -0.91682,-1.21964 -2.1823,-3.24947 -2.81218,-4.51075 -0.62988,-1.26127 -1.4863,-3.32963 -1.90315,-4.59636 -0.41685,-1.26672 -1.01192,-3.48922 -1.32236,-4.93888 -0.48377,-2.25899 -0.60498,-7.6282 -0.84798,-37.560762 -0.21413,-26.376139 -0.18322,-35.027647 0.12624,-35.344346 0.22537,-0.230639 6.25371,-1.464211 13.39631,-2.741274 7.1426,-1.277059 13.13542,-2.229922 13.31737,-2.117471 0.19684,0.121652 0.33081,5.830898 0.33081,14.097536 0,8.555344 0.13093,13.974 0.34078,14.103695 0.18743,0.115835 2.60198,-0.192295 5.36566,-0.684738 2.76369,-0.492439 5.38846,-0.895346 5.83284,-0.895346 h 0.80795 v 14.619456 c 0,8.938634 -0.13133,14.70062 -0.33797,14.82833 -0.18588,0.11489 -2.81806,0.66093 -5.84928,1.21344 -3.03123,0.5525 -5.66829,1.16153 -5.86015,1.3534 -0.22994,0.22993 -0.22301,1.47735 0.0203,3.65962 0.20304,1.82093 0.63085,4.07876 0.95067,5.0174 0.31983,0.93864 1.1161,2.24121 1.76949,2.8946 0.65339,0.65339 1.83834,1.36311 2.63323,1.57714 0.79488,0.21404 2.58195,0.36761 3.97126,0.34125 1.38931,-0.0264 2.72446,-0.0363 2.96699,-0.0221 0.34528,0.0202 0.44098,3.2001 0.44098,14.65249 v 14.62668 l -1.32292,0.35011 c -0.7276,0.19256 -2.66813,0.51618 -4.31227,0.71915 -1.64415,0.20297 -3.7079,0.34896 -4.58612,0.32442 z m 12.98508,-2.6368 c -0.32319,0.0717 -0.75975,-0.0418 -0.97014,-0.25216 -0.27132,-0.27132 -0.38253,-15.18434 -0.38253,-51.295925 V -46.05448 l 0.79375,-0.337841 c 0.43656,-0.185811 6.20072,-1.293657 12.80925,-2.461881 6.60852,-1.16822 12.34622,-2.124039 12.75045,-2.124039 0.40422,0 0.83132,0.251107 0.94909,0.55802 0.11777,0.30691 0.21413,7.13316 0.21413,15.169444 0,8.96106 0.1292,14.611424 0.33409,14.611424 0.18376,0 1.41407,-0.819111 2.73403,-1.820245 1.31997,-1.001134 3.51118,-2.345496 4.86938,-2.987467 1.35819,-0.641971 3.42194,-1.414258 4.58611,-1.716193 1.17705,-0.305276 3.6044,-0.552489 5.46806,-0.556888 2.41924,-0.0057 4.01296,0.196652 5.72996,0.727565 1.50541,0.465491 3.18395,1.345724 4.57248,2.397827 1.41035,1.068635 2.83407,2.607314 3.98629,4.308179 1.0608,1.565896 2.172198,3.798189 2.722919,5.469089 0.511796,1.55279 1.093382,4.172165 1.292412,5.820833 0.201101,1.665824 0.426163,14.163456 0.506579,28.130294 0.104503,18.1506 0.03534,25.27825 -0.248941,25.6566 -0.269879,0.35917 -4.472559,1.25229 -13.366639,2.84055 -7.13514,1.27416 -13.12795,2.22088 -13.31736,2.10382 -0.2175,-0.13442 -0.34512,-7.71086 -0.34641,-20.56492 -0.001,-11.42736 -0.15169,-21.265897 -0.3433,-22.435934 -0.21724,-1.326599 -0.63313,-2.396493 -1.14448,-2.944237 -0.70177,-0.751717 -1.03904,-0.841174 -2.66995,-0.708152 -1.12193,0.09151 -2.24795,0.436407 -2.82222,0.864447 -0.52553,0.391706 -1.27301,1.251225 -1.66107,1.910041 -0.67999,1.154444 -0.71195,2.001781 -0.88194,23.384575 -0.15287,19.22797 -0.24696,22.22673 -0.70556,22.48669 -0.29104,0.16498 -6.00604,1.25612 -12.7,2.42475 -6.69395,1.16862 -12.43526,2.18343 -12.75844,2.25513 z m 126.30763,-21.70829 c -1.43034,-0.0264 -2.99745,-0.11055 -3.48252,-0.18694 -0.48507,-0.0764 -2.07257,-0.38792 -3.52778,-0.69226 -1.45521,-0.30435 -3.97037,-1.16938 -5.58923,-1.9223 -1.6189,-0.75292 -3.92476,-2.06921 -5.12417,-2.92511 -1.19944,-0.85589 -3.23398,-2.67259 -4.5212,-4.03712 -1.28722,-1.36452 -3.00983,-3.60775 -3.82799,-4.98495 -0.8182,-1.3772 -1.94469,-3.83009 -2.50335,-5.45087 -0.55866,-1.62078 -1.25204,-4.51468 -1.54086,-6.43089 -0.28885,-1.916205 -0.5261,-4.813015 -0.52723,-6.437349 0,-1.624337 0.24575,-4.640587 0.54861,-6.702778 0.30289,-2.062194 1.08747,-5.362363 1.7435,-7.33371 0.65602,-1.97135 1.74448,-4.679763 2.41875,-6.018695 0.67426,-1.338937 2.22137,-3.93289 3.43796,-5.764343 1.38472,-2.084532 3.73754,-4.856134 6.29098,-7.410732 2.33715,-2.338222 5.28411,-4.870983 6.90118,-5.931235 1.55222,-1.017729 4.09222,-2.45835 5.64444,-3.201381 1.55222,-0.743031 4.15004,-1.768055 5.77296,-2.277833 1.62292,-0.509782 4.40105,-1.179072 6.17361,-1.487315 2.34361,-0.407543 4.52219,-0.511584 7.98538,-0.381356 3.36818,0.126651 5.51942,0.398674 7.34786,0.929128 1.42198,0.412525 3.56511,1.243387 4.7625,1.846355 1.19744,0.602971 2.89151,1.582765 3.76464,2.177319 0.87312,0.594558 2.51894,1.962514 3.65735,3.039908 1.13841,1.07739 2.74687,2.911393 3.57438,4.07556 0.82748,1.164167 1.98455,3.074762 2.57129,4.245765 0.58671,1.171007 1.41979,3.314132 1.85127,4.7625 0.43145,1.448371 0.92262,2.784214 1.0915,2.96854 0.17462,0.190631 0.30698,-5.609043 0.30698,-13.450555 0,-10.603999 0.10178,-13.867642 0.44098,-14.140762 0.24253,-0.195287 6.23534,-1.386523 13.31736,-2.647188 8.87543,-1.579912 13.01341,-2.182082 13.31736,-1.937985 0.34424,0.276444 0.44108,5.162169 0.44154,22.271351 0,20.161363 0.0499,22.015746 0.61736,23.147037 0.33923,0.676399 1.01367,1.428119 1.49874,1.670495 0.48507,0.242372 1.45228,0.443018 2.14937,0.445879 0.69709,0.0028 1.95873,-0.360359 2.80363,-0.807155 1.04997,-0.555244 1.79327,-1.298558 2.34855,-2.348541 l 0.81234,-1.536188 v -22.302706 c 0,-17.416346 0.0966,-22.381019 0.44097,-22.660147 0.24253,-0.196593 6.30671,-1.404472 13.47593,-2.684174 10.04246,-1.792573 13.10125,-2.226613 13.32368,-1.890617 0.15882,0.239864 0.23439,10.992993 0.16796,23.89584 -0.10524,20.436959 -0.19689,23.777518 -0.71131,25.926153 -0.32476,1.356537 -0.98802,3.658412 -1.47397,5.115278 -0.48592,1.456866 -1.41334,3.700632 -2.06093,4.986147 -0.64763,1.285519 -1.95009,3.508018 -2.8944,4.938889 -0.94428,1.430873 -3.46996,4.363981 -5.61256,6.518021 -2.69395,2.70831 -4.81968,4.4789 -6.89119,5.73982 -1.64754,1.00287 -4.2575,2.31005 -5.79988,2.90486 -1.54238,0.59481 -4.24251,1.39893 -6.00029,1.78693 -2.23037,0.49232 -4.47495,0.70341 -7.42929,0.69867 -3.10695,-0.005 -4.96552,-0.19813 -6.98518,-0.7259 -1.51348,-0.39551 -3.83642,-1.28905 -5.16205,-1.98565 -1.32564,-0.6966 -3.26073,-1.9925 -4.30019,-2.87978 -1.03949,-0.88729 -2.62978,-2.53505 -3.53395,-3.6617 -0.9042,-1.12665 -2.15501,-3.12926 -2.77957,-4.45024 C 14.7145,7.781726 13.82137,5.195868 13.35437,3.356358 12.88736,1.516844 12.37386,-1.542339 12.21324,-3.441828 c -0.16062,-1.899493 -0.36167,-3.52328 -0.44683,-3.608423 -0.0851,-0.08514 -9.35553,1.489167 -20.60088,3.498462 -13.37321,2.389498 -20.58875,3.537133 -20.85848,3.31755 -0.2268,-0.184644 -0.60061,-1.451656 -0.83065,-2.815576 -0.2328,-1.380264 -0.31525,-3.366057 -0.18588,-4.47845 0.12781,-1.099224 0.46256,-2.819012 0.7439,-3.821751 0.49989,-1.78164 0.54966,-1.831026 2.18578,-2.168546 0.92082,-0.189964 3.78724,-0.708399 6.36979,-1.15208 2.58254,-0.443682 4.95342,-0.995285 5.26866,-1.22579 0.52719,-0.385491 0.52229,-0.55227 -0.0612,-2.08002 -0.34886,-0.913511 -1.1581,-2.184711 -1.79825,-2.824889 -0.74884,-0.748831 -1.7726,-1.308813 -2.87048,-1.570098 -1.23197,-0.293201 -2.24265,-0.303579 -3.63449,-0.03732 -1.06035,0.202847 -2.6028,0.695516 -3.42766,1.094818 -0.82487,0.399305 -2.29094,1.591701 -3.25794,2.649774 -0.96704,1.058068 -2.24356,2.911813 -2.83676,4.119428 -0.59316,1.207618 -1.33096,3.386293 -1.6395,4.841501 -0.40492,1.909826 -0.51061,3.725308 -0.37987,6.526389 0.0996,2.134305 0.43409,4.698269 0.74327,5.697696 0.30921,0.999426 1.07664,2.581899 1.7054,3.516609 0.62879,0.934709 1.82121,2.173425 2.64982,2.752705 1.19521,0.83558 1.97291,1.08294 3.76315,1.19694 1.86771,0.11893 2.59612,-0.0118 4.22698,-0.7584 1.08373,-0.49615 2.8188,-1.704432 3.85569,-2.685073 1.03688,-0.980637 2.03214,-1.782978 2.2117,-1.782978 0.17956,0 3.69221,3.569911 7.80584,7.933131 4.34136,4.60478 7.40432,8.12865 7.30049,8.39915 -0.0984,0.25632 -1.32443,1.42226 -2.72464,2.59097 -1.40018,1.16872 -3.56426,2.81037 -4.80907,3.6481 -1.24477,0.83773 -3.62602,2.19712 -5.29166,3.02087 -1.66561,0.82375 -4.31462,1.90124 -5.8867,2.39443 -1.57208,0.49318 -4.52932,1.14482 -6.57165,1.44807 -2.04237,0.30327 -4.88361,0.52977 -6.31391,0.50334 z m -48.094833,-74.418385 c -1.171906,-0.01669 -2.527617,-0.151486 -3.012687,-0.299572 -0.485069,-0.148085 -1.531976,-0.601338 -2.326456,-1.007226 -0.79448,-0.405888 -1.942451,-1.305101 -2.551042,-1.998246 -0.608591,-0.693149 -1.339247,-1.710292 -1.623677,-2.260318 -0.284428,-0.55003 -0.706357,-2.026938 -0.937613,-3.282022 -0.317927,-1.725447 -0.3233,-2.835448 -0.02205,-4.551437 0.219139,-1.248208 0.901125,-3.29203 1.515523,-4.54183 0.708371,-1.440959 1.96808,-3.118908 3.442998,-4.586112 1.331514,-1.32455 3.155442,-2.712142 4.266191,-3.245597 1.067153,-0.512517 2.886393,-1.125998 4.042753,-1.363291 1.156363,-0.237293 2.875177,-0.339927 3.819588,-0.228075 0.944411,0.111851 2.552015,0.585603 3.572495,1.052781 1.02044,0.467178 2.45759,1.451665 3.1937,2.187748 0.73607,0.736084 1.70864,2.147226 2.16125,3.135873 0.45262,0.988645 0.92802,2.691521 1.05643,3.784169 0.15833,1.347004 0.0431,2.84238 -0.35782,4.644535 -0.39278,1.765487 -1.03967,3.347928 -1.92663,4.713008 -0.73441,1.130304 -2.06128,2.719857 -2.94865,3.532336 -0.88735,0.812479 -2.41875,1.885364 -3.403146,2.384189 -0.984377,0.498824 -2.698927,1.143755 -3.810106,1.43318 -1.111176,0.289426 -2.979155,0.512583 -4.151066,0.495907 z"
         id="path420" /><path
         style="fill:#080808;stroke-width:0.352778"
         d="m -182.27436,200.52749 c -5.15222,-0.0188 -7.546,-0.18026 -9.81314,-0.66201 -1.64924,-0.35045 -4.85807,-1.1254 -7.13073,-1.72211 -2.27267,-0.59671 -5.28892,-1.65225 -6.70278,-2.34564 -1.41386,-0.69339 -3.99941,-2.28174 -5.74566,-3.52965 -1.74625,-1.24792 -4.03222,-3.021 -5.07993,-3.94018 -1.04771,-0.91919 -3.27106,-3.50566 -4.94078,-5.74773 -1.66972,-2.24206 -3.61477,-5.18772 -4.32233,-6.54592 -0.70757,-1.35819 -1.77014,-3.8481 -2.36128,-5.53313 -0.59114,-1.68503 -1.63595,-5.57641 -2.32181,-8.64751 -0.68586,-3.0711 -1.40563,-7.08993 -1.59947,-8.93075 -0.20238,-1.92186 -0.35735,-15.21334 -0.36396,-31.21638 -0.007,-16.04776 -0.14726,-28.083959 -0.33153,-28.375149 -0.27434,-0.43353 -0.83993,-0.39565 -3.96334,0.26544 -2.00384,0.42413 -5.31022,0.945 -7.34751,1.1575 -2.10426,0.21948 -5.53264,0.28702 -7.9375,0.15636 -2.32834,-0.12649 -5.33971,-0.44115 -6.69194,-0.69923 -1.35223,-0.25809 -2.62223,-0.40638 -2.82222,-0.32955 -0.19999,0.0768 -0.83722,1.05068 -1.41606,2.16411 -0.58013,1.11589 -2.16333,3.13264 -3.52778,4.493849 -1.36143,1.35819 -3.26909,2.88886 -4.23923,3.40148 -0.97014,0.51262 -3.1578,1.27072 -4.86148,1.68468 -1.70368,0.41395 -10.6187,2.09797 -19.81115,3.74226 -9.19245,1.6443 -17.16586,2.98964 -17.71868,2.98964 -0.55282,0 -2.7503,0.39059 -4.8833,0.86798 -2.13299,0.4774 -11.04236,2.14427 -19.79859,3.70417 -8.75623,1.5599 -16.3773,2.83618 -16.93572,2.83618 -0.55841,0 -2.76047,0.39115 -4.89347,0.86923 -2.13299,0.47808 -11.02904,2.14495 -19.76901,3.70417 -8.90969,1.58949 -16.88037,2.83493 -18.14327,2.83493 -1.23883,0 -3.94888,-0.40564 -6.02233,-0.90142 -2.5273,-0.6043 -4.50308,-1.33105 -5.99429,-2.20486 -1.22342,-0.71689 -2.95124,-2.03306 -3.83961,-2.92482 -0.88836,-0.89175 -2.15408,-2.5248 -2.8127,-3.629 -0.65861,-1.10419 -1.60775,-3.4702 -2.1092,-5.25779 l -0.91172,-3.25016 -0.11509,-44.802779 c -0.0827,-32.17837 -10e-4,-45.74712 0.28972,-48.15417 0.22264,-1.84326 1.08201,-6.05535 1.9097,-9.360185 0.82769,-3.304843 2.04977,-7.365852 2.71574,-9.024465 0.66597,-1.658616 1.9135,-4.243733 2.77229,-5.744703 0.85879,-1.500974 2.88793,-4.504341 4.5092,-6.674146 1.62127,-2.16981 3.92843,-4.951004 5.12703,-6.180431 1.1986,-1.229427 4.00824,-3.619182 6.24365,-5.310568 2.2354,-1.69139 5.25165,-3.730484 6.70277,-4.531325 1.45112,-0.80084 3.84765,-1.94014 5.32562,-2.531773 1.47797,-0.591636 5.2086,-1.695785 8.29028,-2.453661 3.08168,-0.757879 7.05847,-1.575527 8.83731,-1.816996 2.0094,-0.272764 5.08223,-0.366504 8.11388,-0.247516 3.5415,0.138995 5.94381,0.448398 8.7602,1.128254 2.13431,0.515207 4.45141,1.023038 5.14913,1.128515 1.12805,0.170529 1.64737,-0.06686 4.68828,-2.143047 1.88084,-1.284154 4.53078,-2.894348 5.88876,-3.578215 1.35798,-0.683867 3.852,-1.703211 5.54227,-2.265211 1.69028,-0.561996 5.6926,-1.616145 8.89406,-2.34255 5.27431,-1.196728 6.41884,-1.335094 12.18998,-1.473665 5.03917,-0.120996 6.9913,-0.02861 9.34861,0.442394 1.63871,0.327427 4.56697,0.991968 6.50724,1.476752 1.94028,0.484787 4.32153,1.210821 5.29167,1.613411 0.97014,0.40259 3.29922,1.739505 5.17574,2.970918 1.87652,1.231414 4.32644,3.072085 5.44427,4.090381 1.11783,1.018297 3.2433,3.479447 4.72325,5.469227 1.47995,1.989776 3.35856,4.870972 4.17468,6.402655 0.81611,1.531687 1.67969,2.858904 1.91906,2.949374 0.23937,0.09047 1.85892,-0.384944 3.599,-1.056478 1.74008,-0.671533 4.91508,-1.678206 7.05556,-2.237052 2.14048,-0.558842 5.45789,-1.337606 7.37204,-1.730586 1.91414,-0.392981 5.72414,-0.891445 8.46667,-1.107698 3.55529,-0.280345 6.1487,-0.287143 9.03619,-0.02367 2.83571,0.258731 4.18415,0.258011 4.49792,-0.0025 0.33212,-0.275632 0.44824,-2.027346 0.44858,-6.766902 3.5e-4,-5.605984 0.10873,-6.841934 0.87806,-10.017421 0.48268,-1.99233 1.21752,-4.288698 1.63297,-5.10304 0.41544,-0.814341 1.35992,-2.279879 2.09883,-3.256745 0.73892,-0.97687 2.14465,-2.372759 3.12385,-3.101979 0.97921,-0.72922 2.38181,-1.63934 3.1169,-2.022496 0.7351,-0.383152 2.60277,-1.021718 4.15038,-1.419038 1.5476,-0.397319 9.43596,-1.908133 17.52968,-3.357366 9.06726,-1.623503 15.66253,-2.634921 17.18217,-2.634921 1.56518,0 3.59992,-0.321588 5.56887,-0.88015 1.7064,-0.484083 9.76844,-2.071583 17.91564,-3.527778 8.70695,-1.556242 15.78664,-2.647627 17.17486,-2.647627 1.29897,0 3.52308,0.241508 4.94246,0.536684 1.41939,0.295176 3.37446,0.792255 4.34459,1.104621 0.97014,0.312366 2.85061,1.28375 4.17882,2.15863 1.35532,0.892739 3.08962,2.450322 3.95261,3.54986 0.84573,1.077542 1.89992,2.722152 2.34266,3.654687 0.44274,0.932534 0.99493,1.695518 1.22709,1.695518 0.23216,0 0.50192,-0.277813 0.59946,-0.617361 0.0975,-0.339549 0.52314,-1.807986 0.94578,-3.263195 0.42264,-1.455208 1.16455,-3.439583 1.64868,-4.409722 0.48413,-0.970139 2.21412,-3.548891 3.84441,-5.730561 1.69525,-2.268579 3.83087,-4.655245 4.98873,-5.575146 1.1135,-0.88466 3.294543,-2.453233 4.846765,-3.485719 1.552222,-1.032486 3.774722,-2.228994 4.938889,-2.658907 1.164166,-0.429913 4.101041,-1.241642 6.526389,-1.803842 3.607519,-0.83623 5.213537,-1.022943 8.828295,-1.026364 3.733912,-0.0035 5.100502,0.162207 8.819452,1.069628 2.42048,0.590596 5.25445,1.46416 6.29771,1.941254 1.04327,0.477094 2.94827,1.615232 4.23334,2.529196 1.28506,0.913964 3.09407,2.367286 4.01997,3.229604 0.92594,0.862319 2.4625,2.618637 3.41457,3.902929 0.95212,1.284292 2.1378,3.144848 2.6349,4.134569 0.49713,0.98972 1.31639,3.366737 1.82062,5.282259 0.50419,1.915522 1.10197,3.676583 1.32835,3.91347 0.3231,0.33807 0.90431,0.275588 2.70234,-0.290513 1.25991,-0.39667 4.6536,-1.258599 7.54155,-1.915399 2.88794,-0.6568 6.85669,-1.381522 8.81944,-1.610494 2.18475,-0.254874 5.48386,-0.331255 8.50752,-0.196969 2.86918,0.127426 6.26191,0.517517 8.096,0.930869 1.73644,0.391339 3.49857,0.711525 3.91584,0.711525 0.41726,0 1.39781,-0.462969 2.17893,-1.028821 0.78115,-0.565851 2.04904,-1.349602 2.81756,-1.741669 0.76849,-0.392067 2.67261,-1.038466 4.23133,-1.436442 1.55871,-0.397976 9.07848,-1.836724 16.71062,-3.197219 7.63214,-1.360495 14.46495,-2.473627 15.18398,-2.473627 0.71903,0 3.01068,-0.402469 5.09252,-0.894377 2.08182,-0.491907 9.9937,-2.027447 17.58195,-3.41231 10.70363,-1.953422 14.50866,-2.514355 16.97183,-2.501969 2.24888,0.01131 4.18987,0.283343 6.6543,0.932622 1.91361,0.504161 4.21548,1.343878 5.11528,1.866036 0.89979,0.522159 2.68658,2.01251 3.97062,3.311891 1.44533,1.462578 2.75562,3.221341 3.43976,4.617115 0.6078,1.240032 1.41908,3.683353 1.80287,5.429603 0.65842,2.996138 0.69815,4.590186 0.70538,28.296005 0.005,16.918421 -0.12273,25.997503 -0.39162,27.805337 -0.26719,1.796475 -0.28212,2.801472 -0.0451,3.038482 0.23703,0.237011 1.39005,0.03808 3.48608,-0.60144 1.72254,-0.525572 3.33033,-1.202369 3.57286,-1.503994 0.30297,-0.376788 0.44097,-2.010484 0.44097,-5.220419 0,-2.815883 0.21322,-5.697291 0.53669,-7.252713 0.29516,-1.419387 0.79226,-3.374453 1.10461,-4.344592 0.31239,-0.970139 1.282,-2.847982 2.15477,-4.17298 0.87274,-1.325001 2.38241,-3.037992 3.35485,-3.806645 0.97243,-0.768657 2.44545,-1.794545 3.27339,-2.279759 0.82797,-0.485214 3.06775,-1.264536 4.97734,-1.731829 1.90958,-0.467289 9.82197,-1.984477 17.58308,-3.371528 12.23281,-2.186228 14.48678,-2.497395 16.93333,-2.337711 1.55222,0.101315 4.08845,0.516488 5.63605,0.922613 1.5476,0.406125 3.4526,1.068112 4.23333,1.471083 0.78074,0.402975 2.25182,1.357087 3.26912,2.120251 1.01727,0.763164 2.64683,2.522746 3.62116,3.910185 1.03459,1.473204 2.06957,3.487128 2.48793,4.841135 0.39402,1.275185 0.88424,3.429769 1.08938,4.787963 0.20514,1.358194 0.44327,2.843163 0.5291,3.299929 0.13405,0.713193 0.31577,0.806584 1.28668,0.66125 0.62181,-0.09308 3.59121,-0.73806 6.59864,-1.433294 3.00743,-0.695229 6.81327,-1.429356 8.45742,-1.631389 1.64413,-0.202032 4.58516,-0.367329 6.53564,-0.367329 1.95047,0 4.82892,0.160827 6.3966,0.357399 1.56767,0.196568 5.11408,0.913253 7.88088,1.592626 2.76683,0.679375 6.08379,1.654548 7.37101,2.16705 1.28721,0.512501 3.37227,1.555641 4.63345,2.318085 1.26118,0.762441 3.52898,2.275364 5.03954,3.362043 1.51056,1.086682 3.72371,2.859052 4.91811,3.938598 1.1944,1.079546 3.62366,3.912284 5.39834,6.294973 1.77472,2.382693 3.81089,5.498338 4.52487,6.923659 0.71395,1.425321 1.6805,3.715759 2.14786,5.089867 0.46736,1.374108 1.45312,5.084708 2.19053,8.245788 l 1.34081,5.74741 v 7.9375 c 0,7.0206 -0.0885,8.29287 -0.77647,11.01387 -0.42781,1.69201 -1.02796,3.67638 -1.33364,4.40973 -0.30572,0.73334 -1.19683,2.31822 -1.98025,3.52197 -0.78341,1.20374 -1.3282,2.34426 -1.21062,2.5345 0.11758,0.19023 1.07216,0.59542 2.12132,0.90042 1.04913,0.30499 3.1103,1.35898 4.58033,2.3422 1.88637,1.26169 3.12659,2.42875 4.21523,3.96652 0.84836,1.19836 1.80153,2.68886 2.11818,3.31222 0.31666,0.62335 0.97138,2.76648 1.45497,4.7625 l 0.87922,3.62912 -0.004,19.05 c -0.004,18.815389 -0.0131,19.095829 -0.84681,22.770749 -0.46426,2.04641 -1.09111,4.31195 -1.39305,5.03453 -0.30191,0.72258 -1.28242,2.267 -2.1789,3.43206 -0.89648,1.16506 -2.67518,2.90953 -3.9527,3.87662 -1.4884,1.12676 -3.15736,2.01613 -4.64647,2.47607 -1.27804,0.39475 -11.76948,2.38095 -23.31427,4.41376 -11.54479,2.03282 -23.76865,4.23852 -27.16414,4.90157 -3.39548,0.66305 -8.07861,1.45009 -10.40694,1.74898 -2.32833,0.29889 -13.05521,2.13079 -23.83755,4.07087 -10.7823,1.94009 -22.13292,3.93355 -25.22361,4.4299 -3.09065,0.49636 -9.98502,1.69545 -15.32079,2.66466 -5.33576,0.96921 -9.93951,1.83078 -10.23055,1.91461 -0.29104,0.0838 -2.82533,0.48425 -5.63175,0.88984 -2.80638,0.40559 -11.617,1.93526 -19.57916,3.39927 -7.96213,1.46401 -16.38159,2.94998 -18.70992,3.30215 -2.32834,0.35217 -9.23396,1.52136 -15.34584,2.5982 -6.11187,1.07684 -18.49437,3.24146 -27.51667,4.81026 -9.02229,1.5688 -20.53166,3.62712 -25.57638,4.57405 -5.04473,0.94692 -11.47918,2.04803 -14.29879,2.4469 -2.81962,0.39887 -12.58274,2.06673 -21.69584,3.70637 -9.11309,1.63963 -21.72864,3.85744 -28.03454,4.92847 -6.3059,1.07103 -14.419861,2.50706 -18.031017,3.19119 -3.611154,0.68412 -8.214904,1.47651 -10.230556,1.76085 -2.015649,0.28436 -6.760443,1.06899 -10.543987,1.74363 -3.78354,0.67463 -11.72104,2.10362 -17.63889,3.17553 -5.91784,1.0719 -13.14097,2.34189 -16.05139,2.82219 -2.91041,0.48031 -10.84791,1.83002 -17.63889,2.99937 -6.79097,1.16934 -14.44005,2.4513 -16.99796,2.8488 -3.56156,0.55346 -6.24669,0.7169 -11.46528,0.6979 z m 1.47575,-11.40124 c 5.62969,-0.11469 7.29252,-0.31718 18.87361,-2.29831 6.985,-1.19489 15.71625,-2.70816 19.40278,-3.36281 3.68652,-0.65466 7.49652,-1.29458 8.46666,-1.42203 0.97014,-0.12746 9.00291,-1.56345 17.85059,-3.19107 8.84768,-1.62763 18.338211,-3.28432 21.090064,-3.68153 2.751854,-0.39721 7.974715,-1.28512 11.606358,-1.97312 3.631646,-0.688 11.762368,-2.12721 18.068268,-3.19824 6.3059,-1.07103 18.84715,-3.27527 27.86945,-4.89832 9.02229,-1.62305 18.30916,-3.21709 20.6375,-3.54232 2.32833,-0.32524 9.31333,-1.52216 15.52222,-2.65985 6.20889,-1.13768 18.19451,-3.27009 26.63472,-4.73869 8.44021,-1.46861 20.34646,-3.54846 26.45833,-4.62191 6.11188,-1.07344 13.0175,-2.24161 15.34584,-2.59592 2.32833,-0.3543 11.21833,-1.93013 19.75555,-3.50184 8.53723,-1.57171 17.1891,-3.08257 19.22639,-3.35746 2.03729,-0.2749 7.59354,-1.22204 12.34722,-2.10475 4.75369,-0.88272 13.80244,-2.47792 20.10834,-3.5449 6.3059,-1.06698 17.18028,-2.98438 24.16528,-4.2609 6.985,-1.27652 15.08125,-2.69594 17.99166,-3.15425 2.91042,-0.45832 6.1648,-0.93766 7.23195,-1.0652 1.06715,-0.12754 5.11528,-0.84604 8.99583,-1.59666 3.88056,-0.75063 15.78681,-2.89385 26.45834,-4.7627 12.85148,-2.25062 19.90767,-3.63888 20.89809,-4.11158 0.82243,-0.39252 2.13286,-1.43794 2.91208,-2.32315 0.77918,-0.88521 1.68949,-2.41973 2.0229,-3.41004 0.53385,-1.58569 0.62046,-3.90543 0.72591,-19.439449 0.0839,-12.36467 -0.004,-18.2692 -0.28847,-19.74687 -0.22447,-1.1594 -0.7045,-2.68887 -1.06666,-3.39883 -0.3622,-0.70995 -1.15926,-1.79155 -1.77126,-2.40355 -0.612,-0.61199 -1.6897,-1.40453 -2.39487,-1.76118 -0.7052,-0.35666 -2.14263,-0.83089 -3.1943,-1.05386 -1.64436,-0.34863 -2.74845,-0.27728 -7.88543,0.50958 -3.28531,0.50324 -6.17294,0.83837 -6.41692,0.74475 -0.24398,-0.0936 -0.54684,-0.93781 -0.67303,-1.87596 -0.12619,-0.93816 -0.69299,-2.51419 -1.25955,-3.5023 -0.5666,-0.98811 -2.62873,-3.47087 -4.58252,-5.51725 -1.95382,-2.04638 -3.55236,-3.89699 -3.55236,-4.11247 0,-0.21548 0.0514,-0.39178 0.11419,-0.39178 0.0628,0 3.19811,-0.55893 6.96736,-1.24208 3.76922,-0.68315 7.66851,-1.47608 8.66507,-1.76206 1.17602,-0.33749 2.42821,-1.07411 3.56807,-2.09892 1.04468,-0.93928 2.05404,-2.2714 2.49145,-3.28816 0.40439,-0.94007 0.901,-2.73068 1.10356,-3.97913 0.20257,-1.24846 0.3695,-3.82701 0.37095,-5.73013 0,-1.90311 -0.16852,-4.60186 -0.37776,-5.99722 -0.20926,-1.39536 -0.84709,-4.42469 -1.41742,-6.73184 -0.57034,-2.30714 -1.65718,-5.51825 -2.41519,-7.13579 -0.75798,-1.61754 -2.22359,-4.173957 -3.25688,-5.680925 -1.03328,-1.506971 -3.06931,-3.941872 -4.52451,-5.410888 -1.45521,-1.469019 -3.95284,-3.582409 -5.55026,-4.696421 -1.59745,-1.114012 -4.23361,-2.648341 -5.85812,-3.409625 -1.62454,-0.761284 -4.60382,-1.788548 -6.62058,-2.282811 -2.0168,-0.494263 -5.29262,-1.084968 -7.27968,-1.312679 -2.78648,-0.319331 -4.48553,-0.316974 -7.42872,0.0103 -2.09878,0.233373 -6.06086,0.975533 -8.80459,1.649247 -2.74377,0.673714 -6.37576,1.784258 -8.07113,2.467878 -1.69535,0.68362 -4.20378,1.902287 -5.57428,2.708144 -1.37051,0.805857 -3.56673,2.239321 -4.88054,3.185471 -1.57956,1.137546 -2.43928,1.567726 -2.53803,1.269932 -0.0821,-0.247685 -0.21551,-5.054088 -0.29643,-10.680893 -0.11766,-8.177347 -0.26251,-10.590671 -0.72172,-12.024907 -0.31598,-0.986896 -1.05113,-2.452271 -1.63361,-3.256393 -0.5825,-0.804125 -1.65967,-1.85947 -2.3937,-2.34522 -0.73399,-0.485747 -2.36241,-1.135903 -3.61865,-1.444791 l -2.28413,-0.561612 -13.93472,2.497215 c -7.6641,1.37347 -14.78499,2.725011 -15.8242,3.003423 -1.03922,0.278412 -2.50261,0.931111 -3.25202,1.450439 -0.74937,0.519328 -1.79331,1.509032 -2.31983,2.199336 -0.52652,0.690305 -1.24594,2.295956 -1.59868,3.568115 -0.54183,1.95405 -0.64139,3.692909 -0.64139,11.204515 0,8.165655 -0.0504,8.905913 -0.61736,9.068043 -0.33955,0.0971 -2.60897,0.652565 -5.04313,1.234373 -2.4342,0.581808 -5.52785,1.472653 -6.87483,1.979655 -1.34701,0.507005 -3.76745,1.623162 -5.3788,2.480352 -1.61135,0.85719 -4.31204,2.554257 -6.00156,3.771267 -1.68949,1.217 -4.4057,3.48513 -6.036,5.04029 -1.63032,1.55516 -4.13766,4.296 -5.57191,6.09076 -1.43422,1.79476 -2.70439,3.2632 -2.82254,3.2632 -0.11818,0 -1.02394,-0.7552 -2.01284,-1.67822 -0.98888,-0.92301 -2.43297,-2.18301 -3.20908,-2.8 -1.07774,-0.85678 -1.32779,-1.24119 -1.05834,-1.62716 0.19403,-0.27795 1.27293,-1.59764 2.39752,-2.93264 1.12462,-1.33499 2.89846,-3.69726 3.94187,-5.24948 1.04337,-1.55223 2.54053,-4.08066 3.32694,-5.618743 0.78641,-1.538086 1.82996,-3.998711 2.31902,-5.468055 0.48905,-1.469348 1.31815,-4.41779 1.84245,-6.552096 l 0.95328,-3.880555 0.1319,-24.518055 c 0.0973,-18.092131 0.0219,-25.026581 -0.28854,-26.458333 -0.23124,-1.067153 -0.71254,-2.516257 -1.06951,-3.220231 -0.35698,-0.703974 -1.39323,-1.935022 -2.3028,-2.735662 -0.97627,-0.85933 -2.38153,-1.671829 -3.4302,-1.983241 -0.97701,-0.29015 -2.47025,-0.52754 -3.31833,-0.52754 -0.84808,0 -7.36769,1.040807 -14.48805,2.312905 -7.12036,1.272098 -13.86466,2.547939 -14.98738,2.835202 -1.12271,0.287263 -2.55146,0.835101 -3.175,1.217418 -0.9562,0.586286 -1.52037,0.661467 -3.60317,0.480171 -2.09433,-0.1823 -4.4789,0.141772 -15.69861,2.133532 -7.27604,1.291664 -14.06264,2.562811 -15.08135,2.824773 -1.01868,0.261962 -2.56145,0.891949 -3.42833,1.399978 -0.86688,0.508024 -2.03451,1.594647 -2.59472,2.414714 -0.56025,0.820067 -1.21726,2.100421 -1.46008,2.845237 -0.32455,0.99562 -0.59492,1.30694 -1.02111,1.175699 -0.31884,-0.09818 -1.84969,-0.73539 -3.40191,-1.416025 -1.55222,-0.680635 -4.66873,-1.646657 -6.92555,-2.14672 -2.25687,-0.500059 -5.52973,-1.010447 -7.27308,-1.134194 -1.8669,-0.132514 -4.59539,-0.04554 -6.63836,0.21161 -1.90776,0.240129 -5.63418,0.96834 -8.281,1.618244 -2.64679,0.649905 -6.06803,1.677829 -7.60272,2.284279 -1.53472,0.606449 -3.78975,1.658539 -5.01121,2.337978 -1.22145,0.679436 -3.2852,1.963628 -4.58611,2.85376 -1.3009,0.890129 -3.45658,2.499667 -4.7904,3.576751 l -2.42507,1.958333 -0.83636,-1.045295 c -0.45999,-0.574911 -0.83707,-1.204045 -0.83792,-1.398072 0,-0.194028 0.32057,-1.200387 0.7143,-2.236354 0.39377,-1.035967 1.0287,-3.224928 1.41094,-4.864357 0.38227,-1.639429 0.69391,-4.125567 0.69257,-5.524758 0,-1.399187 -0.32205,-3.877144 -0.71268,-5.506575 -0.39063,-1.629431 -1.21606,-3.931306 -1.83434,-5.115278 -0.67486,-1.292329 -2.18768,-3.210156 -3.78523,-4.798592 -1.52795,-1.519214 -3.57777,-3.131067 -4.8138,-3.785235 -1.18395,-0.626626 -3.48583,-1.458915 -5.11527,-1.849531 -1.62941,-0.390615 -4.073847,-0.709445 -5.432042,-0.70851 -1.426852,9.88e-4 -3.917978,0.362256 -5.900395,0.8557 -1.887022,0.4697 -4.506398,1.425862 -5.820833,2.124805 -1.314436,0.698943 -3.390756,2.069842 -4.614048,3.046442 -1.223289,0.976599 -3.181534,3.066841 -4.351655,4.644982 -1.170122,1.578141 -2.513051,3.630213 -2.984292,4.56016 -0.471245,0.929948 -1.251225,3.318853 -1.733305,5.308679 -0.51224,2.114306 -0.87669,4.662004 -0.87696,6.130272 -2.7e-4,1.49273 0.34396,3.870131 0.84816,5.857755 0.46674,1.839944 1.1751,3.985299 1.57412,4.767453 l 0.725502,1.4221 -1.077892,1.627318 c -0.59284,0.895025 -1.20748,1.707409 -1.36586,1.805294 -0.15838,0.09789 -1.05638,-0.15453 -1.99553,-0.560927 -0.93917,-0.406396 -3.37444,-1.11984 -5.41173,-1.585429 -2.06713,-0.472405 -4.79553,-0.842204 -6.17362,-0.836754 -1.35819,0.0054 -3.58069,0.225609 -4.93888,0.489409 -1.3582,0.263804 -2.58851,0.407349 -2.73403,0.318992 -0.14552,-0.08836 -0.26459,-3.263674 -0.26459,-7.056264 0,-5.108413 -0.14347,-7.457415 -0.55356,-9.063211 -0.30446,-1.19217 -0.96408,-2.767269 -1.46582,-3.500218 -0.50175,-0.732949 -1.54158,-1.795438 -2.31074,-2.361085 -0.83546,-0.614409 -2.42614,-1.27072 -3.95112,-1.630236 l -2.55266,-0.601789 -14.25041,2.534525 c -7.83772,1.393991 -15.058,2.763891 -16.04505,3.044222 -1.10187,0.312942 -2.4334,1.071954 -3.44936,1.966239 -1.06467,0.937161 -1.87137,1.388156 -2.2623,1.264754 -0.33417,-0.105484 -1.24259,-0.43338 -2.0187,-0.728659 -0.77611,-0.295278 -2.28401,-0.543839 -3.35089,-0.552355 -1.06688,-0.0085 -7.73438,1.01448 -14.81667,2.273325 -7.08229,1.258845 -13.80281,2.530246 -14.93451,2.825334 -1.13169,0.295088 -2.75515,1.016437 -3.60769,1.603001 -0.85254,0.58656 -1.9753,1.792065 -2.49502,2.678899 -0.51972,0.886834 -1.15596,2.508959 -1.41388,3.604718 -0.34658,1.472477 -0.47036,5.513003 -0.47444,15.486045 -0.003,7.421562 -0.1423,13.49375 -0.30949,13.49375 -0.16719,0 -1.39751,-0.496546 -2.73403,-1.103433 -1.33653,-0.606887 -4.22272,-1.556812 -6.41376,-2.110941 -2.19105,-0.554129 -5.60417,-1.158409 -7.58473,-1.342838 -2.14549,-0.199792 -5.09821,-0.212178 -7.30517,-0.03066 -2.03729,0.167573 -5.37104,0.650624 -7.40833,1.073442 -2.03729,0.422822 -5.05354,1.158233 -6.70278,1.634243 -1.64923,0.476011 -4.49089,1.571255 -6.31478,2.433878 -1.8239,0.862623 -4.60202,2.424701 -6.17361,3.471287 -1.57159,1.046586 -3.96557,2.786793 -5.31995,3.867129 -1.35438,1.080336 -2.57568,1.850002 -2.71399,1.710369 -0.13831,-0.139633 -0.50693,-1.523877 -0.81914,-3.076099 -0.31222,-1.552222 -0.97107,-4.326861 -1.46412,-6.165867 -0.49305,-1.839003 -1.3527,-4.349891 -1.91035,-5.579749 -0.55764,-1.229857 -1.74696,-3.338784 -2.64292,-4.686501 -0.89596,-1.347717 -2.41605,-3.311539 -3.37799,-4.364044 -0.96193,-1.052509 -2.82895,-2.714276 -4.14893,-3.692818 -1.31998,-0.978542 -3.42914,-2.260776 -4.68702,-2.849411 -1.25788,-0.588634 -3.86203,-1.483956 -5.78699,-1.989599 -2.40602,-0.632009 -4.79053,-0.974641 -7.62914,-1.096236 -2.3388,-0.100185 -5.35378,0.0021 -6.95341,0.236075 -1.55332,0.227126 -4.97881,0.955608 -7.6122,1.618855 -2.6334,0.663247 -6.12489,1.832388 -7.75886,2.598096 -1.63397,0.765704 -4.39513,2.367689 -6.1359,3.559968 -1.74077,1.19228 -4.32775,3.268285 -5.74884,4.613349 -1.42109,1.345064 -2.63647,2.447026 -2.70083,2.448811 -0.0644,0.0018 -1.04589,-0.541151 -2.18117,-1.206518 -1.13527,-0.665367 -3.18864,-1.61539 -4.56304,-2.11116 -1.37439,-0.495772 -4.06905,-1.221383 -5.98813,-1.612466 -1.91909,-0.391079 -4.67382,-0.711055 -6.12164,-0.711055 -1.44782,0 -4.04227,0.243734 -5.76542,0.541627 -1.72316,0.297896 -4.72052,0.95481 -6.6608,1.459808 -1.94027,0.504998 -4.91019,1.510471 -6.59982,2.234385 -1.68962,0.723911 -4.65237,2.368275 -6.58389,3.654139 -1.93153,1.285868 -4.80698,3.556293 -6.3899,5.045393 -1.58292,1.4891 -4.10714,4.344423 -5.60937,6.345167 -1.50223,2.000743 -3.4651,5.029549 -4.36193,6.730682 -0.89683,1.70113 -2.10456,4.521715 -2.68385,6.267965 -0.57929,1.74625 -1.5023,5.080004 -2.05113,7.408334 l -0.99788,4.23334 v 44.62638 c 0,42.055559 0.0367,44.745389 0.63803,46.692079 0.44357,1.43608 1.12711,2.58855 2.24265,3.78115 1.06485,1.13842 2.21492,1.94066 3.41891,2.38492 0.99786,0.36821 2.40585,0.77661 3.12886,0.90757 0.9382,0.16995 5.87948,-0.5775 17.25874,-2.61066 8.76929,-1.56682 16.6683,-3.01105 17.55334,-3.2094 0.88504,-0.19834 2.29059,-0.66204 3.12344,-1.03045 1.08765,-0.48112 2.28195,-0.66213 4.23904,-0.6425 1.9534,0.0196 6.96923,-0.73854 17.71782,-2.67806 8.24618,-1.48798 15.93852,-2.94892 17.09408,-3.24655 1.15556,-0.29762 2.5134,-0.75437 3.01742,-1.01501 0.55293,-0.28593 2.02829,-0.46663 3.71981,-0.45559 2.03955,0.0133 7.08093,-0.75882 18.50202,-2.833779 8.63424,-1.56865 16.55165,-3.10905 17.59425,-3.42311 1.2745,-0.38392 2.45565,-1.09486 3.60476,-2.16972 1.15893,-1.08404 1.9559,-2.23954 2.47567,-3.58937 0.57534,-1.49414 0.80403,-3.00263 0.91684,-6.04763 0.0827,-2.23132 0.2186,-4.26727 0.30207,-4.52434 0.11268,-0.347 0.62907,-0.20147 2.00479,0.56499 1.01916,0.56781 2.72614,1.36786 3.79329,1.77789 1.06715,0.41003 3.53666,1.14293 5.48781,1.62867 1.95114,0.48575 5.04676,1.0549 6.87916,1.26479 1.8324,0.2099 4.52227,0.28405 5.97747,0.16479 1.45521,-0.11925 3.99521,-0.45251 5.64445,-0.74058 1.64924,-0.28806 4.26861,-0.85786 5.82083,-1.26623 1.55222,-0.40836 3.66083,-1.12192 4.68579,-1.5857 1.02496,-0.46378 3.48559,-1.14001 5.46806,-1.50274 2.4387,-0.4462 3.74221,-0.54535 4.03032,-0.30655 0.3262,0.27037 0.45414,8.99141 0.54683,37.275779 l 0.12099,36.92284 0.97928,4.40972 c 0.5386,2.42535 1.43897,5.79443 2.00083,7.48683 0.56186,1.69241 1.48512,3.99429 2.05168,5.11528 0.56657,1.121 1.93517,3.30817 3.04133,4.86039 1.10617,1.55223 2.67117,3.51002 3.47778,4.35065 0.80661,0.84063 2.73656,2.44753 4.28878,3.57088 1.55222,1.12334 3.78032,2.52407 4.95132,3.11271 1.17101,0.58865 3.25486,1.4122 4.63079,1.83013 1.37593,0.41793 3.91033,1.06528 5.63201,1.43857 2.59065,0.5617 4.19467,0.65703 9.30394,0.55295 z M 10.08525,36.863421 c -0.16168,0 -1.23787,-0.75406 -2.39156,-1.67569 -1.15368,-0.92163 -2.68097,-2.07257 -3.39393,-2.55764 -0.713,-0.48507 -1.29741,-1.02139 -1.29875,-1.19183 0,-0.17043 1.02178,-1.39557 2.27358,-2.72253 1.71457,-1.81753 2.41071,-2.86638 2.82222,-4.25207 0.30043,-1.01167 0.54624,-2.60435 0.54624,-3.53927 0,-0.93492 0.11907,-1.69832 0.26459,-1.69643 0.14552,0.002 1.27543,1.12207 2.51089,2.48932 1.2355,1.36724 3.10081,3.13102 4.14514,3.91952 1.04437,0.78849 1.89883,1.59586 1.89883,1.79417 0,0.1983 -0.68806,1.17142 -1.52905,2.16248 -0.84098,0.99105 -2.43473,3.03223 -3.54167,4.53594 -1.10691,1.50372 -2.14489,2.73403 -2.30653,2.73403 z"
         id="path418" /><path
         style="fill:#ffffff;stroke-width:87.4407;stroke-linecap:square;stroke-miterlimit:0;paint-order:fill markers stroke"
         d="m -726.97363,709.5941 c -20.9054,-5.68008 -29.08028,-9.30518 -44.31612,-19.65164 -28.39041,-19.27955 -46.44722,-47.06943 -57.23175,-88.08114 l -6.50909,-24.75286 -0.0131,-121.53462 c -0.009,-66.84403 -0.66064,-130.64529 -1.45106,-141.78058 l -1.43709,-20.24595 -10.9091,1.44715 c -6,0.79593 -19.6355,4.34637 -30.30112,7.88983 -25.30044,8.4057 -57.97896,13.63605 -73.758,11.80537 -21.747,-2.5231 -42.49316,-7.79722 -57.61334,-14.64651 -8.1309,-3.68324 -15.2614,-6.21893 -15.8454,-5.63485 -0.5841,0.58406 -1.6939,8.85107 -2.4662,18.37111 -2.1914,27.01115 -10.3976,39.00801 -30.3194,44.32444 -15.0805,4.02446 -106.2889,20.10666 -124.5829,21.96692 -9.6185,0.97804 -23.3904,3.35776 -30.6043,5.28825 -19.2088,5.14045 -94.9667,18.73622 -119.088,21.37195 -11.4494,1.25106 -26.0141,3.74023 -32.366,5.53145 -12.2863,3.46473 -109.1629,21.2153 -129.5856,23.7438 -19.9963,2.4756 -38.9775,-8.41344 -43.5863,-25.00377 -1.3369,-4.81219 -2.1647,-72.45608 -2.1722,-177.49883 l -0.012,-169.72351 5.5885,-21.552968 c 9.9142,-38.2356434 27.0255,-66.857972 56.0117,-93.691548 24.2709,-22.468428 50.4961,-35.562818 85.83,-42.855392 10.89,-2.247595 24.7186,-4.082378 30.7302,-4.077296 16.4643,0.01399 39.5902,5.605831 56.7737,13.728051 l 15.3648,7.262575 16.3951,-13.823155 c 32.1326,-27.091817 73.5814,-42.210417 115.723,-42.210417 65.1773,0 106.5677,34.40444 122.9015,102.157948 2.7545,11.425742 6.1276,21.203664 7.4959,21.728724 1.3682,0.525037 10.246,-4.646489 19.7283,-11.492307 22.53042,-16.265976 42.86153,-25.823986 69.72355,-32.778208 41.896,-10.846339 83.56137,-9.185534 117.71454,4.692154 7.18893,2.921109 13.64297,4.740815 14.34235,4.043781 0.69935,-0.697033 1.76339,-26.025886 2.36455,-56.286312 1.02283,-51.48719 1.40403,-55.60055 5.93842,-64.07913 6.52428,-12.19935 16.74185,-16.73469 53.08403,-23.56277 73.95916,-13.89568 86.4409,-15.02664 100.61537,-9.11668 1.92498,0.80261 6.46903,-0.9187 10.73625,-4.06695 4.06925,-3.0022 10.437,-6.42538 14.15052,-7.60707 10.02473,-3.18996 106.33147,-20.36905 113.39753,-20.22772 15.93897,0.31879 31.2635,11.4899 36.2453,26.4217 1.36355,4.08692 2.47918,16.99808 2.47918,28.69147 0,11.69339 0.61097,24.31562 1.35774,28.04939 l 1.35773,6.78867 18.87912,-1.34007 c 18.18786,-1.29102 28.4187,0.31243 58.41885,9.1558 3.53495,1.04202 5.58674,-0.21019 8.88822,-5.42453 l 4.29233,-6.77928 -5.41131,-15.79797 c -14.25685,-41.62207 1.55633,-87.66086 38.64893,-112.52314 17.78425,-11.92035 34.1319,-16.8806 55.00779,-16.69063 31.00063,0.2821 56.71252,16.23764 70.149,43.53102 10.83121,22.00131 11.16231,43.32835 1.17186,75.48644 -2.7729,8.92563 -2.72032,10.47503 0.50029,14.74471 l 3.5988,4.77103 17.4718,-13.08384 c 20.6416,-15.45758 36.42615,-24.15116 55.41134,-30.51867 19.51396,-6.54485 53.358658,-13.21214 67.067913,-13.21214 14.977976,0 40.192501,4.85969 56.796764,10.94665 21.839664,8.0062 21.3315681,8.06824 26.843719,-3.2774 4.056679,-8.34987 6.935488,-11.03896 16.360478,-15.28223 12.515691,-5.63476 89.952016,-20.27365 117.459386,-22.20504 9.01732,-0.63313 19.94502,-2.48102 24.28381,-4.10641 8.27775,-3.10102 33.75569,-8.13963 87.99271,-17.40175 36.34487,-6.20666 43.90071,-5.55797 56.24464,4.82875 12.92454,10.87528 12.91825,10.81785 12.91825,118.03464 0,97.161393 -0.0411,98.060108 -5.36643,117.568625 -6.96085,25.4995599 -21.978,54.838945 -38.59407,75.402216 l -13.248,16.395127 12.56301,11.476589 c 6.90965,6.312124 13.21572,11.476589 14.01344,11.476589 0.79775,0 6.62781,-6.381224 12.95572,-14.180517 29.33355,-36.154228 67.34342,-60.735857 109.98262,-71.1276347 11.15045,-2.7175251 20.76543,-5.3727487 21.36659,-5.900475 0.60115,-0.5277482 1.58486,-18.3403543 2.18601,-39.5836073 1.68363,-59.495327 0.71105,-58.632309 83.10174,-73.739482 48.93012,-8.97184 56.85424,-9.91504 65.10923,-7.7499 13.18421,3.45797 19.63167,8.24805 25.04445,18.60654 4.13389,7.911077 4.82095,13.720614 5.88561,49.76615 0.66295,22.445235 1.92833,41.5307366 2.81192,42.4122042 0.88361,0.8814894 6.87968,-1.8984464 13.32462,-6.1776402 20.47421,-13.594074 38.85184,-21.652301 64.78259,-28.405738 67.21237,-17.504945 126.28598,-0.467348 166.73494,48.0885251 21.53708,25.8537819 34.72685,64.8968309 34.89539,103.2936889 0.10712,24.24472 -2.73318,36.54131 -10.59584,45.88548 -8.17811,9.71912 -13.97586,12.00552 -44.4955,17.54692 -15.02887,2.72878 -28.63726,5.64331 -30.24092,6.47671 -2.08393,1.08304 1.8251,6.9528 13.70392,20.5768 11.96866,13.72696 17.36572,21.85053 19.28526,29.02738 l 2.66541,9.96587 12.04867,-1.34984 c 37.85482,-4.24094 44.41374,-4.09483 54.67622,1.21805 7.48077,3.87279 11.14606,7.71084 15.30212,16.02276 l 5.46504,10.93008 -0.47065,71.6485 c -0.40398,61.46474 -0.9848,72.73156 -4.08676,79.26851 -5.17102,10.89723 -14.34705,17.73687 -27.62251,20.5892 -18.70181,4.01821 -175.18499,32.33027 -206.09593,37.28836 -26.31264,4.22052 -225.97626,38.98064 -358.50677,62.41369 -31.26004,5.52717 -85.36396,14.93226 -120.23093,20.9002 -34.86697,5.96796 -110.1206,19.12231 -167.230293,29.23194 -57.1096922,10.10961 -119.083272,20.92912 -137.719066,24.04335 -31.149951,5.20543 -182.616141,31.66117 -351.948721,61.47289 -206.51252,36.3574 -218.80466,38.28614 -250.29894,39.27426 -25.44983,0.79849 -33.20216,0.25435 -46.02936,-3.23086 z m 96.71638,-39.37847 c 20.21452,-3.49612 183.32609,-31.97977 362.47018,-63.29698 179.144084,-31.31723 450.15553,-78.64814 602.24766,-105.17985 152.09212,-26.53169 307.02607,-53.58299 344.29766,-60.114 37.27159,-6.53101 102.68815,-17.90689 145.37013,-25.27976 56.7702,-9.80645 78.33722,-14.34659 80.33612,-16.9119 3.25826,-4.18148 3.91778,-119.8308 0.7122,-124.89477 -1.64301,-2.59533 -4.50385,-2.6683 -18.00119,-0.45905 -13.15654,2.15352 -829.891614,144.57193 -1248.96131,217.78799 -126.29105,22.06444 -278.31486,48.32488 -290.84205,50.23977 -11.36067,1.73657 -15.5776,-2.57913 -18.30643,-18.73511 -1.10026,-6.51422 -2.54413,-70.26378 -3.20859,-141.66572 -0.66444,-71.40194 -1.50726,-130.12086 -1.87291,-130.48652 -0.83465,-0.83466 -69.24799,10.64131 -100.39145,16.84013 l -23.32441,4.64249 0.94939,133.62193 c 0.52217,73.49205 1.37999,143.45897 1.90627,155.48207 1.61472,36.88897 11.01405,62.54432 30.70742,83.81551 28.96229,31.28274 62.32716,37.32027 135.91131,24.59377 z m 134.89738,-163.7283 11.15712,-3.70344 0.63812,-48.09237 c 0.35097,-26.45081 0.061,-51.28691 -0.6445,-55.19135 l -1.28264,-7.09899 -8.79557,4.48715 c -4.83755,2.46795 -13.4009,5.01608 -19.02963,5.66255 -8.37081,0.96137 -11.62708,0.23498 -17.88514,-3.98981 -15.31335,-10.33793 -19.04615,-27.55028 -10.1281,-46.70169 11.18773,-24.02546 37.56832,-35.99987 55.38182,-25.13834 14.40823,8.78521 14.72853,10.63595 16.09413,92.99421 0.6778,40.87851 1.41558,74.5705 1.63952,74.87108 1.45339,1.95095 84.37903,-11.42288 99.11964,-15.98554 5.44655,-1.68587 6.70128,-33.84636 4.42962,-113.53597 -1.89204,-66.37154 -2.05672,-68.10402 -7.99921,-84.16165 -19.51131,-52.72281 -61.16573,-77.09926 -120.51953,-70.52884 -41.78497,4.62557 -71.56475,17.97748 -100.77122,45.18126 -26.54942,24.72887 -44.00146,52.68316 -53.62927,85.90204 -4.10536,14.16476 -4.91135,22.04188 -4.76412,46.56037 0.15521,25.85813 0.8736,31.47679 5.80294,45.38987 3.09413,8.73327 8.76551,20.77162 12.60306,26.75193 14.98285,23.34875 43.2961,43.07321 70.84877,49.35689 16.61628,3.78953 51.95252,2.20912 67.73419,-3.02936 z m 200.40859,-40.9225 c 23.35647,-4.2393 44.02996,-8.19033 45.94109,-8.78005 3.11354,-0.96075 3.612,-16.40863 4.7947,-148.59238 0.72595,-81.13609 0.72475,-214.039974 -0.002,-295.341965 l -1.32263,-147.821805 -13.30914,1.43201 c -7.32003,0.7876 -29.99006,4.59605 -50.37781,8.46323 -35.04789,6.64782 -37.1518,7.32921 -38.5844,12.49626 -1.85772,6.70026 -2.41754,574.052 -0.57322,580.93399 1.72826,6.44906 2.86053,6.38995 53.4336,-2.78929 z m 219.533697,-34.75207 c 26.488994,-8.89949 47.120928,-21.72195 67.7104525,-42.08107 C 13.375757,367.88472 28.463164,344.93915 38.596817,318.31071 l 7.164496,-18.82639 0.07258,48.46008 c 0.03979,26.65305 0.669599,50.01611 1.3994,51.9179 0.77984,2.03225 3.891744,3.45782 7.548142,3.45782 5.985096,0 86.572055,-14.16635 94.414265,-16.59703 3.55859,-1.103 3.82553,-7.19792 3.82553,-87.35159 v -86.16588 l 6.01154,-6.59797 c 7.82892,-8.59262 18.23814,-10.75564 24.00546,-4.98832 4.00199,4.00199 4.31859,9.0678 5.63488,90.16087 0.76707,47.25635 1.80425,86.33025 2.30487,86.83085 1.15962,1.15961 92.63907,-14.55354 99.21581,-17.04202 l 4.91854,-1.86104 0.29769,-66.18112 c 0.16373,-36.3996 0.65677,-63.72184 1.09563,-60.71607 6.06543,41.54186 21.40097,68.43459 50.23543,88.0939 20.11816,13.71654 36.68185,19.31864 61.10584,20.667 48.56204,2.68093 94.02807,-17.07587 131.40813,-57.10206 16.94902,-18.14886 28.60307,-38.37898 37.69279,-65.43048 l 5.98586,-17.8142 4.56768,13.52565 c 15.46231,45.78654 60.58224,77.08265 111.13083,77.08265 36.95111,0 76.72001,-15.3385 108.28106,-41.763 8.29659,-6.9462 10.18684,-9.68001 8.661,-12.52597 -3.92521,-7.32121 -53.4409,-59.38391 -56.4788,-59.38391 -1.72237,0 -7.15855,3.44689 -12.08037,7.65976 -26.44906,22.6395 -53.77558,8.61994 -58.6351,-30.08224 -5.74179,-45.72721 21.30077,-85.463293 53.98894,-79.330969 7.87862,1.478032 18.36495,12.15867 18.36495,18.705222 0,4.724289 -1.23991,5.173317 -27.32522,9.896167 -10.82078,1.95913 -21.14971,4.9912 -22.95317,6.73789 -2.47917,2.40114 -3.27903,8.44463 -3.27903,24.77575 0,11.87995 0.66324,22.26323 1.47403,23.07391 1.41173,1.41173 80.22201,-11.31307 132.96601,-21.46885 l 25.1392,-4.84052 0.68072,-19.6439 C 868.30122,88.687712 865.06504,71.751546 855.74671,52.464406 846.47012,33.263789 834.38364,19.2258 817.31544,7.8281266 797.89224,-5.142255 780.56259,-9.8370761 752.10917,-9.8370761 c -47.36071,0 -84.09082,15.7935787 -119.04011,51.1861111 -16.7772,16.990029 -31.90687,39.000574 -39.7007,57.756403 -2.82975,6.809792 -5.38621,11.889572 -5.68102,11.288412 -0.2948,-0.60115 -1.07416,-43.557716 -1.73191,-95.459048 -0.65775,-51.90131 -1.71163,-94.880424 -2.34197,-95.509121 -1.00697,-1.004363 -44.97832,6.03394 -87.7688,14.048797 l -14.59028,2.732805 -0.71184,129.174122 c -0.69226,125.622505 -0.83739,129.445365 -5.27861,139.040405 -15.17186,32.77786 -56.1753,38.55154 -68.93476,9.70663 -13.67537,-30.91539 22.17474,-69.86256 53.3847,-57.99655 5.21901,1.98427 5.32977,1.77598 6.68482,-12.5696 1.77834,-18.8272 1.77356,-76.815805 -0.007,-91.644388 -1.30835,-10.892507 -1.70146,-11.476589 -7.72423,-11.476589 -14.20036,0 -41.17961,7.287459 -59.71881,16.130859 -41.67842,19.881081 -78.90264,62.122668 -93.73739,106.372068 -3.03893,9.0646 -6.38116,22.83651 -7.42719,30.60423 l -1.90185,14.12314 -1.5846,-13.1161 c -6.22423,-51.519 -22.39183,-79.22609 -55.85378,-95.718799 -13.39456,-6.601903 -15.90944,-7.06689 -41.84896,-7.737538 -24.80377,-0.64129 -29.258,-0.156301 -43.99379,4.79035 C 119.3424,107.0541 92.837818,128.08487 72.217449,159.67214 61.451359,176.16411 51.957903,200.72917 48.598607,220.78771 l -1.830505,10.93008 -4.877965,-14.44642 C 32.968348,190.85053 16.281257,169.40527 -7.4933818,153.8073 -26.180941,141.54685 -44.035365,136.62606 -69.833119,136.62606 c -64.882491,0 -124.479981,38.97747 -155.273171,101.55052 -14.2602,28.97729 -18.59483,50.30934 -16.89083,83.12508 1.94746,37.50447 10.9982,58.82784 35.18084,82.88537 14.8765,14.79951 30.73612,24.27222 50.51607,30.1725 19.89236,5.93379 57.583577,4.28101 80.882627,-3.54677 z M -1450.4698,390.26016 c 61.3208,-10.91002 66.9372,-12.18799 69.1917,-15.74385 1.009,-1.5914 1.8511,-67.81814 1.8714,-147.17055 0.034,-132.9398 0.3372,-144.878141 3.859,-151.925663 7.2557,-14.519677 22.7962,-16.204047 25.402,-2.753222 0.6424,3.316362 1.8361,71.784425 2.6525,152.151255 l 1.4844,146.12155 10.0947,-1.42284 c 5.5522,-0.78255 32.2283,-5.38341 59.2802,-10.22413 34.6422,-6.19891 49.9934,-9.84053 51.9179,-12.316 2.1236,-2.73138 2.7325,-35.99093 2.7325,-149.23672 V 52.017956 l 4.9889,-7.427845 c 3.8854,-5.784835 6.725,-7.574221 12.838,-8.089706 5.8617,-0.494302 8.3049,0.335904 9.6496,3.279026 0.9903,2.167501 2.386,70.545959 3.1014,151.952129 0.7155,81.40616 1.9865,148.69685 2.8245,149.53486 1.6413,1.64124 24.5351,-1.81129 84.0961,-12.68222 l 37.7087,-6.88252 -0.017,-159.75783 c -0.018,-166.7732204 -0.4727,-176.262895 -9.7406,-202.970425 -16.6404,-47.952955 -61.2841,-67.633735 -118.0538,-52.04294 -34.4163,9.451843 -55.3835,23.888747 -76.9794,53.003869 l -14.3043,19.284845 -12.6344,-13.114047 c -8.6051,-8.931781 -17.4152,-15.378257 -27.6253,-20.213836 -14.0667,-6.662586 -16.4033,-7.089034 -37.9431,-6.925171 -39.8389,0.30307 -70.2644,14.105384 -99.8046,45.275559 -24.1452,25.4776114 -35.7361,51.920852 -40.2224,91.762759 -1.8053,16.032205 -2.1044,63.844307 -1.0563,168.829427 1.3659,136.8094 1.9001,154.1142 4.7579,154.1142 0.6045,0 23.0731,-3.90956 49.9302,-8.68793 z m 548.29542,-117.98579 c 5.46937,-1.68942 9.00258,-4.40786 10.35614,-7.96796 1.91314,-5.03193 0.36314,-105.82018 -1.62738,-105.82018 -0.46881,0 -3.65425,1.44889 -7.07871,3.21974 -3.42449,1.77087 -10.87146,4.26076 -16.54887,5.53309 -8.89344,1.99306 -11.57905,1.70505 -19.39859,-2.0803 -12.11549,-5.86502 -16.63362,-14.00876 -16.62341,-29.96299 0.0219,-32.52791 35.54612,-57.469687 60.17521,-42.24808 12.63231,7.80721 13.44943,12.88288 15.22887,94.59894 l 1.60869,73.87375 10.1284,-1.41649 c 5.57063,-0.77907 28.49294,-4.75697 50.93848,-8.83975 22.44554,-4.0828 41.49025,-7.42325 42.32157,-7.42325 0.83132,0 1.02371,-39.10238 0.42754,-86.89418 -0.90704,-72.711641 -1.68839,-89.034935 -4.78722,-100.01027 -12.12997,-42.961594 -39.64733,-70.5481 -79.62433,-79.824441 -16.5015,-3.829027 -55.90013,-1.578107 -76.6914,4.381565 -38.89997,11.1503914 -73.40101,37.282081 -98.22911,74.400539 -20.7929,31.085685 -29.2054,58.885567 -29.131,96.265667 0.1202,60.43408 27.2324,101.37934 79.20791,119.6213 12.6952,4.45565 17.23694,4.88955 42.62733,4.07231 15.63002,-0.50309 32.15397,-2.06863 36.71988,-3.47901 z m 284.0781,-51.77587 6.01154,-1.31347 -0.0109,-35.26795 c -0.007,-19.39736 -0.63967,-44.75607 -1.40768,-56.3527 l -1.39636,-21.08474 -14.88101,-0.84085 c -22.37388,-1.26424 -29.10651,-9.53412 -30.82607,-37.864549 l -0.66295,-10.922346 21.86016,-4.497336 21.86017,-4.497315 0.58271,-57.2179652 0.5827,-57.2179648 -6.04774,1.021132 c -3.32627,0.561631 -11.88474,2.015857 -19.01883,3.23161 -23.06316,3.930328 -20.75501,9.40442 -21.41982,-50.800436 l -0.58574,-53.01091 -7.65106,0.7342 c -10.61423,1.01855 -77.91808,13.14932 -88.28988,15.91327 l -8.50028,2.26522 1.24594,135.913777 c 1.07104,116.832743 1.75181,137.755153 4.8492,149.029893 12.09263,44.01829 40.27939,72.09914 83.34666,83.0334 12.47935,3.16835 45.32863,3.03015 60.35927,-0.25397 z m 68.31303,-15.68727 43.72033,-8.06971 1.3502,-33.88326 c 0.74261,-18.63579 1.49488,-56.50854 1.67173,-84.161651 0.3481,-54.431799 1.19554,-58.976682 11.95883,-64.137518 8.72426,-4.183162 15.8153,-1.708241 18.68406,6.521107 1.56696,4.494932 2.41487,33.24335 2.4343,82.535302 0.0175,41.60084 0.63981,77.91548 1.3853,80.69919 1.22354,4.56869 2.23125,4.92534 10.35374,3.66429 24.84813,-3.85773 83.92642,-14.97069 88.2414,-16.59873 l 4.91854,-1.85573 -0.0433,-95.692345 c -0.0238,-52.630784 -1.03403,-102.547781 -2.24491,-110.92663 -4.07071,-28.167528 -17.64347,-50.418439 -37.44583,-61.38788 -10.61657,-5.881005 -13.45902,-6.443015 -32.40453,-6.406975 -22.61183,0.043 -34.62964,4.01496 -55.41315,18.314395 l -9.6451,6.636004 -0.88149,-55.560469 c -0.48481,-30.55826 -1.60053,-56.27952 -2.47938,-57.15836 -1.41258,-1.41258 -66.21189,8.79369 -93.89264,14.78863 l -10.38358,2.24882 V 11.926865 c 0,103.150945 0.61482,190.621265 1.36626,194.378485 1.76619,8.83091 2.97668,8.80011 58.74921,-1.49412 z M 53.514481,122.39152 68.043558,103.78493 50.963399,87.642337 C 32.80584,70.481448 31.101927,70.298522 30.757892,85.473174 c -0.148649,6.551952 -8.625411,20.603556 -16.184329,26.827846 -5.9902332,4.93262 -4.313668,8.09563 9.883026,18.64537 7.439584,5.52844 13.752036,10.0517 14.02767,10.0517 0.275635,0 7.039237,-8.37295 15.030222,-18.60657 z m -145.668232,5.59026 c 12.785008,-2.63811 27.152341,-7.54681 38.406547,-13.12187 17.500989,-8.66957 41.225677,-25.901985 45.7736417,-33.247657 2.5263142,-4.080398 0.2228426,-6.977111 -35.0812427,-44.116314 L -63.517673,15.9694 l -9.228969,7.524074 c -13.047854,10.637464 -17.454777,12.575805 -28.591698,12.575805 -11.73931,0 -20.95339,-6.701759 -28.17888,-20.495635 -3.9463,-7.5336924 -4.73576,-12.788418 -4.80294,-31.968771 -0.0936,-26.710044 3.45942,-37.029137 18.28877,-53.117063 14.68601,-15.932465 38.249673,-19.23414 48.080038,-6.736854 4.618048,5.870885 7.782898,13.636208 6.20197,15.217157 -0.517058,0.517058 -12.150078,3.148105 -25.851136,5.846808 l -24.911022,4.90669 -2.79475,12.023093 c -2.5064,10.782507 -2.19544,25.187003 0.76353,35.3693383 1.27456,4.3859588 -5.03879,5.1536879 86.033252,-10.4619273 37.8225521,-6.485213 69.486854,-11.791309 70.365108,-11.791309 0.878276,0 2.188597,4.672611 2.91184,10.38358 5.4683,43.179124 18.390742,68.342365 44.224718,86.116606 15.566892,10.710302 31.308792,14.986676 55.167902,14.986676 41.35775,0 69.39333,-11.987745 99.89769,-42.715317 16.71699,-16.839304 21.63757,-23.493277 30.04486,-40.6288731 5.52961,-11.2703818 11.41988,-25.9118859 13.08949,-32.5366319 3.6261,-14.387948 7.16924,-150.672176 4.65548,-179.069726 l -1.61283,-18.21986 -12.31685,1.30312 c -21.01971,2.22388 -86.52386,14.77686 -88.82744,17.02258 -1.34626,1.31243 -2.6059,35.17442 -3.27902,88.14729 -1.01263,79.690994 -1.38994,86.343962 -5.13078,90.473522 -8.06094,8.898532 -20.69041,9.85522 -27.16194,2.057523 -1.89169,-2.27936 -3.04383,-27.216566 -4.10538,-88.858815 l -1.47572,-85.69023 -10.0278,1.4258 c -20.48567,2.91274 -89.756917,15.92809 -91.933622,17.27336 -1.438005,0.88874 -2.294596,19.37765 -2.362712,50.99707 l -0.106853,49.602877 -5.360397,-13.934594 c -20.224788,-52.575293 -70.404544,-80.840613 -128.637434,-72.459083 -36.709852,5.2837 -65.487182,19.24873 -93.000262,45.13106 -46.89472,44.115188 -67.20507,102.647284 -55.97847,161.32341 8.71016,45.523955 40.9978,79.81104 86.44875,91.80215 16.70713,4.40778 36.87305,4.13857 60.867429,-0.81252 z M -283.40538,-154.18364 c 14.40791,-5.39069 29.5337,-20.61653 35.18718,-35.41991 6.01887,-15.76022 4.06363,-36.1974 -4.49189,-46.95148 -17.20201,-21.62248 -47.2759,-23.64744 -71.0896,-4.78665 -31.39774,24.86748 -33.79997,71.67731 -4.4734,87.16892 10.79866,5.70434 29.60462,5.69978 44.86771,-0.0109 z"
         id="path2189"
         transform="scale(0.26458333)" /><path
         style="fill:#ffffff;stroke-width:87.4407;stroke-linecap:square;stroke-miterlimit:0;paint-order:fill markers stroke"
         d="m -120.23204,324.07701 c -20.28475,-13.84616 -20.21307,-44.48351 0.15172,-64.8483 13.97357,-13.97357 32.512155,-17.33611 45.978974,-8.33969 20.665503,13.80545 19.903977,44.89416 -1.602153,65.40678 -14.456344,13.78851 -31.392131,16.74798 -44.528541,7.78121 z"
         id="path2191"
         transform="scale(0.26458333)" /></g></g></svg>
